Merriweather_checking Global glyphs again.glyphspackage
{
glyphname = at;
kernLeft = at;
kernRight = at;
layers = (
{
layerId = UUID0;
shapes = (
{
closed = 1;
nodes = (
(136,-162,o),
(396,-500,o),
(870,-500,cs),
(1060,-500,o),
(1240,-438,o),
(1338,-358,c),
(1306,-290,l),
(1226,-344,o),
(1040,-386,o),
(896,-386,cs),
(530,-386,o),
(264,-118,o),
(264,392,cs),
(264,1010,o),
(670,1390,o),
(1110,1390,cs),
(1442,1390,o),
(1746,1204,o),
(1746,734,cs),
(1746,342,o),
(1508,102,o),
(1366,102,cs),
(1332,102,o),
(1310,160,o),
(1322,326,cs),
(1336,524,o),
(1398,846,o),
(1424,972,c),
(1388,986,o),
(1360,997,o),
(1328,1006,cs),
(1306,1012,o),
(1296,982,o),
(1288,958,c),
(1220,996,o),
(1124,1016,o),
(1054,1016,cs),
(738,1016,o),
(550,636,o),
(550,368,cs),
(550,120,o),
(688,-26,o),
(820,-26,cs),
(970,-26,o),
(1120,206,o),
(1206,434,c),
(1182,302,o),
(1176,210,o),
(1180,148,cs),
(1187,36,o),
(1260,-26,o),
(1328,-26,cs),
(1492,-26,o),
(1860,244,o),
(1860,772,cs),
(1860,1264,o),
(1566,1504,o),
(1168,1504,cs),
(626,1504,o),
(136,1056,o),
(136,362,cs)
);
},
{
closed = 1;
nodes = (
(702,648,o),
(814,898,o),
(1012,898,cs),
(1082,898,o),
(1208,866,o),
(1248,826,c),
(1236,754,o),
(1214,674,o),
(1186,596,cs),
(1095,342,o),
(950,120,o),
(852,120,cs),
(740,120,o),
(702,278,o),
(702,406,cs)
);
}
);
width = 1994;
},
{
layerId = "DEBB1CE4-A72D-4960-969E-E04A036D2FA1";
shapes = (
{
closed = 1;
nodes = (
(152,-200,o),
(511,-522,o),
(941,-522,cs),
(1139,-522,o),
(1333,-468,o),
(1444,-373,c),
(1405,-281,l),
(1328,-332,o),
(1152,-373,o),
(993,-373,cs),
(660,-373,o),
(357,-133,o),
(357,364,cs),
(357,955,o),
(681,1396,o),
(1186,1396,cs),
(1517,1396,o),
(1865,1253,o),
(1865,727,cs),
(1865,389,o),
(1698,170,o),
(1519,170,cs),
(1502,170,o),
(1472,237,o),
(1478,338,cs),
(1489,530,o),
(1560,846,o),
(1592,991,c),
(1538,1007,o),
(1479,1033,o),
(1434,1044,cs),
(1406,1051,o),
(1377,1020,o),
(1369,996,c),
(1298,1033,o),
(1209,1051,o),
(1138,1051,cs),
(810,1051,o),
(609,701,o),
(609,380,cs),
(609,123,o),
(759,-29,o),
(895,-29,cs),
(1072,-29,o),
(1208,206,o),
(1293,438,c),
(1269,302,o),
(1258,214,o),
(1261,160,cs),
(1267,48,o),
(1328,-8,o),
(1396,-8,cs),
(1620,-8,o),
(2037,256,o),
(2037,803,cs),
(2037,1276,o),
(1710,1562,o),
(1273,1562,cs),
(583,1562,o),
(152,1000,o),
(152,322,cs)
);
},
{
closed = 1;
nodes = (
(855,672,o),
(936,888,o),
(1097,888,cs),
(1147,888,o),
(1267,844,o),
(1298,808,c),
(1290,755,o),
(1264,667,o),
(1243,603,cs),
(1178,405,o),
(1046,209,o),
(962,209,cs),
(887,209,o),
(855,362,o),
(855,453,cs)
);
}
);
width = 2155;
},
{
layerId = "184155C8-9F61-4F1C-9784-DDA8EA717636";
shapes = (
{
closed = 1;
nodes = (
(142,-186,o),
(480,-522,o),
(931,-522,cs),
(1115,-522,o),
(1311,-466,o),
(1416,-373,c),
(1396,-328,l),
(1275,-405,o),
(1133,-438,o),
(1005,-438,cs),
(600,-438,o),
(298,-111,o),
(298,391,cs),
(298,952,o),
(665,1431,o),
(1184,1431,cs),
(1554,1431,o),
(1879,1181,o),
(1879,729,cs),
(1879,355,o),
(1656,125,o),
(1519,125,cs),
(1469,125,o),
(1455,156,o),
(1455,257,cs),
(1455,500,o),
(1517,819,o),
(1553,930,c),
(1391,986,o),
(1376,990,o),
(1353,990,cs),
(1327,990,o),
(1310,990,o),
(1292,943,c),
(1228,975,o),
(1167,991,o),
(1100,991,cs),
(786,991,o),
(561,694,o),
(561,359,cs),
(561,117,o),
(683,-20,o),
(844,-20,cs),
(1018,-20,o),
(1132,140,o),
(1209,418,c),
(1185,282,o),
(1171,194,o),
(1174,140,cs),
(1180,28,o),
(1254,-8,o),
(1353,-8,cs),
(1643,-8,o),
(2007,305,o),
(2007,799,cs),
(2007,1222,o),
(1741,1533,o),
(1274,1533,cs),
(700,1533,o),
(142,1040,o),
(142,344,cs)
);
},
{
closed = 1;
nodes = (
(871,729,o),
(984,932,o),
(1116,932,cs),
(1161,932,o),
(1210,900,o),
(1255,851,c),
(1255,796,o),
(1221,644,o),
(1201,569,cs),
(1141,344,o),
(1062,193,o),
(978,193,cs),
(901,193,o),
(871,322,o),
(871,457,cs)
);
}
);
width = 2127;
},
{
layerId = "EA2265BD-E890-48C4-9E90-A53076E780C5";
shapes = (
{
closed = 1;
nodes = (
(93,-223,o),
(462,-522,o),
(837,-522,cs),
(1001,-522,o),
(1181,-468,o),
(1281,-373,c),
(1245,-281,l),
(1184,-329,o),
(1026,-373,o),
(890,-373,cs),
(596,-373,o),
(289,-153,o),
(289,394,cs),
(289,952,o),
(607,1396,o),
(1071,1396,cs),
(1330,1396,o),
(1684,1253,o),
(1684,734,cs),
(1684,387,o),
(1525,170,o),
(1358,170,cs),
(1347,170,o),
(1322,234,o),
(1324,338,cs),
(1327,520,o),
(1409,900,o),
(1427,991,c),
(1381,1005,o),
(1293,1040,o),
(1271,1044,cs),
(1244,1049,o),
(1216,1020,o),
(1209,996,c),
(1146,1033,o),
(1068,1051,o),
(1003,1051,cs),
(713,1051,o),
(532,696,o),
(532,387,cs),
(532,118,o),
(669,-29,o),
(794,-29,cs),
(952,-29,o),
(1070,208,o),
(1144,438,c),
(1121,293,o),
(1112,214,o),
(1114,160,cs),
(1119,36,o),
(1170,-8,o),
(1251,-8,cs),
(1449,-8,o),
(1851,256,o),
(1851,803,cs),
(1851,1276,o),
(1538,1562,o),
(1114,1562,cs),
(508,1562,o),
(93,967,o),
(93,357,cs)
);
},
{
closed = 1;
nodes = (
(773,666,o),
(843,888,o),
(962,888,cs),
(1014,888,o),
(1114,844,o),
(1139,808,c),
(1133,749,o),
(1101,635,o),
(1092,602,cs),
(1033,384,o),
(925,209,o),
(859,209,cs),
(800,209,o),
(773,352,o),
(773,472,cs)
);
}
);
width = 1933;
},
{
layerId = "0E4B6E2E-ECAB-4D06-9686-B0B40AA31834";
shapes = (
{
closed = 1;
nodes = (
(106,-161,o),
(380,-500,o),
(797,-500,cs),
(973,-500,o),
(1148,-439,o),
(1243,-358,c),
(1216,-290,l),
(1140,-345,o),
(974,-386,o),
(840,-386,cs),
(469,-386,o),
(229,-81,o),
(229,389,cs),
(229,961,o),
(583,1390,o),
(1042,1390,cs),
(1350,1390,o),
(1643,1201,o),
(1643,748,cs),
(1643,335,o),
(1385,102,o),
(1291,102,cs),
(1239,102,o),
(1218,157,o),
(1230,318,cs),
(1245,513,o),
(1289,782,o),
(1325,972,c),
(1287,988,o),
(1256,1001,o),
(1233,1006,cs),
(1216,1010,o),
(1207,997,o),
(1194,958,c),
(1132,996,o),
(1042,1016,o),
(976,1016,cs),
(688,1016,o),
(514,634,o),
(514,361,cs),
(514,126,o),
(642,-26,o),
(761,-26,cs),
(902,-26,o),
(1036,196,o),
(1120,431,c),
(1097,300,o),
(1092,194,o),
(1095,149,cs),
(1103,33,o),
(1167,-26,o),
(1238,-26,cs),
(1386,-26,o),
(1752,243,o),
(1752,781,cs),
(1752,1262,o),
(1456,1504,o),
(1082,1504,cs),
(578,1504,o),
(106,1055,o),
(106,365,cs)
);
},
{
closed = 1;
nodes = (
(661,642,o),
(762,898,o),
(939,898,cs),
(1004,898,o),
(1121,865,o),
(1156,826,c),
(1145,753,o),
(1118,654,o),
(1099,595,cs),
(1012,324,o),
(881,120,o),
(789,120,cs),
(712,120,o),
(661,247,o),
(661,411,cs)
);
}
);
width = 1856;
},
{
layerId = "F2B10EEF-9DDC-48CA-970D-6B8C79870881";
shapes = (
{
closed = 1;
nodes = (
(133,-186,o),
(444,-522,o),
(859,-522,cs),
(1028,-522,o),
(1208,-466,o),
(1305,-373,c),
(1287,-328,l),
(1175,-405,o),
(1045,-438,o),
(927,-438,cs),
(554,-438,o),
(277,-111,o),
(277,391,cs),
(277,952,o),
(614,1431,o),
(1092,1431,cs),
(1432,1431,o),
(1731,1181,o),
(1731,729,cs),
(1731,355,o),
(1538,125,o),
(1412,125,cs),
(1366,125,o),
(1353,156,o),
(1353,257,cs),
(1353,500,o),
(1410,819,o),
(1443,930,c),
(1294,986,o),
(1280,990,o),
(1259,990,cs),
(1235,990,o),
(1220,990,o),
(1203,943,c),
(1144,975,o),
(1088,991,o),
(1026,991,cs),
(737,991,o),
(530,694,o),
(530,359,cs),
(530,117,o),
(643,-20,o),
(791,-20,cs),
(951,-20,o),
(1056,140,o),
(1127,418,c),
(1105,282,o),
(1092,194,o),
(1094,140,cs),
(1098,28,o),
(1168,-8,o),
(1259,-8,cs),
(1526,-8,o),
(1849,305,o),
(1849,799,cs),
(1849,1222,o),
(1604,1533,o),
(1174,1533,cs),
(646,1533,o),
(133,1040,o),
(133,344,cs)
);
},
{
closed = 1;
nodes = (
(816,729,o),
(920,932,o),
(1041,932,cs),
(1082,932,o),
(1128,900,o),
(1169,851,c),
(1169,796,o),
(1138,644,o),
(1119,569,cs),
(1062,344,o),
(991,193,o),
(914,193,cs),
(843,193,o),
(816,322,o),
(816,457,cs)
);
}
);
width = 1974;
},
{
layerId = "E96AC896-F5DF-475B-BBD9-C7FEC6A86D0E";
shapes = (
{
closed = 1;
nodes = (
(133,-198,o),
(411,-500,o),
(813,-500,cs),
(993,-500,o),
(1156,-439,o),
(1247,-358,c),
(1230,-303,l),
(1139,-387,o),
(978,-446,o),
(828,-446,cs),
(481,-446,o),
(246,-119,o),
(246,382,cs),
(246,1000,o),
(605,1450,o),
(1045,1450,cs),
(1361,1450,o),
(1638,1232,o),
(1638,760,cs),
(1638,312,o),
(1382,66,o),
(1286,66,cs),
(1242,66,o),
(1215,118,o),
(1230,325,cs),
(1244,515,o),
(1288,783,o),
(1323,962,c),
(1252,988,o),
(1245,990,o),
(1240,991,cs),
(1224,994,o),
(1216,984,o),
(1204,945,c),
(1137,975,o),
(1049,992,o),
(989,992,cs),
(700,992,o),
(531,626,o),
(531,365,cs),
(531,140,o),
(656,4,o),
(771,4,cs),
(921,4,o),
(1042,245,o),
(1122,478,c),
(1107,313,o),
(1105,185,o),
(1106,148,cs),
(1108,56,o),
(1177,4,o),
(1243,4,cs),
(1392,4,o),
(1738,259,o),
(1738,787,cs),
(1738,1259,o),
(1464,1504,o),
(1085,1504,cs),
(583,1504,o),
(133,1073,o),
(133,362,cs)
);
},
{
closed = 1;
nodes = (
(665,698,o),
(788,938,o),
(944,938,cs),
(1015,938,o),
(1116,888,o),
(1174,842,c),
(1162,764,o),
(1140,676,o),
(1115,595,cs),
(1023,298,o),
(888,90,o),
(795,90,cs),
(723,90,o),
(665,215,o),
(665,411,cs)
);
}
);
width = 1863;
},
{
layerId = "C9B9556E-C2FD-4F62-BB40-44923C452C22";
shapes = (
{
closed = 1;
nodes = (
(142,-198,o),
(444,-500,o),
(881,-500,cs),
(1077,-500,o),
(1254,-439,o),
(1353,-358,c),
(1334,-303,l),
(1235,-387,o),
(1060,-446,o),
(897,-446,cs),
(520,-446,o),
(262,-119,o),
(262,382,cs),
(262,1000,o),
(655,1450,o),
(1133,1450,cs),
(1466,1450,o),
(1782,1232,o),
(1782,760,cs),
(1782,312,o),
(1500,66,o),
(1395,66,cs),
(1347,66,o),
(1318,118,o),
(1334,325,cs),
(1349,515,o),
(1397,783,o),
(1435,962,c),
(1358,988,o),
(1351,990,o),
(1345,991,cs),
(1328,994,o),
(1319,984,o),
(1306,945,c),
(1233,975,o),
(1138,992,o),
(1072,992,cs),
(758,992,o),
(575,626,o),
(575,365,cs),
(575,140,o),
(711,4,o),
(835,4,cs),
(999,4,o),
(1130,245,o),
(1217,478,c),
(1201,313,o),
(1198,185,o),
(1200,148,cs),
(1205,56,o),
(1277,4,o),
(1349,4,cs),
(1510,4,o),
(1887,259,o),
(1887,787,cs),
(1887,1259,o),
(1589,1504,o),
(1177,1504,cs),
(631,1504,o),
(142,1073,o),
(142,362,cs)
);
},
{
closed = 1;
nodes = (
(720,698,o),
(854,938,o),
(1024,938,cs),
(1101,938,o),
(1211,888,o),
(1274,842,c),
(1261,764,o),
(1237,676,o),
(1209,595,cs),
(1108,298,o),
(963,90,o),
(862,90,cs),
(783,90,o),
(720,215,o),
(720,411,cs)
);
}
);
width = 2011;
},
{
layerId = "AFA1064D-EFC9-4C9F-B9B0-9118E41D87C4";
shapes = (
{
closed = 1;
nodes = (
(142,-186,o),
(500,-522,o),
(978,-522,cs),
(1173,-522,o),
(1380,-466,o),
(1492,-373,c),
(1470,-328,l),
(1342,-405,o),
(1192,-438,o),
(1056,-438,cs),
(627,-438,o),
(307,-111,o),
(307,391,cs),
(307,952,o),
(696,1431,o),
(1246,1431,cs),
(1638,1431,o),
(1982,1181,o),
(1982,729,cs),
(1982,355,o),
(1746,125,o),
(1601,125,cs),
(1548,125,o),
(1533,156,o),
(1533,257,cs),
(1533,500,o),
(1599,819,o),
(1637,930,c),
(1465,986,o),
(1449,990,o),
(1425,990,cs),
(1397,990,o),
(1379,990,o),
(1360,943,c),
(1292,975,o),
(1228,991,o),
(1157,991,cs),
(824,991,o),
(586,694,o),
(586,359,cs),
(586,117,o),
(715,-20,o),
(886,-20,cs),
(1070,-20,o),
(1191,140,o),
(1272,418,c),
(1247,282,o),
(1232,194,o),
(1235,140,cs),
(1242,28,o),
(1320,-8,o),
(1425,-8,cs),
(1732,-8,o),
(2118,305,o),
(2118,799,cs),
(2118,1222,o),
(1836,1533,o),
(1341,1533,cs),
(733,1533,o),
(142,1040,o),
(142,344,cs)
);
},
{
closed = 1;
nodes = (
(914,729,o),
(1034,932,o),
(1174,932,cs),
(1221,932,o),
(1273,900,o),
(1321,851,c),
(1321,796,o),
(1285,644,o),
(1264,569,cs),
(1200,344,o),
(1117,193,o),
(1028,193,cs),
(946,193,o),
(914,322,o),
(914,457,cs)
);
}
);
width = 2243;
},
{
layerId = "2103F1D3-C390-4F79-A87D-298F85EA6916";
shapes = (
{
closed = 1;
nodes = (
(132,-198,o),
(452,-500,o),
(914,-500,cs),
(1122,-500,o),
(1309,-439,o),
(1414,-358,c),
(1394,-303,l),
(1289,-387,o),
(1104,-446,o),
(931,-446,cs),
(532,-446,o),
(259,-119,o),
(259,382,cs),
(259,1000,o),
(675,1450,o),
(1181,1450,cs),
(1533,1450,o),
(1868,1232,o),
(1868,760,cs),
(1868,312,o),
(1569,66,o),
(1458,66,cs),
(1408,66,o),
(1377,118,o),
(1394,325,cs),
(1410,515,o),
(1460,783,o),
(1501,962,c),
(1419,988,o),
(1412,990,o),
(1405,991,cs),
(1387,994,o),
(1378,984,o),
(1364,945,c),
(1287,975,o),
(1186,992,o),
(1116,992,cs),
(784,992,o),
(590,626,o),
(590,365,cs),
(590,140,o),
(734,4,o),
(866,4,cs),
(1039,4,o),
(1178,245,o),
(1270,478,c),
(1253,313,o),
(1250,185,o),
(1252,148,cs),
(1257,56,o),
(1333,4,o),
(1410,4,cs),
(1580,4,o),
(1979,259,o),
(1979,787,cs),
(1979,1259,o),
(1664,1504,o),
(1228,1504,cs),
(650,1504,o),
(132,1073,o),
(132,362,cs)
);
},
{
closed = 1;
nodes = (
(744,698,o),
(886,938,o),
(1066,938,cs),
(1147,938,o),
(1264,888,o),
(1330,842,c),
(1316,764,o),
(1291,676,o),
(1261,595,cs),
(1151,299,o),
(1001,90,o),
(894,90,cs),
(811,90,o),
(744,215,o),
(744,411,cs)
);
}
);
width = 2093;
},
{
layerId = "779F1615-9D1A-4778-9767-9A030AA58B6C";
shapes = (
{
closed = 1;
nodes = (
(154,-166,o),
(477,-500,o),
(937,-500,cs),
(1144,-500,o),
(1324,-439,o),
(1429,-358,c),
(1396,-290,l),
(1310,-344,o),
(1136,-386,o),
(975,-386,cs),
(585,-386,o),
(282,-104,o),
(282,387,cs),
(282,1010,o),
(714,1390,o),
(1198,1390,cs),
(1542,1390,o),
(1865,1195,o),
(1865,745,cs),
(1865,339,o),
(1601,102,o),
(1470,102,cs),
(1412,102,o),
(1391,148,o),
(1406,331,cs),
(1423,536,o),
(1482,829,o),
(1514,972,c),
(1501,977,o),
(1441,1002,o),
(1419,1006,cs),
(1404,1009,o),
(1394,1005,o),
(1378,958,c),
(1305,996,o),
(1202,1016,o),
(1126,1016,cs),
(797,1016,o),
(600,637,o),
(600,361,cs),
(600,126,o),
(742,-26,o),
(874,-26,cs),
(1036,-26,o),
(1194,198,o),
(1289,434,c),
(1262,288,o),
(1258,210,o),
(1263,147,cs),
(1272,29,o),
(1350,-26,o),
(1424,-26,cs),
(1591,-26,o),
(1979,243,o),
(1979,778,cs),
(1979,1232,o),
(1699,1504,o),
(1248,1504,cs),
(668,1504,o),
(154,1058,o),
(154,358,cs)
);
},
{
closed = 1;
nodes = (
(752,645,o),
(872,898,o),
(1082,898,cs),
(1158,898,o),
(1294,866,o),
(1337,826,c),
(1324,754,o),
(1301,676,o),
(1271,596,cs),
(1168,321,o),
(1007,120,o),
(898,120,cs),
(818,120,o),
(752,235,o),
(752,410,cs)
);
}
);
userData = {
com.schriftgestaltung.Glyphs.lastChange = "2019-04-25 21:50:43 +0000";
};
width = 2135;
},
{
layerId = "97BB7961-D669-43AB-8BBF-11FFD0C46A4B";
shapes = (
{
closed = 1;
nodes = (
(147,-215,o),
(535,-522,o),
(1002,-522,cs),
(1202,-522,o),
(1410,-466,o),
(1522,-373,c),
(1481,-281,l),
(1410,-328,o),
(1227,-373,o),
(1062,-373,cs),
(696,-373,o),
(360,-153,o),
(360,387,cs),
(360,954,o),
(709,1396,o),
(1272,1396,cs),
(1582,1396,o),
(1961,1252,o),
(1961,741,cs),
(1961,382,o),
(1774,170,o),
(1584,170,cs),
(1582,170,o),
(1567,232,o),
(1572,345,cs),
(1580,539,o),
(1649,840,o),
(1680,991,c),
(1614,1006,o),
(1514,1040,o),
(1490,1044,cs),
(1459,1049,o),
(1433,1021,o),
(1425,996,c),
(1356,1033,o),
(1252,1051,o),
(1174,1051,cs),
(825,1051,o),
(627,693,o),
(627,390,cs),
(627,120,o),
(784,-29,o),
(933,-29,cs),
(1120,-29,o),
(1275,206,o),
(1364,438,c),
(1341,308,o),
(1328,220,o),
(1331,162,cs),
(1337,36,o),
(1407,-8,o),
(1491,-8,cs),
(1696,-8,o),
(2141,256,o),
(2141,801,cs),
(2141,1276,o),
(1803,1562,o),
(1325,1562,cs),
(622,1562,o),
(147,980,o),
(147,344,cs)
);
},
{
closed = 1;
nodes = (
(916,673,o),
(1007,888,o),
(1149,888,cs),
(1214,888,o),
(1321,844,o),
(1354,808,c),
(1347,762,o),
(1332,687,o),
(1302,601,cs),
(1227,387,o),
(1096,209,o),
(1015,209,cs),
(941,209,o),
(916,356,o),
(916,465,cs)
);
}
);
width = 2277;
}
);
unicode = 64;
}
{
color = 4;
glyphname = G;
kernLeft = O;
kernRight = G;
layers = (
{
anchors = (
{
name = bottom;
pos = (741,0);
},
{
name = hook;
pos = (1259,1108);
},
{
name = rstem;
pos = (1258,380);
},
{
name = top;
pos = (751,1486);
}
);
layerId = UUID0;
shapes = (
{
closed = 1;
nodes = (
(999,-22,o),
(1155,76,o),
(1291,80,c),
(1291,622,l),
(1413,642,l),
(1413,748,l),
(845,748,l),
(845,642,l),
(1123,622,l),
(1123,166,l),
(1021,110,o),
(885,71,o),
(743,71,cs),
(365,71,o),
(241,418,o),
(241,770,cs),
(241,1192,o),
(435,1406,o),
(775,1406,cs),
(963,1406,o),
(1081,1362,o),
(1111,1338,c),
(1155,1108,l),
(1259,1108,l),
(1275,1440,l),
(1207,1445,o),
(999,1502,o),
(793,1502,cs),
(345,1502,o),
(53,1220,o),
(53,718,cs),
(53,306,o),
(287,-22,o),
(731,-22,cs)
);
}
);
width = 1441;
},
{
anchors = (
{
name = bottom;
pos = (772,0);
},
{
name = hook;
pos = (1310,1056);
},
{
name = rstem;
pos = (1288,380);
},
{
name = top;
pos = (772,1486);
}
);
layerId = "DEBB1CE4-A72D-4960-969E-E04A036D2FA1";
shapes = (
{
closed = 1;
nodes = (
(1030,-22,o),
(1240,76,o),
(1346,80,c),
(1346,606,l),
(1446,623,l),
(1446,767,l),
(824,767,l),
(824,623,l),
(1010,601,l),
(1010,184,l),
(970,145,o),
(886,117,o),
(790,117,cs),
(544,117,o),
(448,385,o),
(448,758,cs),
(448,1159,o),
(584,1371,o),
(820,1371,cs),
(939,1371,o),
(995,1340,o),
(1013,1320,c),
(1069,1056,l),
(1310,1056,l),
(1333,1443,l),
(1262,1450,o),
(1040,1505,o),
(828,1505,cs),
(348,1505,o),
(50,1232,o),
(50,730,cs),
(50,305,o),
(300,-22,o),
(759,-22,cs)
);
}
);
width = 1464;
},
{
anchors = (
{
name = bottom;
pos = (737,0);
},
{
name = hook;
pos = (1245,1006);
},
{
name = rstem;
pos = (1278,380);
},
{
name = top;
pos = (737,1486);
}
);
layerId = "184155C8-9F61-4F1C-9784-DDA8EA717636";
shapes = (
{
closed = 1;
nodes = (
(1074,-22,o),
(1123,80,o),
(1315,80,c),
(1315,621,l),
(1399,641,l),
(1399,694,l),
(797,694,l),
(797,641,l),
(973,621,l),
(973,184,l),
(943,88,o),
(846,36,o),
(741,36,cs),
(519,36,o),
(460,385,o),
(462,758,cs),
(464,1245,o),
(540,1447,o),
(719,1447,cs),
(913,1447,o),
(957,1381,o),
(967,1316,c),
(1019,1006,l),
(1245,1006,l),
(1299,1437,l),
(1109,1437,o),
(1031,1507,o),
(743,1507,cs),
(289,1507,o),
(30,1213,o),
(30,734,cs),
(30,289,o),
(238,-22,o),
(712,-22,cs)
);
}
);
width = 1414;
},
{
anchors = (
{
name = bottom;
pos = (694,0);
},
{
name = hook;
pos = (1171,1058);
},
{
name = rstem;
pos = (1087,380);
},
{
name = top;
pos = (694,1486);
}
);
layerId = "EA2265BD-E890-48C4-9E90-A53076E780C5";
shapes = (
{
closed = 1;
nodes = (
(908,-22,o),
(1084,76,o),
(1178,80,c),
(1178,606,l),
(1267,623,l),
(1267,767,l),
(716,767,l),
(716,623,l),
(877,601,l),
(877,184,l),
(852,145,o),
(781,117,o),
(696,117,cs),
(478,117,o),
(412,385,o),
(412,758,cs),
(412,1159,o),
(523,1371,o),
(732,1371,cs),
(831,1371,o),
(880,1340,o),
(896,1320,c),
(946,1056,l),
(1170,1056,l),
(1191,1443,l),
(1128,1443,o),
(947,1505,o),
(739,1505,cs),
(314,1505,o),
(40,1232,o),
(40,730,cs),
(40,305,o),
(261,-22,o),
(668,-22,cs)
);
}
);
width = 1287;
},
{
anchors = (
{
name = bottom;
pos = (657,0);
},
{
name = hook;
pos = (1069,1108);
},
{
name = rstem;
pos = (1048,380);
},
{
name = top;
pos = (667,1486);
}
);
layerId = "0E4B6E2E-ECAB-4D06-9686-B0B40AA31834";
shapes = (
{
closed = 1;
nodes = (
(881,-22,o),
(984,76,o),
(1080,80,c),
(1080,622,l),
(1192,642,l),
(1192,748,l),
(673,748,l),
(673,642,l),
(927,622,l),
(927,166,l),
(862,110,o),
(777,71,o),
(630,71,cs),
(325,71,o),
(225,418,o),
(225,770,cs),
(225,1172,o),
(417,1406,o),
(677,1406,cs),
(830,1406,o),
(901,1362,o),
(928,1338,c),
(968,1108,l),
(1070,1108,l),
(1085,1437,l),
(1020,1441,o),
(863,1502,o),
(694,1502,cs),
(315,1502,o),
(43,1220,o),
(43,718,cs),
(43,296,o),
(255,-22,o),
(619,-22,cs)
);
}
);
width = 1213;
},
{
anchors = (
{
name = bottom;
pos = (646,0);
},
{
name = hook;
pos = (1102,1006);
},
{
name = rstem;
pos = (1035,390);
},
{
name = top;
pos = (666,1486);
}
);
layerId = "F2B10EEF-9DDC-48CA-970D-6B8C79870881";
shapes = (
{
closed = 1;
nodes = (
(950,-22,o),
(983,80,o),
(1153,80,c),
(1153,621,l),
(1227,641,l),
(1227,694,l),
(714,694,l),
(714,641,l),
(846,621,l),
(846,184,l),
(819,88,o),
(777,36,o),
(675,36,cs),
(457,36,o),
(411,405,o),
(413,758,cs),
(416,1225,o),
(523,1452,o),
(683,1452,cs),
(782,1452,o),
(814,1392,o),
(829,1321,c),
(891,1006,l),
(1103,1006,l),
(1154,1442,l),
(976,1442,o),
(904,1512,o),
(696,1512,cs),
(293,1512,o),
(34,1213,o),
(34,734,cs),
(34,289,o),
(218,-22,o),
(659,-22,cs)
);
}
);
width = 1232;
},
{
anchors = (
{
name = bottom;
pos = (605,0);
},
{
name = hook;
pos = (996,1110);
},
{
name = rstem;
pos = (926,380);
},
{
name = top;
pos = (625,1486);
}
);
layerId = "E96AC896-F5DF-475B-BBD9-C7FEC6A86D0E";
shapes = (
{
closed = 1;
nodes = (
(823,-20,o),
(919,76,o),
(1017,80,c),
(1017,634,l),
(1109,655,l),
(1109,718,l),
(663,718,l),
(663,655,l),
(865,631,l),
(865,118,l),
(808,71,o),
(721,31,o),
(607,31,cs),
(299,31,o),
(208,399,o),
(208,751,cs),
(208,1178,o),
(350,1452,o),
(646,1452,cs),
(748,1452,o),
(843,1409,o),
(868,1384,c),
(909,1108,l),
(999,1108,l),
(1014,1446,l),
(946,1446,o),
(807,1502,o),
(639,1502,cs),
(280,1502,o),
(40,1181,o),
(40,724,cs),
(40,323,o),
(217,-20,o),
(563,-20,cs)
);
}
);
width = 1129;
},
{
anchors = (
{
name = bottom;
pos = (688,0);
},
{
name = hook;
pos = (1149,1108);
},
{
name = rstem;
pos = (1148,380);
},
{
name = top;
pos = (718,1486);
}
);
layerId = "C9B9556E-C2FD-4F62-BB40-44923C452C22";
shapes = (
{
closed = 1;
nodes = (
(971,-20,o),
(1081,76,o),
(1179,80,c),
(1179,629,l),
(1301,650,l),
(1301,718,l),
(784,718,l),
(784,650,l),
(1028,629,l),
(1028,121,l),
(958,74,o),
(844,31,o),
(722,31,cs),
(333,31,o),
(210,399,o),
(210,751,cs),
(210,1178,o),
(406,1452,o),
(773,1452,cs),
(891,1452,o),
(977,1416,o),
(1014,1384,c),
(1058,1108,l),
(1149,1108,l),
(1164,1438,l),
(1094,1438,o),
(999,1502,o),
(747,1502,cs),
(336,1502,o),
(40,1181,o),
(40,724,cs),
(40,323,o),
(262,-20,o),
(678,-20,cs)
);
}
);
width = 1316;
},
{
anchors = (
{
name = bottom;
pos = (758,0);
},
{
name = hook;
pos = (1309,1006);
},
{
name = rstem;
pos = (1318,380);
},
{
name = top;
pos = (768,1486);
}
);
layerId = "AFA1064D-EFC9-4C9F-B9B0-9118E41D87C4";
shapes = (
{
closed = 1;
nodes = (
(1130,-22,o),
(1169,80,o),
(1361,80,c),
(1361,621,l),
(1445,641,l),
(1445,694,l),
(843,694,l),
(843,641,l),
(1001,621,l),
(1001,184,l),
(971,88,o),
(884,36,o),
(797,36,cs),
(551,36,o),
(451,385,o),
(453,758,cs),
(455,1245,o),
(571,1452,o),
(794,1452,cs),
(968,1452,o),
(1003,1386,o),
(1013,1321,c),
(1065,1006,l),
(1309,1006,l),
(1363,1442,l),
(1135,1442,o),
(1116,1512,o),
(798,1512,cs),
(320,1512,o),
(20,1213,o),
(20,734,cs),
(20,289,o),
(270,-22,o),
(768,-22,cs)
);
}
);
width = 1455;
},
{
anchors = (
{
name = bottom;
pos = (731,0);
},
{
name = hook;
pos = (1250,1108);
},
{
name = rstem;
pos = (1248,380);
},
{
name = top;
pos = (751,1486);
}
);
layerId = "2103F1D3-C390-4F79-A87D-298F85EA6916";
shapes = (
{
closed = 1;
nodes = (
(996,-20,o),
(1181,76,o),
(1279,80,c),
(1279,664,l),
(1373,685,l),
(1373,748,l),
(829,748,l),
(829,685,l),
(1119,664,l),
(1119,121,l),
(1071,74,o),
(869,31,o),
(747,31,cs),
(371,31,o),
(213,399,o),
(213,751,cs),
(213,1178,o),
(444,1452,o),
(779,1452,cs),
(908,1452,o),
(1097,1409,o),
(1111,1384,c),
(1160,1108,l),
(1249,1108,l),
(1264,1440,l),
(1196,1440,o),
(1041,1502,o),
(772,1502,cs),
(361,1502,o),
(35,1181,o),
(35,724,cs),
(35,323,o),
(287,-20,o),
(703,-20,cs)
);
}
);
width = 1421;
},
{
anchors = (
{
name = bottom;
pos = (785,0);
},
{
name = hook;
pos = (1342,1109);
},
{
name = rstem;
pos = (1338,380);
},
{
name = top;
pos = (825,1486);
}
);
layerId = "779F1615-9D1A-4778-9767-9A030AA58B6C";
shapes = (
{
closed = 1;
nodes = (
(1092,-22,o),
(1268,76,o),
(1374,80,c),
(1374,622,l),
(1496,642,l),
(1496,748,l),
(908,748,l),
(908,642,l),
(1206,622,l),
(1206,166,l),
(1134,110,o),
(978,71,o),
(816,71,cs),
(448,71,o),
(269,418,o),
(269,770,cs),
(269,1192,o),
(518,1406,o),
(840,1406,cs),
(1056,1406,o),
(1164,1362,o),
(1194,1338,c),
(1238,1108,l),
(1342,1108,l),
(1358,1440,l),
(1290,1456,o),
(1112,1502,o),
(858,1502,cs),
(428,1502,o),
(96,1220,o),
(96,718,cs),
(96,306,o),
(370,-22,o),
(804,-22,cs)
);
}
);
userData = {
com.schriftgestaltung.Glyphs.lastChange = "2019-04-25 21:50:43 +0000";
};
width = 1529;
},
{
anchors = (
{
name = bottom;
pos = (801,0);
},
{
name = hook;
pos = (1356,1056);
},
{
name = rstem;
pos = (1348,380);
},
{
name = top;
pos = (811,1486);
}
);
layerId = "97BB7961-D669-43AB-8BBF-11FFD0C46A4B";
shapes = (
{
closed = 1;
nodes = (
(1060,-22,o),
(1283,76,o),
(1395,80,c),
(1395,606,l),
(1491,623,l),
(1491,767,l),
(841,767,l),
(841,623,l),
(1049,601,l),
(1049,184,l),
(1006,145,o),
(907,117,o),
(795,117,cs),
(534,117,o),
(452,385,o),
(452,758,cs),
(452,1159,o),
(597,1371,o),
(847,1371,cs),
(983,1371,o),
(1023,1340,o),
(1042,1320,c),
(1101,1056,l),
(1357,1056,l),
(1382,1443,l),
(1284,1443,o),
(1065,1505,o),
(856,1505,cs),
(346,1505,o),
(30,1232,o),
(30,730,cs),
(30,305,o),
(295,-22,o),
(762,-22,cs)
);
}
);
width = 1501;
}
);
unicode = 71;
}
{
color = 4;
glyphname = O;
kernLeft = O;
kernRight = O;
layers = (
{
anchors = (
{
name = bottom;
pos = (699,0);
},
{
name = center;
pos = (699,743);
},
{
name = ogonek;
pos = (958,10);
},
{
name = qq;
pos = (808,0);
},
{
name = top;
pos = (699,1486);
},
{
name = topleft;
pos = (20,1486);
},
{
name = topright;
pos = (1378,1486);
}
);
layerId = UUID0;
shapes = (
{
closed = 1;
nodes = (
(1056,-15,o),
(1345,288,o),
(1345,756,cs),
(1345,1206,o),
(1123,1502,o),
(719,1502,cs),
(347,1502,o),
(53,1204,o),
(53,732,cs),
(53,289,o),
(272,-29,o),
(685,-22,cs)
);
},
{
closed = 1;
nodes = (
(401,72,o),
(235,350,o),
(235,732,cs),
(235,1186,o),
(425,1408,o),
(701,1408,cs),
(995,1408,o),
(1159,1140,o),
(1159,756,cs),
(1159,302,o),
(971,72,o),
(695,72,cs)
);
}
);
width = 1398;
},
{
anchors = (
{
name = bottom;
pos = (731,0);
},
{
name = center;
pos = (731,743);
},
{
name = ogonek;
pos = (964,10);
},
{
name = qq;
pos = (808,0);
},
{
name = top;
pos = (731,1486);
},
{
name = topleft;
pos = (20,1486);
},
{
name = topright;
pos = (1442,1486);
}
);
layerId = "DEBB1CE4-A72D-4960-969E-E04A036D2FA1";
shapes = (
{
closed = 1;
nodes = (
(1138,-19,o),
(1409,301,o),
(1409,768,cs),
(1409,1218,o),
(1213,1503,o),
(743,1505,cs),
(325,1506,o),
(53,1207,o),
(53,741,cs),
(53,285,o),
(251,-26,o),
(722,-22,cs)
);
},
{
closed = 1;
nodes = (
(542,110,o),
(430,304,o),
(430,742,cs),
(430,1170,o),
(544,1373,o),
(732,1373,cs),
(920,1373,o),
(1031,1205,o),
(1031,766,cs),
(1031,337,o),
(917,110,o),
(729,110,cs)
);
}
);
width = 1462;
},
{
anchors = (
{
name = bottom;
pos = (705,0);
},
{
name = center;
pos = (705,743);
},
{
name = ogonek;
pos = (921,10);
},
{
name = qq;
pos = (808,0);
},
{
name = top;
pos = (705,1486);
},
{
name = topleft;
pos = (20,1486);
},
{
name = topright;
pos = (1390,1486);
}
);
layerId = "184155C8-9F61-4F1C-9784-DDA8EA717636";
shapes = (
{
closed = 1;
nodes = (
(1177,-26,o),
(1384,325,o),
(1384,770,cs),
(1384,1203,o),
(1196,1509,o),
(722,1509,cs),
(235,1509,o),
(26,1161,o),
(26,719,cs),
(26,282,o),
(215,-26,o),
(694,-26,cs)
);
},
{
closed = 1;
nodes = (
(520,30,o),
(442,310,o),
(442,719,cs),
(442,1206,o),
(534,1453,o),
(708,1453,cs),
(889,1453,o),
(968,1183,o),
(968,770,cs),
(968,285,o),
(874,30,o),
(706,30,cs)
);
}
);
width = 1410;
},
{
anchors = (
{
name = bottom;
pos = (631,0);
},
{
name = center;
pos = (631,743);
},
{
name = ogonek;
pos = (826,10);
},
{
name = qq;
pos = (788,0);
},
{
name = top;
pos = (631,1486);
},
{
name = topleft;
pos = (20,1486);
},
{
name = topright;
pos = (1242,1486);
}
);
layerId = "EA2265BD-E890-48C4-9E90-A53076E780C5";
shapes = (
{
closed = 1;
nodes = (
(994,-19,o),
(1222,301,o),
(1222,768,cs),
(1222,1210,o),
(1065,1503,o),
(639,1505,cs),
(269,1506,o),
(40,1207,o),
(40,741,cs),
(40,280,o),
(207,-26,o),
(624,-22,cs)
);
},
{
closed = 1;
nodes = (
(504,111,o),
(412,305,o),
(412,742,cs),
(412,1169,o),
(491,1374,o),
(631,1374,cs),
(767,1374,o),
(850,1204,o),
(850,766,cs),
(850,337,o),
(779,111,o),
(639,111,cs)
);
}
);
width = 1262;
},
{
anchors = (
{
name = bottom;
pos = (605,0);
},
{
name = center;
pos = (605,743);
},
{
name = ogonek;
pos = (809,10);
},
{
name = qq;
pos = (778,0);
},
{
name = top;
pos = (605,1486);
},
{
name = topleft;
pos = (20,1486);
},
{
name = topright;
pos = (1190,1486);
}
);
layerId = "0E4B6E2E-ECAB-4D06-9686-B0B40AA31834";
shapes = (
{
closed = 1;
nodes = (
(917,-15,o),
(1164,287,o),
(1164,756,cs),
(1164,1206,o),
(975,1502,o),
(621,1502,cs),
(297,1502,o),
(46,1204,o),
(46,732,cs),
(46,284,o),
(235,-29,o),
(593,-22,cs)
);
},
{
closed = 1;
nodes = (
(360,71,o),
(227,351,o),
(227,732,cs),
(227,1186,o),
(378,1409,o),
(606,1409,cs),
(848,1409,o),
(983,1138,o),
(983,756,cs),
(983,302,o),
(830,71,o),
(602,71,cs)
);
}
);
width = 1210;
},
{
anchors = (
{
name = bottom;
pos = (622,0);
},
{
name = center;
pos = (622,743);
},
{
name = ogonek;
pos = (792,10);
},
{
name = qq;
pos = (768,0);
},
{
name = top;
pos = (622,1486);
},
{
name = topleft;
pos = (20,1486);
},
{
name = topright;
pos = (1224,1486);
}
);
layerId = "F2B10EEF-9DDC-48CA-970D-6B8C79870881";
shapes = (
{
closed = 1;
nodes = (
(1013,-21,o),
(1204,290,o),
(1204,780,cs),
(1204,1243,o),
(1024,1503,o),
(635,1502,cs),
(232,1501,o),
(40,1192,o),
(40,707,cs),
(40,236,o),
(217,-23,o),
(613,-22,cs)
);
},
{
closed = 1;
nodes = (
(474,32,o),
(412,240,o),
(412,715,cs),
(412,1270,o),
(481,1448,o),
(618,1448,cs),
(769,1448,o),
(833,1240,o),
(833,774,cs),
(833,210,o),
(761,32,o),
(623,32,cs)
);
}
);
width = 1244;
},
{
anchors = (
{
name = bottom;
pos = (595,0);
},
{
name = center;
pos = (595,743);
},
{
name = ogonek;
pos = (781,10);
},
{
name = qq;
pos = (788,0);
},
{
name = top;
pos = (595,1486);
},
{
name = topleft;
pos = (20,1486);
},
{
name = topright;
pos = (1170,1486);
}
);
layerId = "E96AC896-F5DF-475B-BBD9-C7FEC6A86D0E";
shapes = (
{
closed = 1;
nodes = (
(909,-22,o),
(1150,296,o),
(1150,768,cs),
(1150,1211,o),
(971,1502,o),
(612,1502,cs),
(282,1502,o),
(40,1209,o),
(40,727,cs),
(40,293,o),
(222,-22,o),
(584,-22,cs)
);
},
{
closed = 1;
nodes = (
(366,28,o),
(206,294,o),
(206,727,cs),
(206,1248,o),
(386,1450,o),
(597,1450,cs),
(822,1450,o),
(984,1212,o),
(984,768,cs),
(984,256,o),
(802,28,o),
(592,28,cs)
);
}
);
width = 1190;
},
{
anchors = (
{
name = bottom;
pos = (686,0);
},
{
name = center;
pos = (686,743);
},
{
name = ogonek;
pos = (905,10);
},
{
name = qq;
pos = (808,0);
},
{
name = top;
pos = (686,1486);
},
{
name = topleft;
pos = (20,1486);
},
{
name = topright;
pos = (1352,1486);
}
);
layerId = "C9B9556E-C2FD-4F62-BB40-44923C452C22";
shapes = (
{
closed = 1;
nodes = (
(1040,-22,o),
(1327,259,o),
(1327,765,cs),
(1327,1214,o),
(1110,1502,o),
(706,1502,cs),
(334,1502,o),
(45,1232,o),
(45,724,cs),
(45,285,o),
(266,-22,o),
(672,-22,cs)
);
},
{
closed = 1;
nodes = (
(372,28,o),
(215,287,o),
(215,724,cs),
(215,1215,o),
(401,1452,o),
(688,1452,cs),
(998,1452,o),
(1157,1159,o),
(1157,765,cs),
(1157,273,o),
(969,28,o),
(682,28,cs)
);
}
);
width = 1372;
},
{
anchors = (
{
name = bottom;
pos = (767,0);
},
{
name = center;
pos = (767,743);
},
{
name = ogonek;
pos = (1031,10);
},
{
name = qq;
pos = (1018,0);
},
{
name = top;
pos = (767,1486);
},
{
name = topleft;
pos = (20,1486);
},
{
name = topright;
pos = (1514,1486);
}
);
layerId = "AFA1064D-EFC9-4C9F-B9B0-9118E41D87C4";
shapes = (
{
closed = 1;
nodes = (
(1249,-24,o),
(1510,305,o),
(1510,765,cs),
(1510,1210,o),
(1281,1504,o),
(788,1504,cs),
(286,1504,o),
(24,1178,o),
(24,724,cs),
(24,272,o),
(254,-24,o),
(751,-24,cs)
);
},
{
closed = 1;
nodes = (
(560,30,o),
(459,281,o),
(459,724,cs),
(459,1225,o),
(578,1449,o),
(767,1449,cs),
(972,1449,o),
(1074,1209,o),
(1074,765,cs),
(1074,263,o),
(952,30,o),
(763,30,cs)
);
}
);
width = 1534;
},
{
anchors = (
{
name = bottom;
pos = (737,0);
},
{
name = center;
pos = (737,743);
},
{
name = ogonek;
pos = (1002,10);
},
{
name = qq;
pos = (908,0);
},
{
name = top;
pos = (737,1486);
},
{
name = topleft;
pos = (20,1486);
},
{
name = topright;
pos = (1453,1486);
}
);
layerId = "2103F1D3-C390-4F79-A87D-298F85EA6916";
shapes = (
{
closed = 1;
nodes = (
(1140,-22,o),
(1436,282,o),
(1436,765,cs),
(1436,1218,o),
(1174,1502,o),
(758,1502,cs),
(335,1502,o),
(37,1202,o),
(37,724,cs),
(37,266,o),
(301,-22,o),
(721,-22,cs)
);
},
{
closed = 1;
nodes = (
(407,28,o),
(215,257,o),
(215,724,cs),
(215,1215,o),
(437,1450,o),
(738,1450,cs),
(1075,1450,o),
(1258,1179,o),
(1258,765,cs),
(1258,273,o),
(1033,28,o),
(732,28,cs)
);
}
);
width = 1473;
},
{
anchors = (
{
name = bottom;
pos = (740,0);
},
{
name = center;
pos = (740,743);
},
{
name = ogonek;
pos = (1012,10);
},
{
name = qq;
pos = (868,0);
},
{
name = top;
pos = (740,1486);
},
{
name = topleft;
pos = (20,1486);
},
{
name = topright;
pos = (1460,1486);
}
);
layerId = "779F1615-9D1A-4778-9767-9A030AA58B6C";
shapes = (
{
closed = 1;
nodes = (
(1128,-15,o),
(1438,288,o),
(1438,756,cs),
(1438,1206,o),
(1200,1502,o),
(764,1502,cs),
(359,1502,o),
(42,1204,o),
(42,732,cs),
(42,289,o),
(275,-29,o),
(723,-22,cs)
);
},
{
closed = 1;
nodes = (
(393,72,o),
(224,350,o),
(224,732,cs),
(224,1186,o),
(423,1408,o),
(742,1408,cs),
(1085,1408,o),
(1256,1141,o),
(1256,757,cs),
(1256,303,o),
(1055,72,o),
(736,72,cs)
);
}
);
userData = {
com.schriftgestaltung.Glyphs.lastChange = "2019-04-25 21:50:43 +0000";
};
width = 1480;
},
{
anchors = (
{
name = bottom;
pos = (778,0);
},
{
name = center;
pos = (778,743);
},
{
name = ogonek;
pos = (1008,10);
},
{
name = qq;
pos = (968,0);
},
{
name = top;
pos = (781,1486);
},
{
name = topleft;
pos = (20,1486);
},
{
name = topright;
pos = (1535,1486);
}
);
layerId = "97BB7961-D669-43AB-8BBF-11FFD0C46A4B";
shapes = (
{
closed = 1;
nodes = (
(1218,-19,o),
(1515,301,o),
(1515,768,cs),
(1515,1218,o),
(1299,1503,o),
(790,1505,cs),
(338,1506,o),
(40,1207,o),
(40,741,cs),
(40,285,o),
(258,-26,o),
(767,-22,cs)
);
},
{
closed = 1;
nodes = (
(581,112,o),
(461,326,o),
(461,742,cs),
(461,1155,o),
(583,1373,o),
(778,1373,cs),
(974,1373,o),
(1093,1190,o),
(1093,766,cs),
(1093,359,o),
(971,112,o),
(775,112,cs)
);
}
);
width = 1555;
}
);
metricRight = "=|";
unicode = 79;
}
{
category = Letter;
color = 4;
glyphname = a;
kernLeft = a;
kernRight = a;
layers = (
{
anchors = (
{
name = bottom;
pos = (518,0);
},
{
name = ogonek;
pos = (932,10);
},
{
name = top;
pos = (518,1110);
}
);
layerId = UUID0;
shapes = (
{
closed = 1;
nodes = (
(39,74,o),
(195,-22,o),
(373,-22,cs),
(541,-22,o),
(673,96,o),
(723,140,c),
(723,66,ls),
(723,-12,o),
(749,-18,o),
(807,-18,cs),
(867,-18,o),
(949,0,o),
(993,12,c),
(993,86,l),
(869,86,l),
(869,746,ls),
(869,1026,o),
(775,1132,o),
(509,1132,cs),
(317,1132,o),
(119,1020,o),
(83,986,c),
(127,898,l),
(191,934,o),
(313,1004,o),
(469,1004,cs),
(657,1004,o),
(709,928,o),
(709,730,cs),
(709,666,l),
(379,660,o),
(39,572,o),
(39,292,cs)
);
},
{
closed = 1;
nodes = (
(311,96,o),
(217,152,o),
(217,312,cs),
(217,464,o),
(377,570,o),
(709,572,c),
(709,218,l),
(629,156,o),
(513,96,o),
(433,96,cs)
);
}
);
width = 1036;
},
{
anchors = (
{
name = bottom;
pos = (571,0);
},
{
name = ogonek;
pos = (1027,10);
},
{
name = top;
pos = (571,1112);
}
);
layerId = "DEBB1CE4-A72D-4960-969E-E04A036D2FA1";
shapes = (
{
closed = 1;
nodes = (
(39,102,o),
(194,-22,o),
(377,-22,cs),
(541,-22,o),
(654,68,o),
(705,133,c),
(705,87,ls),
(705,0,o),
(728,-24,o),
(831,-24,cs),
(917,-24,o),
(1051,-4,o),
(1098,6,c),
(1098,132,l),
(995,132,l),
(995,727,ls),
(995,1020,o),
(895,1138,o),
(576,1138,cs),
(333,1138,o),
(138,1026,o),
(87,985,c),
(157,840,l),
(221,869,o),
(338,924,o),
(491,924,cs),
(657,924,o),
(688,863,o),
(688,726,cs),
(688,687,l),
(314,684,o),
(39,563,o),
(39,320,cs)
);
},
{
closed = 1;
nodes = (
(441,161,o),
(383,232,o),
(383,352,cs),
(383,458,o),
(467,552,o),
(688,553,c),
(688,234,l),
(647,194,o),
(581,161,o),
(532,161,cs)
);
}
);
width = 1141;
},
{
anchors = (
{
name = bottom;
pos = (495,0);
},
{
name = ogonek;
pos = (890,10);
},
{
name = top;
pos = (495,1005);
}
);
layerId = "184155C8-9F61-4F1C-9784-DDA8EA717636";
shapes = (
{
closed = 1;
nodes = (
(13,92,o),
(117,-23,o),
(291,-23,c),
(438,-23,o),
(542,67,o),
(574,152,c),
(574,69,ls),
(574,-11,o),
(633,-19,o),
(726,-19,cs),
(830,-19,o),
(936,3,o),
(979,12,c),
(979,48,l),
(906,68,l),
(906,678,ls),
(906,936,o),
(753,1035,o),
(530,1035,cs),
(296,1035,o),
(144,945,o),
(76,876,c),
(101,823,l),
(154,842,o),
(258,877,o),
(386,877,cs),
(501,877,o),
(570,807,o),
(570,721,cs),
(570,600,l),
(325,600,o),
(13,518,o),
(13,261,cs)
);
},
{
closed = 1;
nodes = (
(398,135,o),
(350,208,o),
(350,310,cs),
(350,444,o),
(401,542,o),
(570,543,c),
(570,184,l),
(551,148,o),
(501,135,o),
(469,135,cs)
);
}
);
width = 989;
},
{
anchors = (
{
name = bottom;
pos = (487,0);
},
{
name = ogonek;
pos = (877,10);
},
{
name = top;
pos = (487,1112);
}
);
layerId = "EA2265BD-E890-48C4-9E90-A53076E780C5";
shapes = (
{
closed = 1;
nodes = (
(26,116,o),
(165,-22,o),
(354,-22,cs),
(474,-22,o),
(545,52,o),
(587,129,c),
(587,95,ls),
(587,22,o),
(624,-24,o),
(706,-24,cs),
(785,-24,o),
(914,-4,o),
(955,6,c),
(955,131,l),
(874,131,l),
(874,728,ls),
(874,991,o),
(808,1138,o),
(519,1138,cs),
(315,1138,o),
(135,1055,o),
(73,1001,c),
(128,867,l),
(169,898,o),
(298,935,o),
(415,935,cs),
(554,935,o),
(574,875,o),
(574,751,cs),
(574,700,l),
(246,697,o),
(26,568,o),
(26,311,cs)
);
},
{
closed = 1;
nodes = (
(394,163,o),
(343,212,o),
(343,344,cs),
(343,470,o),
(418,563,o),
(574,566,c),
(574,239,l),
(551,197,o),
(508,163,o),
(455,163,cs)
);
}
);
width = 974;
},
{
anchors = (
{
name = bottom;
pos = (440,0);
},
{
name = ogonek;
pos = (792,10);
},
{
name = top;
pos = (446,1110);
}
);
layerId = "0E4B6E2E-ECAB-4D06-9686-B0B40AA31834";
shapes = (
{
closed = 1;
nodes = (
(39,74,o),
(173,-22,o),
(327,-22,cs),
(471,-22,o),
(582,97,o),
(625,140,c),
(625,68,ls),
(625,-2,o),
(665,-18,o),
(702,-18,cs),
(755,-18,o),
(832,0,o),
(870,12,c),
(870,85,l),
(766,85,l),
(766,757,ls),
(766,986,o),
(714,1132,o),
(450,1132,cs),
(300,1132,o),
(110,1020,o),
(77,986,c),
(118,900,l),
(173,936,o),
(288,1006,o),
(411,1006,cs),
(583,1006,o),
(613,910,o),
(613,740,cs),
(613,665,l),
(320,659,o),
(39,570,o),
(39,291,cs)
);
},
{
closed = 1;
nodes = (
(287,94,o),
(209,150,o),
(209,311,cs),
(209,462,o),
(335,570,o),
(613,573,c),
(613,218,l),
(548,155,o),
(454,94,o),
(388,94,cs)
);
}
);
width = 880;
},
{
anchors = (
{
name = bottom;
pos = (444,0);
},
{
name = ogonek;
pos = (799,10);
},
{
name = top;
pos = (444,1005);
}
);
layerId = "F2B10EEF-9DDC-48CA-970D-6B8C79870881";
shapes = (
{
closed = 1;
nodes = (
(16,64,o),
(140,-23,o),
(282,-23,c),
(391,-23,o),
(474,41,o),
(507,152,c),
(507,83,ls),
(507,11,o),
(551,-19,o),
(651,-19,cs),
(742,-19,o),
(832,3,o),
(868,12,c),
(868,62,l),
(816,62,l),
(816,689,ls),
(816,924,o),
(705,1035,o),
(497,1035,cs),
(268,1035,o),
(120,935,o),
(75,877,c),
(99,819,l),
(141,841,o),
(240,880,o),
(351,880,cs),
(481,880,o),
(505,810,o),
(505,694,cs),
(505,601,l),
(314,600,o),
(16,538,o),
(16,272,c)
);
},
{
closed = 1;
nodes = (
(371,131,o),
(331,200,o),
(331,308,cs),
(331,450,o),
(398,542,o),
(505,543,c),
(505,184,l),
(496,162,o),
(461,131,o),
(426,131,cs)
);
}
);
width = 888;
},
{
anchors = (
{
name = bottom;
pos = (406,0);
},
{
name = ogonek;
pos = (730,10);
},
{
name = top;
pos = (385,1005);
}
);
layerId = "E96AC896-F5DF-475B-BBD9-C7FEC6A86D0E";
shapes = (
{
closed = 1;
nodes = (
(28,63,o),
(155,-14,o),
(283,-14,cs),
(428,-14,o),
(520,91,o),
(556,167,c),
(556,66,ls),
(556,18,o),
(571,-16,o),
(645,-16,cs),
(684,-16,o),
(745,-3,o),
(782,14,c),
(782,47,l),
(687,47,l),
(687,704,ls),
(687,887,o),
(642,1034,o),
(421,1034,cs),
(277,1034,o),
(136,968,o),
(72,904,c),
(100,868,l),
(167,915,o),
(268,952,o),
(390,952,cs),
(515,952,o),
(554,870,o),
(553,702,cs),
(552,584,l),
(342,584,o),
(28,488,o),
(28,245,cs)
);
},
{
closed = 1;
nodes = (
(223,70,o),
(172,150,o),
(172,264,cs),
(172,444,o),
(351,534,o),
(552,534,c),
(552,199,l),
(493,129,o),
(417,70,o),
(318,70,cs)
);
}
);
width = 811;
},
{
anchors = (
{
name = bottom;
pos = (444,0);
},
{
name = ogonek;
pos = (799,10);
},
{
name = top;
pos = (440,1005);
}
);
layerId = "C9B9556E-C2FD-4F62-BB40-44923C452C22";
shapes = (
{
closed = 1;
nodes = (
(32,64,o),
(180,-14,o),
(306,-14,cs),
(471,-14,o),
(579,106,o),
(614,171,c),
(614,66,ls),
(614,8,o),
(648,-16,o),
(708,-16,cs),
(770,-16,o),
(818,0,o),
(860,14,c),
(860,47,l),
(754,47,l),
(754,687,ls),
(754,909,o),
(684,1034,o),
(468,1034,cs),
(300,1034,o),
(164,961,o),
(88,903,c),
(115,862,l),
(202,914,o),
(309,952,o),
(439,952,cs),
(588,952,o),
(611,823,o),
(611,687,cs),
(611,584,l),
(373,584,o),
(32,487,o),
(32,244,cs)
);
},
{
closed = 1;
nodes = (
(260,70,o),
(182,148,o),
(182,262,cs),
(182,442,o),
(391,534,o),
(611,534,c),
(611,203,l),
(536,121,o),
(461,70,o),
(345,70,cs)
);
}
);
width = 888;
},
{
anchors = (
{
name = bottom;
pos = (548,0);
},
{
name = ogonek;
pos = (986,10);
},
{
name = top;
pos = (548,1005);
}
);
layerId = "AFA1064D-EFC9-4C9F-B9B0-9118E41D87C4";
shapes = (
{
closed = 1;
nodes = (
(15,92,o),
(138,-23,o),
(355,-23,c),
(511,-23,o),
(594,65,o),
(638,154,c),
(638,69,ls),
(638,5,o),
(681,-19,o),
(809,-19,cs),
(928,-19,o),
(999,3,o),
(1046,12,c),
(1046,72,l),
(983,72,l),
(983,674,ls),
(983,886,o),
(877,1035,o),
(565,1035,cs),
(354,1035,o),
(156,942,o),
(94,876,c),
(120,823,l),
(220,860,o),
(352,879,o),
(425,878,cs),
(587,876,o),
(631,809,o),
(631,682,cs),
(631,600,l),
(238,600,o),
(15,519,o),
(15,263,c)
);
},
{
closed = 1;
nodes = (
(429,131,o),
(384,202,o),
(384,310,cs),
(384,432,o),
(451,543,o),
(631,543,c),
(631,184,l),
(597,152,o),
(570,131,o),
(506,131,cs)
);
}
);
width = 1096;
},
{
anchors = (
{
name = bottom;
pos = (460,0);
},
{
name = ogonek;
pos = (828,10);
},
{
name = top;
pos = (460,1005);
}
);
layerId = "2103F1D3-C390-4F79-A87D-298F85EA6916";
shapes = (
{
closed = 1;
nodes = (
(32,57,o),
(168,-14,o),
(300,-14,cs),
(500,-14,o),
(627,118,o),
(662,173,c),
(662,66,ls),
(662,8,o),
(696,-16,o),
(754,-16,cs),
(816,-16,o),
(864,0,o),
(898,14,c),
(898,47,l),
(800,47,l),
(800,687,ls),
(800,919,o),
(700,1034,o),
(494,1034,cs),
(312,1034,o),
(166,969,o),
(75,903,c),
(102,862,l),
(192,913,o),
(331,952,o),
(461,952,cs),
(604,952,o),
(659,850,o),
(659,687,cs),
(659,584,l),
(411,584,o),
(32,499,o),
(32,243,cs)
);
},
{
closed = 1;
nodes = (
(255,70,o),
(189,142,o),
(189,256,cs),
(189,440,o),
(429,534,o),
(659,534,c),
(659,203,l),
(584,131,o),
(494,70,o),
(346,70,cs)
);
}
);
width = 920;
},
{
anchors = (
{
name = bottom;
pos = (571,0);
},
{
name = ogonek;
pos = (1028,10);
},
{
name = top;
pos = (571,1110);
}
);
layerId = "779F1615-9D1A-4778-9767-9A030AA58B6C";
shapes = (
{
closed = 1;
nodes = (
(59,74,o),
(261,-22,o),
(422,-22,cs),
(631,-22,o),
(790,96,o),
(819,140,c),
(819,66,ls),
(819,-4,o),
(841,-18,o),
(911,-18,cs),
(977,-18,o),
(1046,0,o),
(1097,12,c),
(1097,86,l),
(967,86,l),
(967,746,ls),
(967,998,o),
(885,1132,o),
(582,1132,cs),
(375,1132,o),
(160,1037,o),
(110,983,c),
(158,895,l),
(243,951,o),
(359,1004,o),
(557,1004,cs),
(757,1004,o),
(803,924,o),
(803,746,cs),
(803,666,l),
(351,660,o),
(59,561,o),
(59,292,cs)
);
},
{
closed = 1;
nodes = (
(352,96,o),
(243,162,o),
(243,312,cs),
(243,464,o),
(353,570,o),
(803,572,c),
(803,218,l),
(732,156,o),
(588,96,o),
(454,96,cs)
);
}
);
userData = {
com.schriftgestaltung.Glyphs.lastChange = "2019-04-25 21:50:43 +0000";
};
width = 1142;
},
{
anchors = (
{
name = bottom;
pos = (592,0);
},
{
name = ogonek;
pos = (1066,10);
},
{
name = top;
pos = (592,1112);
}
);
layerId = "97BB7961-D669-43AB-8BBF-11FFD0C46A4B";
shapes = (
{
closed = 1;
nodes = (
(38,102,o),
(203,-22,o),
(396,-22,cs),
(560,-22,o),
(673,69,o),
(724,134,c),
(724,87,ls),
(724,0,o),
(766,-24,o),
(853,-24,cs),
(984,-24,o),
(1106,-4,o),
(1153,6,c),
(1153,132,l),
(1063,132,l),
(1063,727,ls),
(1063,1020,o),
(920,1138,o),
(649,1138,cs),
(370,1138,o),
(135,1029,o),
(84,985,c),
(154,837,l),
(225,871,o),
(348,924,o),
(540,924,cs),
(662,924,o),
(707,863,o),
(707,752,cs),
(707,687,l),
(295,684,o),
(38,563,o),
(38,320,cs)
);
},
{
closed = 1;
nodes = (
(450,161,o),
(397,232,o),
(397,352,cs),
(397,458,o),
(477,552,o),
(707,553,c),
(707,236,l),
(667,194,o),
(609,161,o),
(552,161,cs)
);
}
);
width = 1184;
}
);
subCategory = Lowercase;
unicode = 97;
}
{
category = Letter;
color = 4;
glyphname = c;
kernLeft = o;
kernRight = c;
layers = (
{
anchors = (
{
name = bottom;
pos = (494,0);
},
{
name = hook;
pos = (882,794);
},
{
name = lstem;
pos = (157,592);
},
{
name = strokebar;
pos = (193,512);
},
{
name = top;
pos = (584,1110);
}
);
layerId = UUID0;
shapes = (
{
closed = 1;
nodes = (
(56,226,o),
(226,-22,o),
(550,-22,cs),
(688,-22,o),
(838,46,o),
(912,120,c),
(880,186,l),
(820,144,o),
(708,94,o),
(586,94,cs),
(382,94,o),
(224,256,o),
(226,604,cs),
(228,878,o),
(362,1046,o),
(568,1046,cs),
(647,1046,o),
(733,1018,o),
(740,986,cs),
(782,794,l),
(882,794,l),
(890,1080,l),
(838,1102,o),
(726,1140,o),
(610,1140,cs),
(234,1140,o),
(52,858,o),
(54,542,cs)
);
}
);
width = 987;
},
{
anchors = (
{
name = bottom;
pos = (514,0);
},
{
name = hook;
pos = (954,717);
},
{
name = lstem;
pos = (157,592);
},
{
name = strokebar;
pos = (193,512);
},
{
name = top;
pos = (604,1112);
}
);
layerId = "DEBB1CE4-A72D-4960-969E-E04A036D2FA1";
shapes = (
{
closed = 1;
nodes = (
(52,220,o),
(208,-22,o),
(575,-22,cs),
(774,-22,o),
(926,79,o),
(975,133,c),
(923,251,l),
(860,213,o),
(773,175,o),
(649,175,cs),
(499,175,o),
(401,321,o),
(402,607,cs),
(404,902,o),
(486,996,o),
(602,996,cs),
(636,996,o),
(692,984,o),
(700,948,cs),
(752,717,l),
(954,717,l),
(968,1080,l),
(903,1089,o),
(812,1140,o),
(626,1140,cs),
(283,1140,o),
(52,907,o),
(52,548,cs)
);
}
);
width = 1027;
},
{
anchors = (
{
name = bottom;
pos = (455,0);
},
{
name = hook;
pos = (864,673);
},
{
name = lstem;
pos = (117,531);
},
{
name = strokebar;
pos = (153,512);
},
{
name = top;
pos = (525,1005);
}
);
layerId = "184155C8-9F61-4F1C-9784-DDA8EA717636";
shapes = (
{
closed = 1;
nodes = (
(31,187,o),
(186,-22,o),
(498,-22,cs),
(661,-22,o),
(828,67,o),
(880,128,c),
(855,184,l),
(802,141,o),
(708,118,o),
(656,118,cs),
(508,118,o),
(400,230,o),
(400,547,cs),
(400,870,o),
(455,987,o),
(555,987,cs),
(602,987,o),
(628,925,o),
(644,856,cs),
(686,673,l),
(864,673,l),
(876,971,l),
(809,979,o),
(734,1042,o),
(546,1042,cs),
(238,1042,o),
(31,830,o),
(31,488,cs)
);
}
);
width = 910;
},
{
anchors = (
{
name = bottom;
pos = (440,0);
},
{
name = hook;
pos = (823,719);
},
{
name = lstem;
pos = (157,592);
},
{
name = strokebar;
pos = (193,512);
},
{
name = top;
pos = (530,1112);
}
);
layerId = "EA2265BD-E890-48C4-9E90-A53076E780C5";
shapes = (
{
closed = 1;
nodes = (
(48,220,o),
(160,-22,o),
(485,-22,cs),
(673,-22,o),
(804,80,o),
(839,133,c),
(789,249,l),
(734,211,o),
(666,173,o),
(558,173,cs),
(444,173,o),
(372,319,o),
(373,607,cs),
(374,891,o),
(431,997,o),
(511,997,cs),
(536,997,o),
(569,987,o),
(577,949,cs),
(624,719,l),
(823,719,l),
(836,1080,l),
(777,1089,o),
(724,1140,o),
(547,1140,cs),
(250,1140,o),
(48,948,o),
(48,548,cs)
);
}
);
width = 879;
},
{
anchors = (
{
name = bottom;
pos = (425,0);
},
{
name = hook;
pos = (774,796);
},
{
name = lstem;
pos = (157,592);
},
{
name = strokebar;
pos = (193,512);
},
{
name = top;
pos = (525,1110);
}
);
layerId = "0E4B6E2E-ECAB-4D06-9686-B0B40AA31834";
shapes = (
{
closed = 1;
nodes = (
(56,226,o),
(200,-22,o),
(483,-22,cs),
(604,-22,o),
(735,42,o),
(799,120,c),
(769,184,l),
(717,142,o),
(624,92,o),
(518,92,cs),
(330,92,o),
(218,287,o),
(220,604,cs),
(221,870,o),
(329,1047,o),
(500,1047,cs),
(563,1047,o),
(631,1035,o),
(640,987,cs),
(677,796,l),
(774,796,l),
(781,1080,l),
(735,1102,o),
(642,1140,o),
(534,1140,cs),
(212,1140,o),
(52,853,o),
(54,542,cs)
);
}
);
width = 849;
},
{
anchors = (
{
name = bottom;
pos = (398,0);
},
{
name = hook;
pos = (754,676);
},
{
name = lstem;
pos = (117,531);
},
{
name = strokebar;
pos = (153,512);
},
{
name = top;
pos = (478,1005);
}
);
layerId = "F2B10EEF-9DDC-48CA-970D-6B8C79870881";
shapes = (
{
closed = 1;
nodes = (
(33,194,o),
(172,-22,o),
(442,-22,cs),
(585,-22,o),
(736,64,o),
(778,127,c),
(748,184,l),
(704,143,o),
(648,110,o),
(583,110,cs),
(447,110,o),
(373,216,o),
(373,541,cs),
(373,869,o),
(410,983,o),
(485,983,cs),
(523,983,o),
(556,925,o),
(564,856,cs),
(586,676,l),
(754,676,l),
(765,972,l),
(715,982,o),
(656,1037,o),
(492,1037,cs),
(246,1037,o),
(33,852,o),
(33,497,cs)
);
}
);
width = 796;
},
{
anchors = (
{
name = bottom;
pos = (384,0);
},
{
name = hook;
pos = (709,717);
},
{
name = lstem;
pos = (97,531);
},
{
name = strokebar;
pos = (133,512);
},
{
name = top;
pos = (464,1005);
}
);
layerId = "E96AC896-F5DF-475B-BBD9-C7FEC6A86D0E";
shapes = (
{
closed = 1;
nodes = (
(43,182,o),
(169,-22,o),
(426,-22,cs),
(534,-22,o),
(645,30,o),
(701,97,c),
(679,133,l),
(631,92,o),
(543,45,o),
(454,45,cs),
(250,45,o),
(190,276,o),
(190,550,cs),
(190,838,o),
(321,979,o),
(452,979,cs),
(561,979,o),
(608,930,o),
(611,910,cs),
(636,717,l),
(709,717,l),
(716,976,l),
(682,985,o),
(584,1034,o),
(483,1034,cs),
(210,1034,o),
(43,776,o),
(43,510,cs)
);
}
);
width = 768;
},
{
anchors = (
{
name = bottom;
pos = (428,0);
},
{
name = hook;
pos = (804,722);
},
{
name = lstem;
pos = (97,531);
},
{
name = strokebar;
pos = (133,512);
},
{
name = top;
pos = (528,1005);
}
);
layerId = "C9B9556E-C2FD-4F62-BB40-44923C452C22";
shapes = (
{
closed = 1;
nodes = (
(50,183,o),
(214,-22,o),
(491,-22,cs),
(615,-22,o),
(743,31,o),
(810,98,c),
(789,134,l),
(735,93,o),
(626,47,o),
(516,47,cs),
(318,47,o),
(212,235,o),
(212,517,cs),
(212,815,o),
(368,989,o),
(517,989,cs),
(652,989,o),
(684,933,o),
(688,913,cs),
(728,722,l),
(804,722,l),
(811,979,l),
(775,988,o),
(660,1039,o),
(555,1039,cs),
(260,1039,o),
(50,793,o),
(50,493,cs)
);
}
);
width = 855;
},
{
anchors = (
{
name = bottom;
pos = (481,0);
},
{
name = hook;
pos = (938,670);
},
{
name = lstem;
pos = (117,531);
},
{
name = strokebar;
pos = (153,512);
},
{
name = top;
pos = (580,1005);
}
);
layerId = "AFA1064D-EFC9-4C9F-B9B0-9118E41D87C4";
shapes = (
{
closed = 1;
nodes = (
(24,183,o),
(187,-22,o),
(571,-22,cs),
(745,-22,o),
(872,60,o),
(938,135,c),
(906,192,l),
(845,151,o),
(774,118,o),
(696,118,cs),
(546,118,o),
(410,247,o),
(410,559,cs),
(410,846,o),
(466,988,o),
(592,988,cs),
(641,988,o),
(672,955,o),
(690,856,cs),
(723,670,l),
(938,670,l),
(950,972,l),
(889,982,o),
(753,1043,o),
(591,1043,cs),
(255,1043,o),
(24,836,o),
(24,498,cs)
);
}
);
width = 962;
},
{
anchors = (
{
name = bottom;
pos = (444,0);
},
{
name = hook;
pos = (835,722);
},
{
name = lstem;
pos = (97,531);
},
{
name = strokebar;
pos = (133,512);
},
{
name = top;
pos = (554,1005);
}
);
layerId = "2103F1D3-C390-4F79-A87D-298F85EA6916";
shapes = (
{
closed = 1;
nodes = (
(40,185,o),
(199,-22,o),
(507,-22,cs),
(641,-22,o),
(752,27,o),
(844,94,c),
(819,136,l),
(740,98,o),
(653,45,o),
(534,45,cs),
(266,45,o),
(200,292,o),
(200,535,cs),
(200,761,o),
(295,988,o),
(524,988,cs),
(656,988,o),
(717,935,o),
(722,915,cs),
(769,722,l),
(835,722,l),
(843,981,l),
(804,990,o),
(679,1039,o),
(565,1039,cs),
(226,1039,o),
(40,796,o),
(40,510,cs)
);
}
);
width = 888;
},
{
anchors = (
{
name = bottom;
pos = (521,0);
},
{
name = hook;
pos = (950,794);
},
{
name = lstem;
pos = (157,592);
},
{
name = strokebar;
pos = (193,512);
},
{
name = top;
pos = (637,1110);
}
);
layerId = "779F1615-9D1A-4778-9767-9A030AA58B6C";
shapes = (
{
closed = 1;
nodes = (
(58,226,o),
(223,-22,o),
(587,-22,cs),
(709,-22,o),
(888,46,o),
(972,120,c),
(936,186,l),
(868,144,o),
(729,94,o),
(619,94,cs),
(388,94,o),
(244,256,o),
(247,604,cs),
(249,875,o),
(378,1038,o),
(628,1038,cs),
(670,1038,o),
(768,1028,o),
(780,978,cs),
(825,794,l),
(950,794,l),
(959,1080,l),
(900,1102,o),
(784,1140,o),
(644,1140,cs),
(289,1140,o),
(58,876,o),
(58,542,cs)
);
}
);
userData = {
com.schriftgestaltung.Glyphs.lastChange = "2019-04-25 21:50:43 +0000";
};
width = 1042;
},
{
anchors = (
{
name = bottom;
pos = (530,0);
},
{
name = hook;
pos = (1015,717);
},
{
name = lstem;
pos = (157,592);
},
{
name = strokebar;
pos = (193,512);
},
{
name = top;
pos = (635,1112);
}
);
layerId = "97BB7961-D669-43AB-8BBF-11FFD0C46A4B";
shapes = (
{
closed = 1;
nodes = (
(46,187,o),
(261,-22,o),
(613,-22,cs),
(810,-22,o),
(978,68,o),
(1028,122,c),
(975,240,l),
(911,204,o),
(831,175,o),
(737,175,cs),
(536,175,o),
(425,321,o),
(425,642,cs),
(425,889,o),
(522,998,o),
(628,998,cs),
(673,998,o),
(710,984,o),
(718,948,cs),
(771,717,l),
(1015,717,l),
(1029,1080,l),
(963,1089,o),
(844,1140,o),
(642,1140,cs),
(338,1140,o),
(50,947,o),
(48,548,cs)
);
}
);
width = 1059;
}
);
metricLeft = o;
subCategory = Lowercase;
unicode = 99;
}
{
category = Letter;
color = 4;
glyphname = u;
kernLeft = u;
kernRight = u;
layers = (
{
anchors = (
{
name = bottom;
pos = (622,0);
},
{
name = center;
pos = (604,557);
},
{
name = ogonek;
pos = (1119,10);
},
{
name = top;
pos = (622,1110);
},
{
name = topright;
pos = (1223,1110);
}
);
layerId = UUID0;
shapes = (
{
closed = 1;
nodes = (
(1053,-18,o),
(1105,0,o),
(1149,12,c),
(1151,88,l),
(1027,88,l),
(1027,1110,l),
(981,1134,l),
(979,1134,l),
(713,1108,l),
(713,1034,l),
(865,1000,l),
(865,228,l),
(803,174,o),
(692,100,o),
(567,100,cs),
(381,100,o),
(340,198,o),
(340,436,cs),
(340,1110,l),
(304,1134,l),
(302,1134,l),
(60,1108,l),
(60,1034,l),
(178,1000,l),
(178,412,ls),
(178,108,o),
(271,-22,o),
(517,-22,cs),
(660,-22,o),
(803,72,o),
(883,144,c),
(883,66,ls),
(883,-2,o),
(919,-18,o),
(983,-18,cs)
);
}
);
width = 1243;
},
{
anchors = (
{
name = bottom;
pos = (649,0);
},
{
name = center;
pos = (644,555);
},
{
name = ogonek;
pos = (1168,10);
},
{
name = top;
pos = (649,1112);
},
{
name = topright;
pos = (1278,1112);
}
);
layerId = "DEBB1CE4-A72D-4960-969E-E04A036D2FA1";
shapes = (
{
closed = 1;
nodes = (
(1094,-20,o),
(1188,0,o),
(1238,10,c),
(1238,138,l),
(1132,138,l),
(1132,1108,l),
(1084,1136,l),
(1078,1136,l),
(680,1110,l),
(680,986,l),
(806,956,l),
(806,236,l),
(776,206,o),
(714,160,o),
(618,160,cs),
(510,160,o),
(472,218,o),
(472,392,cs),
(472,1108,l),
(428,1136,l),
(426,1136,l),
(50,1110,l),
(50,982,l),
(144,956,l),
(144,400,ls),
(144,96,o),
(244,-22,o),
(506,-22,cs),
(644,-22,o),
(784,64,o),
(844,146,c),
(844,102,ls),
(844,24,o),
(882,-20,o),
(980,-20,cs)
);
}
);
width = 1298;
},
{
anchors = (
{
name = bottom;
pos = (566,0);
},
{
name = center;
pos = (559,506);
},
{
name = ogonek;
pos = (1019,10);
},
{
name = top;
pos = (566,1005);
},
{
name = topright;
pos = (1112,1005);
}
);
layerId = "184155C8-9F61-4F1C-9784-DDA8EA717636";
shapes = (
{
closed = 1;
nodes = (
(979,-19,o),
(1062,0,o),
(1112,10,c),
(1112,50,l),
(1038,68,l),
(1038,992,l),
(979,1035,l),
(941,1035,l),
(597,921,l),
(597,880,l),
(704,833,l),
(704,208,l),
(668,183,o),
(624,156,o),
(547,156,cs),
(471,156,o),
(440,202,o),
(440,336,cs),
(440,992,l),
(386,1035,l),
(351,1035,l),
(10,921,l),
(10,880,l),
(104,833,l),
(104,344,ls),
(104,87,o),
(196,-20,o),
(391,-20,cs),
(528,-20,o),
(647,56,o),
(717,177,c),
(717,71,ls),
(717,-12,o),
(776,-19,o),
(869,-19,cs)
);
}
);
width = 1132;
},
{
anchors = (
{
name = bottom;
pos = (568,0);
},
{
name = center;
pos = (499,506);
},
{
name = ogonek;
pos = (1022,10);
},
{
name = top;
pos = (568,1112);
},
{
name = topright;
pos = (1116,1112);
}
);
layerId = "EA2265BD-E890-48C4-9E90-A53076E780C5";
shapes = (
{
closed = 1;
nodes = (
(962,-20,o),
(1056,0,o),
(1106,10,c),
(1106,138,l),
(1000,138,l),
(1000,1108,l),
(952,1136,l),
(946,1136,l),
(607,1110,l),
(607,986,l),
(687,956,l),
(687,236,l),
(659,186,o),
(616,160,o),
(558,160,cs),
(470,160,o),
(420,218,o),
(420,372,cs),
(420,1108,l),
(376,1136,l),
(374,1136,l),
(14,1110,l),
(14,982,l),
(107,956,l),
(107,375,ls),
(107,96,o),
(224,-22,o),
(460,-22,cs),
(588,-22,o),
(677,54,o),
(725,146,c),
(725,102,ls),
(725,24,o),
(763,-20,o),
(861,-20,cs)
);
}
);
width = 1136;
},
{
anchors = (
{
name = bottom;
pos = (521,0);
},
{
name = center;
pos = (514,557);
},
{
name = ogonek;
pos = (938,10);
},
{
name = top;
pos = (521,1110);
},
{
name = topright;
pos = (1022,1110);
}
);
layerId = "0E4B6E2E-ECAB-4D06-9686-B0B40AA31834";
shapes = (
{
closed = 1;
nodes = (
(896,-18,o),
(952,0,o),
(990,12,c),
(992,88,l),
(884,88,l),
(884,1110,l),
(843,1134,l),
(841,1134,l),
(600,1108,l),
(600,1034,l),
(734,1000,l),
(734,237,l),
(690,183,o),
(613,96,o),
(472,96,cs),
(321,96,o),
(288,191,o),
(288,410,cs),
(288,1110,l),
(256,1134,l),
(255,1134,l),
(35,1108,l),
(35,1034,l),
(138,1000,l),
(138,386,ls),
(138,103,o),
(233,-22,o),
(433,-22,cs),
(579,-22,o),
(687,69,o),
(747,141,c),
(747,66,ls),
(747,-2,o),
(783,-18,o),
(845,-18,cs)
);
}
);
width = 1042;
},
{
anchors = (
{
name = bottom;
pos = (520,0);
},
{
name = center;
pos = (519,506);
},
{
name = ogonek;
pos = (936,10);
},
{
name = top;
pos = (520,1005);
},
{
name = topright;
pos = (1020,1005);
}
);
layerId = "F2B10EEF-9DDC-48CA-970D-6B8C79870881";
shapes = (
{
closed = 1;
nodes = (
(894,-19,o),
(954,0,o),
(990,10,c),
(990,50,l),
(936,68,l),
(936,992,l),
(885,1035,l),
(847,1035,l),
(530,921,l),
(530,880,l),
(620,833,l),
(620,208,l),
(594,183,o),
(553,156,o),
(490,156,cs),
(435,156,o),
(416,202,o),
(416,336,cs),
(416,992,l),
(365,1035,l),
(327,1035,l),
(2,921,l),
(2,880,l),
(100,833,l),
(100,333,ls),
(100,96,o),
(184,-20,o),
(375,-20,cs),
(496,-20,o),
(579,53,o),
(629,162,c),
(629,93,ls),
(629,10,o),
(672,-19,o),
(739,-19,cs)
);
}
);
width = 1040;
},
{
anchors = (
{
name = bottom;
pos = (487,0);
},
{
name = center;
pos = (473,500);
},
{
name = ogonek;
pos = (876,10);
},
{
name = top;
pos = (487,1005);
},
{
name = topright;
pos = (953,1005);
}
);
layerId = "E96AC896-F5DF-475B-BBD9-C7FEC6A86D0E";
shapes = (
{
closed = 1;
nodes = (
(853,-16,o),
(901,0,o),
(943,14,c),
(943,47,l),
(834,47,l),
(834,998,l),
(818,1010,l),
(782,1010,l),
(570,958,l),
(570,931,l),
(697,896,l),
(697,193,l),
(633,127,o),
(514,66,o),
(423,66,cs),
(301,66,o),
(273,153,o),
(273,292,cs),
(273,998,l),
(257,1010,l),
(218,1010,l),
(10,958,l),
(10,931,l),
(135,896,l),
(136,286,ls),
(136,91,o),
(186,-20,o),
(397,-20,cs),
(538,-20,o),
(644,84,o),
(698,158,c),
(698,66,ls),
(698,8,o),
(734,-16,o),
(791,-16,cs)
);
}
);
width = 973;
},
{
anchors = (
{
name = bottom;
pos = (505,0);
},
{
name = center;
pos = (493,500);
},
{
name = ogonek;
pos = (908,10);
},
{
name = top;
pos = (505,1005);
},
{
name = topright;
pos = (989,1005);
}
);
layerId = "C9B9556E-C2FD-4F62-BB40-44923C452C22";
shapes = (
{
closed = 1;
nodes = (
(889,-16,o),
(937,0,o),
(979,14,c),
(979,47,l),
(871,47,l),
(871,998,l),
(855,1010,l),
(818,1010,l),
(598,958,l),
(598,931,l),
(733,896,l),
(733,193,l),
(666,127,o),
(550,66,o),
(426,66,cs),
(297,66,o),
(268,173,o),
(268,332,cs),
(268,998,l),
(252,1010,l),
(213,1010,l),
(5,958,l),
(5,931,l),
(130,896,l),
(131,326,ls),
(131,111,o),
(189,-20,o),
(400,-20,cs),
(575,-20,o),
(675,84,o),
(734,158,c),
(734,66,ls),
(734,8,o),
(770,-16,o),
(827,-16,cs)
);
}
);
width = 1009;
},
{
anchors = (
{
name = bottom;
pos = (594,0);
},
{
name = center;
pos = (579,506);
},
{
name = ogonek;
pos = (1069,10);
},
{
name = top;
pos = (594,1005);
},
{
name = topright;
pos = (1168,1005);
}
);
annotations = (
{
pos = (1603,-442);
type = Text;
}
);
layerId = "AFA1064D-EFC9-4C9F-B9B0-9118E41D87C4";
shapes = (
{
closed = 1;
nodes = (
(1014,-19,o),
(1101,0,o),
(1153,10,c),
(1153,50,l),
(1077,68,l),
(1077,992,l),
(1015,1035,l),
(975,1035,l),
(613,921,l),
(613,880,l),
(734,833,l),
(734,204,l),
(696,183,o),
(654,153,o),
(568,153,cs),
(479,153,o),
(446,202,o),
(446,314,cs),
(446,992,l),
(391,1035,l),
(354,1035,l),
(0,921,l),
(0,880,l),
(103,833,l),
(103,327,ls),
(103,96,o),
(200,-20,o),
(393,-20,cs),
(551,-20,o),
(696,72,o),
(747,167,c),
(747,71,ls),
(747,-12,o),
(809,-19,o),
(896,-19,cs)
);
}
);
width = 1188;
},
{
anchors = (
{
name = bottom;
pos = (544,0);
},
{
name = center;
pos = (533,500);
},
{
name = ogonek;
pos = (978,10);
},
{
name = top;
pos = (544,1005);
},
{
name = topright;
pos = (1067,1005);
}
);
layerId = "2103F1D3-C390-4F79-A87D-298F85EA6916";
shapes = (
{
closed = 1;
nodes = (
(962,-16,o),
(1010,0,o),
(1052,14,c),
(1052,47,l),
(944,47,l),
(944,998,l),
(928,1010,l),
(891,1010,l),
(656,958,l),
(656,931,l),
(800,896,l),
(800,193,l),
(733,127,o),
(604,66,o),
(492,66,cs),
(383,66,o),
(279,123,o),
(279,292,cs),
(279,998,l),
(263,1010,l),
(224,1010,l),
(10,958,l),
(10,931,l),
(135,896,l),
(136,286,ls),
(136,91,o),
(255,-20,o),
(466,-20,cs),
(612,-20,o),
(742,82,o),
(801,158,c),
(801,66,ls),
(801,8,o),
(837,-16,o),
(894,-16,cs)
);
}
);
width = 1087;
},
{
anchors = (
{
name = bottom;
pos = (616,0);
},
{
name = center;
pos = (594,557);
},
{
name = ogonek;
pos = (1108,10);
},
{
name = top;
pos = (616,1110);
},
{
name = topright;
pos = (1211,1110);
}
);
layerId = "779F1615-9D1A-4778-9767-9A030AA58B6C";
shapes = (
{
closed = 1;
nodes = (
(1088,-18,o),
(1127,0,o),
(1175,12,c),
(1177,88,l),
(1060,88,l),
(1060,1110,l),
(1010,1134,l),
(1008,1134,l),
(738,1108,l),
(738,1034,l),
(897,1000,l),
(897,228,l),
(829,174,o),
(708,100,o),
(558,100,cs),
(361,100,o),
(305,198,o),
(305,436,cs),
(305,1110,l),
(266,1134,l),
(264,1134,l),
(11,1108,l),
(11,1034,l),
(142,1000,l),
(142,412,ls),
(142,108,o),
(249,-22,o),
(517,-22,cs),
(673,-22,o),
(825,67,o),
(913,144,c),
(913,66,ls),
(913,-2,o),
(950,-18,o),
(1012,-18,cs)
);
}
);
userData = {
com.schriftgestaltung.Glyphs.lastChange = "2019-04-25 21:50:43 +0000";
};
width = 1231;
},
{
anchors = (
{
name = bottom;
pos = (659,0);
},
{
name = center;
pos = (644,555);
},
{
name = ogonek;
pos = (1186,10);
},
{
name = top;
pos = (659,1112);
},
{
name = topright;
pos = (1298,1112);
}
);
layerId = "97BB7961-D669-43AB-8BBF-11FFD0C46A4B";
shapes = (
{
closed = 1;
nodes = (
(1114,-20,o),
(1208,0,o),
(1258,10,c),
(1258,138,l),
(1152,148,l),
(1152,1108,l),
(1104,1136,l),
(1098,1136,l),
(692,1110,l),
(692,986,l),
(826,956,l),
(826,236,l),
(796,206,o),
(724,160,o),
(628,160,cs),
(500,160,o),
(462,218,o),
(462,392,cs),
(462,1108,l),
(418,1136,l),
(416,1136,l),
(30,1110,l),
(30,982,l),
(124,956,l),
(124,400,ls),
(124,96,o),
(234,-22,o),
(506,-22,cs),
(654,-22,o),
(804,64,o),
(864,146,c),
(864,102,ls),
(864,24,o),
(902,-20,o),
(1000,-20,cs)
);
}
);
width = 1318;
}
);
subCategory = Lowercase;
unicode = 117;
}
{
color = 8;
glyphname = btopbar;
layers = (
{
layerId = UUID0;
shapes = (
{
closed = 1;
nodes = (
(884,-22,o),
(1104,254,o),
(1104,596,cs),
(1104,980,o),
(890,1140,o),
(666,1140,cs),
(510,1140,o),
(393,1068,o),
(323,1002,c),
(323,1610,l),
(161,1638,l),
(162,54,l),
(188,28,o),
(352,-22,o),
(534,-22,cs)
);
},
{
closed = 1;
nodes = (
(448,80,o),
(344,104,o),
(324,150,c),
(324,890,l),
(370,940,o),
(474,1018,o),
(600,1018,cs),
(778,1018,o),
(933,884,o),
(928,568,cs),
(923,255,o),
(778,80,o),
(548,80,cs)
);
},
{
closed = 1;
nodes = (
(1010,1317,l),
(995,1638,l),
(161,1638,l),
(257,1548,l),
(854,1531,l),
(915,1310,l)
);
}
);
width = 1170;
},
{
layerId = "DEBB1CE4-A72D-4960-969E-E04A036D2FA1";
shapes = (
{
closed = 1;
nodes = (
(959,-22,o),
(1186,245,o),
(1186,592,cs),
(1186,984,o),
(995,1140,o),
(756,1140,cs),
(631,1140,o),
(526,1080,o),
(465,1017,c),
(465,1583,l),
(144,1639,l),
(145,54,l),
(173,35,o),
(322,-22,o),
(585,-22,cs)
);
},
{
closed = 1;
nodes = (
(532,102,o),
(478,120,o),
(466,146,c),
(466,869,l),
(497,905,o),
(559,944,o),
(632,944,cs),
(754,944,o),
(842,837,o),
(839,558,cs),
(836,248,o),
(737,102,o),
(595,102,cs)
);
},
{
closed = 1;
nodes = (
(1106,1288,l),
(1096,1639,l),
(144,1639,l),
(438,1501,l),
(876,1486,l),
(949,1288,l)
);
}
);
width = 1252;
},
{
layerId = "C9B9556E-C2FD-4F62-BB40-44923C452C22";
shapes = (
{
closed = 1;
nodes = (
(749,-22,o),
(962,219,o),
(962,547,cs),
(962,857,o),
(821,1034,o),
(576,1034,cs),
(398,1034,o),
(289,916,o),
(258,865,c),
(258,1615,l),
(119,1638,l),
(119,54,l),
(155,54,o),
(293,-22,o),
(479,-22,cs)
);
},
{
closed = 1;
nodes = (
(353,28,o),
(286,82,o),
(258,116,c),
(258,830,l),
(303,880,o),
(403,966,o),
(537,966,cs),
(684,966,o),
(795,828,o),
(795,532,cs),
(795,204,o),
(681,28,o),
(466,28,cs)
);
},
{
closed = 1;
nodes = (
(874,1332,l),
(844,1638,l),
(119,1638,l),
(232,1594,l),
(729,1569,l),
(809,1332,l)
);
}
);
width = 1004;
},
{
layerId = "184155C8-9F61-4F1C-9784-DDA8EA717636";
shapes = (
{
closed = 1;
nodes = (
(849,-22,o),
(1087,179,o),
(1087,574,cs),
(1087,860,o),
(962,1044,o),
(702,1044,cs),
(571,1044,o),
(451,949,o),
(432,893,c),
(432,1600,l),
(100,1634,l),
(101,54,l),
(129,35,o),
(280,-22,o),
(598,-22,cs)
);
},
{
closed = 1;
nodes = (
(519,37,o),
(455,63,o),
(432,113,c),
(432,837,l),
(446,854,o),
(471,909,o),
(555,909,cs),
(644,909,o),
(726,824,o),
(726,522,cs),
(726,200,o),
(685,37,o),
(569,37,cs)
);
},
{
closed = 1;
nodes = (
(968,1631,l),
(100,1634,l),
(403,1584,l),
(734,1557,l),
(824,1283,l),
(995,1280,l)
);
}
);
width = 1131;
},
{
layerId = "0E4B6E2E-ECAB-4D06-9686-B0B40AA31834";
shapes = (
{
closed = 1;
nodes = (
(756,-22,o),
(940,253,o),
(941,621,cs),
(942,966,o),
(767,1140,o),
(566,1140,cs),
(382,1140,o),
(309,1046,o),
(276,997,c),
(276,1610,l),
(120,1638,l),
(120,54,l),
(142,31,o),
(298,-22,o),
(447,-22,cs)
);
},
{
closed = 1;
nodes = (
(379,77,o),
(294,105,o),
(276,141,c),
(276,876,l),
(313,944,o),
(389,1018,o),
(526,1018,cs),
(652,1018,o),
(769,897,o),
(771,598,cs),
(773,232,o),
(638,80,o),
(460,78,cs)
);
},
{
closed = 1;
nodes = (
(920,1317,l),
(905,1638,l),
(120,1638,l),
(257,1548,l),
(764,1531,l),
(825,1310,l)
);
}
);
width = 1008;
},
{
layerId = "EA2265BD-E890-48C4-9E90-A53076E780C5";
shapes = (
{
closed = 1;
nodes = (
(854,-21,o),
(1028,296,o),
(1028,620,cs),
(1028,990,o),
(876,1141,o),
(686,1141,cs),
(549,1141,o),
(463,1070,o),
(420,1013,c),
(420,1626,l),
(105,1639,l),
(105,54,l),
(129,35,o),
(254,-23,o),
(500,-22,cs)
);
},
{
closed = 1;
nodes = (
(470,113,o),
(433,132,o),
(419,158,c),
(420,884,l),
(430,910,o),
(476,962,o),
(545,962,cs),
(627,962,o),
(686,855,o),
(686,558,cs),
(686,264,o),
(613,113,o),
(506,113,cs)
);
},
{
closed = 1;
nodes = (
(996,1288,l),
(986,1639,l),
(105,1639,l),
(398,1503,l),
(766,1486,l),
(839,1288,l)
);
}
);
width = 1078;
},
{
layerId = "E96AC896-F5DF-475B-BBD9-C7FEC6A86D0E";
shapes = (
{
closed = 1;
nodes = (
(684,-25,o),
(867,212,o),
(867,545,cs),
(867,863,o),
(727,1034,o),
(518,1034,cs),
(362,1034,o),
(269,946,o),
(240,865,c),
(240,1633,l),
(105,1638,l),
(105,54,l),
(128,28,o),
(257,-25,o),
(412,-25,cs)
);
},
{
closed = 1;
nodes = (
(326,33,o),
(278,57,o),
(240,110,c),
(240,817,l),
(278,881,o),
(349,968,o),
(478,968,cs),
(641,968,o),
(721,799,o),
(721,530,cs),
(721,198,o),
(604,33,o),
(419,33,cs)
);
},
{
closed = 1;
nodes = (
(844,1332,l),
(814,1638,l),
(105,1638,l),
(232,1594,l),
(699,1569,l),
(779,1332,l)
);
}
);
width = 907;
},
{
layerId = "F2B10EEF-9DDC-48CA-970D-6B8C79870881";
shapes = (
{
closed = 1;
nodes = (
(768,-24,o),
(971,177,o),
(971,576,cs),
(971,864,o),
(860,1042,o),
(661,1042,cs),
(542,1042,o),
(417,952,o),
(406,895,c),
(406,1628,l),
(91,1634,l),
(91,54,l),
(116,34,o),
(238,-24,o),
(497,-24,cs)
);
},
{
closed = 1;
nodes = (
(455,41,o),
(425,69,o),
(406,116,c),
(406,818,l),
(415,840,o),
(442,898,o),
(497,898,cs),
(564,898,o),
(625,819,o),
(625,502,cs),
(625,225,o),
(600,41,o),
(497,41,cs)
);
},
{
closed = 1;
nodes = (
(917,1631,l),
(100,1634,l),
(403,1584,l),
(683,1557,l),
(793,1283,l),
(944,1280,l)
);
}
);
width = 1013;
},
{
layerId = "779F1615-9D1A-4778-9767-9A030AA58B6C";
shapes = (
{
closed = 1;
nodes = (
(921,-22,o),
(1147,254,o),
(1147,596,cs),
(1147,980,o),
(915,1140,o),
(669,1140,cs),
(482,1140,o),
(374,1068,o),
(291,1002,c),
(291,1626,l),
(127,1636,l),
(127,54,l),
(157,28,o),
(346,-22,o),
(523,-22,cs)
);
},
{
closed = 1;
nodes = (
(419,79,o),
(316,104,o),
(291,150,c),
(291,890,l),
(347,940,o),
(449,1018,o),
(603,1018,cs),
(807,1018,o),
(970,884,o),
(970,568,cs),
(970,255,o),
(816,79,o),
(540,79,cs)
);
},
{
closed = 1;
nodes = (
(1010,1317,l),
(995,1638,l),
(127,1636,l),
(257,1548,l),
(854,1531,l),
(915,1310,l)
);
}
);
width = 1212;
},
{
layerId = "97BB7961-D669-43AB-8BBF-11FFD0C46A4B";
shapes = (
{
closed = 1;
nodes = (
(1025,-21,o),
(1254,245,o),
(1254,592,cs),
(1254,984,o),
(1050,1140,o),
(783,1140,cs),
(650,1140,o),
(545,1080,o),
(483,1017,c),
(483,1602,l),
(127,1639,l),
(127,54,l),
(155,35,o),
(327,-21,o),
(625,-21,cs)
);
},
{
closed = 1;
nodes = (
(551,104,o),
(495,122,o),
(483,148,c),
(483,872,l),
(515,908,o),
(581,940,o),
(656,940,cs),
(790,940,o),
(886,837,o),
(883,558,cs),
(879,248,o),
(780,104,o),
(616,104,cs)
);
},
{
closed = 1;
nodes = (
(1166,1288,l),
(1156,1639,l),
(127,1639,l),
(438,1511,l),
(926,1486,l),
(1014,1288,l)
);
}
);
width = 1302;
},
{
layerId = "2103F1D3-C390-4F79-A87D-298F85EA6916";
shapes = (
{
closed = 1;
nodes = (
(792,-22,o),
(1024,198,o),
(1024,547,cs),
(1024,857,o),
(857,1038,o),
(595,1038,cs),
(411,1038,o),
(289,916,o),
(258,865,c),
(258,1619,l),
(119,1638,l),
(119,54,l),
(155,54,o),
(317,-22,o),
(503,-22,cs)
);
},
{
closed = 1;
nodes = (
(380,28,o),
(286,82,o),
(258,116,c),
(258,830,l),
(303,880,o),
(416,970,o),
(568,970,cs),
(718,970,o),
(863,832,o),
(863,532,cs),
(863,150,o),
(708,28,o),
(493,28,cs)
);
},
{
closed = 1;
nodes = (
(904,1332,l),
(874,1638,l),
(119,1638,l),
(232,1594,l),
(759,1569,l),
(839,1332,l)
);
}
);
width = 1064;
},
{
layerId = "AFA1064D-EFC9-4C9F-B9B0-9118E41D87C4";
shapes = (
{
closed = 1;
nodes = (
(915,-22,o),
(1157,179,o),
(1157,577,cs),
(1157,884,o),
(986,1044,o),
(754,1044,cs),
(595,1044,o),
(470,947,o),
(434,890,c),
(434,1634,l),
(91,1634,l),
(91,54,l),
(119,35,o),
(280,-22,o),
(578,-22,cs)
);
},
{
closed = 1;
nodes = (
(521,37,o),
(457,63,o),
(434,113,c),
(434,837,l),
(460,872,o),
(512,909,o),
(587,909,cs),
(693,909,o),
(769,819,o),
(768,502,cs),
(769,201,o),
(719,37,o),
(549,37,cs)
);
},
{
closed = 1;
nodes = (
(1028,1631,l),
(91,1634,l),
(403,1584,l),
(794,1557,l),
(884,1283,l),
(1055,1280,l)
);
}
);
width = 1192;
}
);
metricRight = b;
metricWidth = b;
unicode = 387;
}
{
color = 9;
glyphname = chook;
layers = (
{
background = {
anchors = (
{
name = bottom;
pos = (10668,0);
},
{
name = center;
pos = (10684,556);
},
{
name = top;
pos = (10698,1110);
}
);
shapes = (
{
closed = 1;
nodes = (
(11024,844,l),
(11032,1080,l),
(11034,1150,o),
(11069,1220,o),
(11137,1220,cs),
(11231,1220,o),
(11297,1198,o),
(11315,1184,c),
(11315,1348,l),
(11291,1356,o),
(11263,1364,o),
(11203,1364,cs),
(11099,1364,o),
(10985,1264,o),
(10910,1117,c),
(10962,879,l)
);
},
{
closed = 1;
nodes = (
(10198,226,o),
(10368,-22,o),
(10692,-22,cs),
(10830,-22,o),
(10980,46,o),
(11054,120,c),
(11022,186,l),
(10962,144,o),
(10850,94,o),
(10728,94,cs),
(10524,94,o),
(10366,256,o),
(10368,604,cs),
(10370,878,o),
(10504,1046,o),
(10710,1046,cs),
(10789,1046,o),
(10875,1018,o),
(10882,986,cs),
(10924,794,l),
(11024,794,l),
(11032,1080,l),
(10980,1102,o),
(10868,1140,o),
(10752,1140,cs),
(10376,1140,o),
(10194,858,o),
(10196,542,cs)
);
}
);
};
layerId = UUID0;
shapes = (
{
ref = c;
},
{
pos = (715,0);
ref = _hooktop.part;
}
);
width = 987;
},
{
layerId = "DEBB1CE4-A72D-4960-969E-E04A036D2FA1";
shapes = (
{
ref = c;
},
{
pos = (744,0);
ref = _hooktop.part;
}
);
width = 1027;
},
{
layerId = "0E4B6E2E-ECAB-4D06-9686-B0B40AA31834";
shapes = (
{
ref = c;
},
{
pos = (606,2);
ref = _hooktop.part;
}
);
width = 849;
},
{
layerId = "EA2265BD-E890-48C4-9E90-A53076E780C5";
shapes = (
{
ref = c;
},
{
pos = (613,2);
ref = _hooktop.part;
}
);
width = 879;
},
{
layerId = "779F1615-9D1A-4778-9767-9A030AA58B6C";
shapes = (
{
ref = c;
},
{
pos = (782,0);
ref = _hooktop.part;
}
);
width = 1042;
},
{
layerId = "97BB7961-D669-43AB-8BBF-11FFD0C46A4B";
shapes = (
{
ref = c;
},
{
pos = (805,0);
ref = _hooktop.part;
}
);
width = 1059;
},
{
layerId = "C9B9556E-C2FD-4F62-BB40-44923C452C22";
shapes = (
{
ref = c;
},
{
pos = (663,0);
ref = _hooktop.part;
}
);
width = 855;
},
{
layerId = "184155C8-9F61-4F1C-9784-DDA8EA717636";
shapes = (
{
ref = c;
},
{
pos = (734,-1);
ref = _hooktop.part;
}
);
width = 910;
},
{
layerId = "E96AC896-F5DF-475B-BBD9-C7FEC6A86D0E";
shapes = (
{
ref = c;
},
{
pos = (569,-5);
ref = _hooktop.part;
}
);
width = 768;
},
{
layerId = "F2B10EEF-9DDC-48CA-970D-6B8C79870881";
shapes = (
{
ref = c;
},
{
pos = (624,2);
ref = _hooktop.part;
}
);
width = 796;
},
{
layerId = "2103F1D3-C390-4F79-A87D-298F85EA6916";
shapes = (
{
ref = c;
},
{
pos = (694,0);
ref = _hooktop.part;
}
);
width = 888;
},
{
layerId = "AFA1064D-EFC9-4C9F-B9B0-9118E41D87C4";
shapes = (
{
ref = c;
},
{
pos = (808,-4);
ref = _hooktop.part;
}
);
width = 962;
}
);
metricLeft = c;
metricRight = f;
unicode = 392;
}
{
color = 2;
glyphname = Dtopbar;
layers = (
{
background = {
shapes = (
{
closed = 1;
nodes = (
(-7846,0,l),
(-7770,0,o),
(-7573,-12,o),
(-7521,0,c),
(-7521,85,l),
(-7692,104,l),
(-7692,1377,l),
(-7524,1399,l),
(-7524,1486,l),
(-8565,1486,l),
(-8622,1018,l),
(-8512,1018,l),
(-8423,1384,l),
(-7856,1394,l),
(-7856,824,l),
(-7916,824,o),
(-8026,823,o),
(-8102,823,cs),
(-8543,823,o),
(-8686,668,o),
(-8686,444,cs),
(-8686,209,o),
(-8545,-12,o),
(-8084,-12,c)
);
},
{
closed = 1;
nodes = (
(-8395,85,o),
(-8506,213,o),
(-8506,414,cs),
(-8506,626,o),
(-8400,720,o),
(-8142,720,cs),
(-8070,720,o),
(-7916,723,o),
(-7856,719,c),
(-7856,101,l),
(-7909,85,o),
(-8013,85,o),
(-8081,85,cs)
);
}
);
};
layerId = UUID0;
shapes = (
{
pos = (1359,0);
ref = "Be-cy";
scale = (-1,1);
}
);
width = 1359;
},
{
background = {
shapes = (
{
closed = 0;
nodes = (
(1207,1491,l),
(166,1491,l),
(117,1084,l),
(289,1059,l),
(400,1334,l),
(888,1363,l)
);
},
{
closed = 1;
nodes = (
(1275,1354,l),
(1275,1486,l),
(517,1486,l),
(517,1354,l),
(780,1333,l),
(780,968,l),
(763,970,o),
(699,974,o),
(642,974,cs),
(256,974,o),
(46,773,o),
(46,434,cs),
(46,149,o),
(170,-10,o),
(609,-11,cs),
(763,-13,o),
(854,0,o),
(945,0,cs),
(1269,0,l),
(1269,139,l),
(1123,167,l),
(1123,1333,l)
);
},
{
closed = 1;
nodes = (
(781,134,l),
(750,129,o),
(724,122,o),
(651,122,cs),
(480,122,o),
(396,217,o),
(396,441,cs),
(396,746,o),
(505,839,o),
(650,839,cs),
(716,839,o),
(758,836,o),
(781,830,c)
);
}
);
};
layerId = "DEBB1CE4-A72D-4960-969E-E04A036D2FA1";
shapes = (
{
pos = (1417,0);
ref = "Be-cy";
scale = (-1,1);
}
);
width = 1417;
},
{
layerId = "0E4B6E2E-ECAB-4D06-9686-B0B40AA31834";
shapes = (
{
pos = (1146,0);
ref = "Be-cy";
scale = (-1,1);
}
);
width = 1146;
},
{
layerId = "EA2265BD-E890-48C4-9E90-A53076E780C5";
shapes = (
{
pos = (1212,0);
ref = "Be-cy";
scale = (-1,1);
}
);
width = 1212;
},
{
layerId = "779F1615-9D1A-4778-9767-9A030AA58B6C";
shapes = (
{
pos = (1380,0);
ref = "Be-cy";
scale = (-1,1);
}
);
width = 1380;
},
{
layerId = "97BB7961-D669-43AB-8BBF-11FFD0C46A4B";
shapes = (
{
pos = (1383,0);
ref = "Be-cy";
scale = (-1,1);
}
);
width = 1383;
},
{
background = {
shapes = (
{
closed = 0;
nodes = (
(-964,1486,l),
(-1901,1486,l),
(-1943,1124,l),
(-1871,1114,l),
(-1769,1404,l),
(-1115,1426,l)
);
},
{
closed = 1;
nodes = (
(-828,1450,l),
(-828,1486,l),
(-1325,1486,l),
(-1325,1450,l),
(-1124,1418,l),
(-1124,846,l),
(-1162,853,o),
(-1292,861,o),
(-1330,860,cs),
(-1702,850,o),
(-1861,688,o),
(-1861,405,cs),
(-1861,157,o),
(-1735,-16,o),
(-1353,-16,cs),
(-1250,-16,o),
(-1169,0,o),
(-1050,0,cs),
(-829,0,l),
(-829,36,l),
(-968,66,l),
(-968,1418,l)
);
},
{
closed = 1;
nodes = (
(-1124,53,l),
(-1165,53,o),
(-1278,34,o),
(-1343,34,cs),
(-1643,34,o),
(-1695,174,o),
(-1695,405,cs),
(-1695,670,o),
(-1608,801,o),
(-1323,811,cs),
(-1263,813,o),
(-1175,800,o),
(-1124,786,c)
);
}
);
};
layerId = "C9B9556E-C2FD-4F62-BB40-44923C452C22";
shapes = (
{
pos = (1185,0);
ref = "Be-cy";
scale = (-1,1);
}
);
width = 1185;
},
{
background = {
shapes = (
{
closed = 0;
nodes = (
(609,1486,l),
(-496,1486,l),
(-515,1084,l),
(-349,1059,l),
(-238,1402,l),
(224,1431,l)
);
},
{
closed = 1;
nodes = (
(764,1449,l),
(764,1486,l),
(80,1486,l),
(80,1448,l),
(252,1414,l),
(251,970,l),
(234,972,o),
(169,977,o),
(112,977,cs),
(-265,977,o),
(-490,811,o),
(-490,462,cs),
(-490,158,o),
(-321,-14,o),
(78,-11,cs),
(232,-10,o),
(341,0,o),
(432,0,cs),
(763,0,l),
(763,36,l),
(630,74,l),
(630,1413,l)
);
},
{
closed = 1;
nodes = (
(252,56,l),
(221,51,o),
(195,44,o),
(142,44,cs),
(-28,44,o),
(-85,245,o),
(-85,469,cs),
(-85,775,o),
(25,910,o),
(150,910,cs),
(192,910,o),
(229,907,o),
(252,901,c)
);
}
);
};
layerId = "184155C8-9F61-4F1C-9784-DDA8EA717636";
shapes = (
{
pos = (1318,0);
ref = "Be-cy";
scale = (-1,1);
}
);
width = 1318;
},
{
layerId = "E96AC896-F5DF-475B-BBD9-C7FEC6A86D0E";
shapes = (
{
pos = (1119,0);
ref = "Be-cy";
scale = (-1,1);
}
);
width = 1119;
},
{
layerId = "F2B10EEF-9DDC-48CA-970D-6B8C79870881";
shapes = (
{
pos = (1155,0);
ref = "Be-cy";
scale = (-1,1);
}
);
width = 1155;
},
{
layerId = "2103F1D3-C390-4F79-A87D-298F85EA6916";
shapes = (
{
pos = (1304,0);
ref = "Be-cy";
scale = (-1,1);
}
);
width = 1304;
},
{
layerId = "AFA1064D-EFC9-4C9F-B9B0-9118E41D87C4";
shapes = (
{
pos = (1397,0);
ref = "Be-cy";
scale = (-1,1);
}
);
width = 1397;
}
);
metricLeft = "=|B";
metricRight = H;
unicode = 395;
}
{
color = 1;
glyphname = Ghook;
layers = (
{
background = {
shapes = (
{
closed = 1;
nodes = (
(999,-22,o),
(1155,76,o),
(1291,80,c),
(1291,622,l),
(1413,642,l),
(1413,748,l),
(845,748,l),
(845,642,l),
(1123,622,l),
(1123,166,l),
(1021,110,o),
(885,71,o),
(743,71,cs),
(365,71,o),
(241,418,o),
(241,770,cs),
(241,1192,o),
(435,1406,o),
(775,1406,cs),
(963,1406,o),
(1081,1362,o),
(1111,1338,c),
(1155,1110,l),
(1259,1110,l),
(1275,1440,l),
(1207,1456,o),
(999,1502,o),
(793,1502,cs),
(345,1502,o),
(53,1220,o),
(53,718,cs),
(53,296,o),
(267,-22,o),
(731,-22,cs)
);
},
{
closed = 1;
nodes = (
(1259,1110,l),
(1267,1260,ls),
(1277,1444,o),
(1334,1506,o),
(1402,1506,cs),
(1496,1506,o),
(1562,1484,o),
(1580,1470,c),
(1580,1634,l),
(1556,1642,o),
(1528,1650,o),
(1468,1650,cs),
(1364,1650,o),
(1250,1550,o),
(1175,1403,c),
(1197,1145,l)
);
}
);
};
layerId = UUID0;
shapes = (
{
ref = G;
},
{
pos = (1091,-4);
ref = _UChooktop.part;
}
);
width = 1441;
},
{
layerId = "DEBB1CE4-A72D-4960-969E-E04A036D2FA1";
shapes = (
{
ref = G;
},
{
pos = (1110,50);
ref = _UChooktop.part;
}
);
width = 1464;
},
{
layerId = "0E4B6E2E-ECAB-4D06-9686-B0B40AA31834";
shapes = (
{
ref = G;
},
{
pos = (891,-4);
ref = _UChooktop.part;
}
);
width = 1213;
},
{
layerId = "EA2265BD-E890-48C4-9E90-A53076E780C5";
shapes = (
{
ref = G;
},
{
pos = (960,52);
ref = _UChooktop.part;
}
);
width = 1287;
},
{
layerId = "779F1615-9D1A-4778-9767-9A030AA58B6C";
shapes = (
{
ref = G;
},
{
pos = (1174,-3);
ref = _UChooktop.part;
}
);
width = 1529;
},
{
layerId = "97BB7961-D669-43AB-8BBF-11FFD0C46A4B";
shapes = (
{
ref = G;
},
{
pos = (1156,50);
ref = _UChooktop.part;
}
);
width = 1501;
},
{
layerId = "C9B9556E-C2FD-4F62-BB40-44923C452C22";
shapes = (
{
ref = G;
},
{
pos = (998,0);
ref = _UChooktop.part;
}
);
width = 1316;
},
{
layerId = "184155C8-9F61-4F1C-9784-DDA8EA717636";
shapes = (
{
ref = G;
},
{
pos = (1114,-1);
ref = _UChooktop.part;
}
);
width = 1414;
},
{
layerId = "E96AC896-F5DF-475B-BBD9-C7FEC6A86D0E";
shapes = (
{
ref = G;
},
{
pos = (835,2);
ref = _UChooktop.part;
}
);
width = 1129;
},
{
layerId = "F2B10EEF-9DDC-48CA-970D-6B8C79870881";
shapes = (
{
ref = G;
},
{
pos = (971,0);
ref = _UChooktop.part;
}
);
width = 1232;
},
{
layerId = "2103F1D3-C390-4F79-A87D-298F85EA6916";
shapes = (
{
ref = G;
},
{
pos = (1099,0);
ref = _UChooktop.part;
}
);
width = 1421;
},
{
layerId = "AFA1064D-EFC9-4C9F-B9B0-9118E41D87C4";
shapes = (
{
ref = G;
},
{
pos = (1178,-1);
ref = _UChooktop.part;
}
);
width = 1455;
}
);
unicode = 403;
}
{
color = 8;
glyphname = Esh;
layers = (
{
background = {
shapes = (
{
pos = (118,0);
ref = E;
}
);
};
layerId = UUID0;
shapes = (
{
closed = 1;
nodes = (
(372,-24,o),
(583,172,o),
(583,418,cs),
(583,1114,ls),
(583,1298,o),
(650,1360,o),
(788,1360,cs),
(882,1360,o),
(948,1338,o),
(966,1324,c),
(966,1488,l),
(942,1496,o),
(914,1504,o),
(854,1504,cs),
(638,1504,o),
(424,1308,o),
(424,1062,cs),
(424,366,ls),
(424,182,o),
(360,120,o),
(222,120,cs),
(128,120,o),
(62,142,o),
(44,156,c),
(44,-8,l),
(68,-16,o),
(96,-24,o),
(156,-24,cs)
);
}
);
width = 1010;
},
{
background = {
shapes = (
{
pos = (156,0);
ref = E;
}
);
};
layerId = "DEBB1CE4-A72D-4960-969E-E04A036D2FA1";
shapes = (
{
closed = 1;
nodes = (
(402,-24,o),
(667,149,o),
(667,450,cs),
(667,1117,ls),
(667,1213,o),
(706,1264,o),
(799,1264,cs),
(869,1264,o),
(934,1246,o),
(977,1216,c),
(977,1489,l),
(941,1501,o),
(899,1506,o),
(854,1506,cs),
(589,1506,o),
(347,1291,o),
(347,1026,cs),
(347,366,ls),
(347,253,o),
(311,218,o),
(220,218,cs),
(156,218,o),
(92,233,o),
(42,266,c),
(42,-7,l),
(83,-19,o),
(120,-24,o),
(165,-24,cs)
);
}
);
width = 1019;
},
{
layerId = "0E4B6E2E-ECAB-4D06-9686-B0B40AA31834";
shapes = (
{
closed = 1;
nodes = (
(358,-24,o),
(569,172,o),
(569,418,cs),
(569,1114,ls),
(569,1298,o),
(636,1360,o),
(774,1360,cs),
(868,1360,o),
(934,1338,o),
(952,1324,c),
(952,1488,l),
(928,1496,o),
(900,1504,o),
(840,1504,cs),
(624,1504,o),
(410,1308,o),
(410,1062,cs),
(410,366,ls),
(410,182,o),
(346,120,o),
(208,120,cs),
(114,120,o),
(48,142,o),
(30,156,c),
(30,-8,l),
(54,-16,o),
(82,-24,o),
(142,-24,cs)
);
}
);
width = 982;
},
{
layerId = "EA2265BD-E890-48C4-9E90-A53076E780C5";
shapes = (
{
closed = 1;
nodes = (
(386,-24,o),
(651,149,o),
(651,450,cs),
(651,1117,ls),
(651,1213,o),
(690,1264,o),
(783,1264,cs),
(853,1264,o),
(918,1246,o),
(961,1216,c),
(961,1489,l),
(925,1501,o),
(883,1506,o),
(838,1506,cs),
(573,1506,o),
(331,1291,o),
(331,1026,cs),
(331,366,ls),
(331,253,o),
(295,218,o),
(204,218,cs),
(140,218,o),
(76,233,o),
(26,266,c),
(26,-7,l),
(67,-19,o),
(104,-24,o),
(149,-24,cs)
);
}
);
width = 987;
},
{
layerId = "779F1615-9D1A-4778-9767-9A030AA58B6C";
shapes = (
{
closed = 1;
nodes = (
(348,-24,o),
(559,172,o),
(559,418,cs),
(559,1114,ls),
(559,1298,o),
(626,1360,o),
(764,1360,cs),
(858,1360,o),
(924,1338,o),
(942,1324,c),
(942,1488,l),
(918,1496,o),
(890,1504,o),
(830,1504,cs),
(614,1504,o),
(400,1308,o),
(400,1062,cs),
(400,366,ls),
(400,182,o),
(336,120,o),
(198,120,cs),
(104,120,o),
(38,142,o),
(20,156,c),
(20,-8,l),
(44,-16,o),
(72,-24,o),
(132,-24,cs)
);
}
);
width = 962;
},
{
layerId = "97BB7961-D669-43AB-8BBF-11FFD0C46A4B";
shapes = (
{
closed = 1;
nodes = (
(373,-24,o),
(638,149,o),
(638,450,cs),
(638,1117,ls),
(638,1213,o),
(677,1264,o),
(770,1264,cs),
(840,1264,o),
(905,1246,o),
(948,1216,c),
(948,1489,l),
(912,1501,o),
(870,1506,o),
(825,1506,cs),
(560,1506,o),
(318,1291,o),
(318,1026,cs),
(318,366,ls),
(318,253,o),
(282,218,o),
(191,218,cs),
(127,218,o),
(63,233,o),
(13,266,c),
(13,-7,l),
(54,-19,o),
(91,-24,o),
(136,-24,cs)
);
}
);
width = 961;
},
{
background = {
shapes = (
{
pos = (116,0);
ref = E;
}
);
};
layerId = "C9B9556E-C2FD-4F62-BB40-44923C452C22";
shapes = (
{
closed = 1;
nodes = (
(310,-25,o),
(468,144,o),
(468,391,cs),
(468,1206,ls),
(468,1357,o),
(518,1409,o),
(621,1409,cs),
(680,1409,o),
(739,1402,o),
(783,1388,c),
(783,1500,l),
(759,1508,o),
(724,1516,o),
(695,1516,cs),
(527,1516,o),
(331,1320,o),
(331,1043,cs),
(331,237,ls),
(331,118,o),
(293,82,o),
(210,82,cs),
(151,82,o),
(92,89,o),
(48,103,c),
(48,-9,l),
(72,-17,o),
(107,-25,o),
(136,-25,cs)
);
}
);
width = 831;
},
{
background = {
shapes = (
{
closed = 1;
nodes = (
(693,639,l),
(138,40,l),
(165,0,l),
(1233,0,l),
(1321,460,l),
(1189,495,l),
(1075,189,l),
(271,97,l),
(973,825,l),
(552,1428,l),
(983,1389,l),
(1132,1069,l),
(1251,1069,l),
(1211,1486,l),
(175,1486,l),
(148,1450,l)
);
}
);
};
layerId = "184155C8-9F61-4F1C-9784-DDA8EA717636";
shapes = (
{
closed = 1;
nodes = (
(411,-26,o),
(647,165,o),
(649,507,cs),
(652,1181,ls),
(653,1302,o),
(691,1344,o),
(758,1344,cs),
(828,1344,o),
(896,1309,o),
(945,1277,c),
(945,1492,l),
(928,1503,o),
(892,1509,o),
(850,1509,cs),
(613,1509,o),
(326,1240,o),
(326,912,cs),
(326,361,ls),
(326,193,o),
(288,157,o),
(213,157,cs),
(153,157,o),
(84,207,o),
(35,239,c),
(35,-9,l),
(52,-20,o),
(92,-26,o),
(156,-26,cs)
);
}
);
width = 980;
},
{
layerId = "E96AC896-F5DF-475B-BBD9-C7FEC6A86D0E";
shapes = (
{
closed = 1;
nodes = (
(320,-25,o),
(478,144,o),
(478,391,cs),
(478,1206,ls),
(478,1357,o),
(528,1409,o),
(631,1409,cs),
(690,1409,o),
(749,1402,o),
(793,1388,c),
(793,1500,l),
(769,1508,o),
(734,1516,o),
(705,1516,cs),
(537,1516,o),
(341,1320,o),
(341,1043,cs),
(341,237,ls),
(341,118,o),
(303,82,o),
(220,82,cs),
(161,82,o),
(102,89,o),
(58,103,c),
(58,-9,l),
(82,-17,o),
(117,-25,o),
(146,-25,cs)
);
}
);
width = 851;
},
{
background = {
shapes = (
{
pos = (-14,0);
ref = E;
}
);
};
layerId = "F2B10EEF-9DDC-48CA-970D-6B8C79870881";
shapes = (
{
closed = 1;
nodes = (
(396,-26,o),
(632,165,o),
(634,507,cs),
(637,1181,ls),
(638,1302,o),
(676,1344,o),
(743,1344,cs),
(813,1344,o),
(881,1309,o),
(930,1277,c),
(930,1492,l),
(913,1503,o),
(877,1509,o),
(835,1509,cs),
(598,1509,o),
(311,1240,o),
(311,912,cs),
(311,361,ls),
(311,193,o),
(273,157,o),
(198,157,cs),
(138,157,o),
(69,207,o),
(20,239,c),
(20,-9,l),
(37,-20,o),
(77,-26,o),
(141,-26,cs)
);
}
);
width = 950;
},
{
layerId = "2103F1D3-C390-4F79-A87D-298F85EA6916";
shapes = (
{
closed = 1;
nodes = (
(309,-25,o),
(467,144,o),
(467,391,cs),
(467,1206,ls),
(467,1357,o),
(517,1409,o),
(620,1409,cs),
(679,1409,o),
(738,1402,o),
(782,1388,c),
(782,1500,l),
(758,1508,o),
(723,1516,o),
(694,1516,cs),
(526,1516,o),
(330,1320,o),
(330,1043,cs),
(330,237,ls),
(330,118,o),
(292,82,o),
(209,82,cs),
(150,82,o),
(91,89,o),
(47,103,c),
(47,-9,l),
(71,-17,o),
(106,-25,o),
(135,-25,cs)
);
}
);
width = 829;
},
{
background = {
shapes = (
{
closed = 1;
nodes = (
(425,609,l),
(46,91,l),
(71,0,l),
(1044,0,l),
(1112,433,l),
(971,475,l),
(856,192,l),
(208,172,l),
(705,803,l),
(382,1418,l),
(782,1401,l),
(923,1095,l),
(1046,1095,l),
(1015,1486,l),
(71,1486,l),
(38,1390,l)
);
}
);
};
layerId = "AFA1064D-EFC9-4C9F-B9B0-9118E41D87C4";
shapes = (
{
closed = 1;
nodes = (
(418,-26,o),
(654,165,o),
(656,507,cs),
(659,1181,ls),
(660,1302,o),
(698,1344,o),
(765,1344,cs),
(835,1344,o),
(903,1309,o),
(952,1277,c),
(952,1492,l),
(935,1503,o),
(899,1509,o),
(857,1509,cs),
(620,1509,o),
(333,1240,o),
(333,912,cs),
(333,361,ls),
(333,193,o),
(295,157,o),
(220,157,cs),
(160,157,o),
(91,207,o),
(42,239,c),
(42,-9,l),
(59,-20,o),
(99,-26,o),
(163,-26,cs)
);
}
);
width = 994;
}
);
metricLeft = T;
metricRight = T;
unicode = 425;
}
{
color = 10;
glyphname = clickdental;
layers = (
{
layerId = UUID0;
shapes = (
{
closed = 1;
nodes = (
(312,0,l),
(312,1662,l),
(152,1662,l),
(152,0,l)
);
}
);
width = 464;
},
{
layerId = "DEBB1CE4-A72D-4960-969E-E04A036D2FA1";
shapes = (
{
closed = 1;
nodes = (
(476,0,ls),
(476,1662,ls),
(152,1662,ls),
(152,0,ls)
);
}
);
width = 628;
},
{
layerId = "0E4B6E2E-ECAB-4D06-9686-B0B40AA31834";
shapes = (
{
closed = 1;
nodes = (
(309,0,l),
(309,1662,l),
(152,1662,l),
(152,0,l)
);
}
);
width = 461;
},
{
layerId = "EA2265BD-E890-48C4-9E90-A53076E780C5";
shapes = (
{
closed = 1;
nodes = (
(465,0,ls),
(465,1662,ls),
(152,1662,ls),
(152,0,ls)
);
}
);
width = 617;
},
{
layerId = "779F1615-9D1A-4778-9767-9A030AA58B6C";
shapes = (
{
closed = 1;
nodes = (
(321,0,l),
(321,1662,l),
(152,1662,l),
(152,0,l)
);
}
);
width = 473;
},
{
layerId = "97BB7961-D669-43AB-8BBF-11FFD0C46A4B";
shapes = (
{
closed = 1;
nodes = (
(508,0,ls),
(508,1662,ls),
(152,1662,ls),
(152,0,ls)
);
}
);
width = 660;
},
{
layerId = "C9B9556E-C2FD-4F62-BB40-44923C452C22";
shapes = (
{
closed = 1;
nodes = (
(291,0,l),
(291,1662,l),
(152,1662,l),
(152,0,l)
);
}
);
width = 443;
},
{
layerId = "184155C8-9F61-4F1C-9784-DDA8EA717636";
shapes = (
{
closed = 1;
nodes = (
(411,0,l),
(411,1662,l),
(80,1662,l),
(80,0,l)
);
}
);
width = 491;
},
{
layerId = "E96AC896-F5DF-475B-BBD9-C7FEC6A86D0E";
shapes = (
{
closed = 1;
nodes = (
(285,0,l),
(285,1662,l),
(152,1662,l),
(152,0,l)
);
}
);
width = 437;
},
{
layerId = "F2B10EEF-9DDC-48CA-970D-6B8C79870881";
shapes = (
{
closed = 1;
nodes = (
(391,0,l),
(391,1662,l),
(80,1662,l),
(80,0,l)
);
}
);
width = 471;
},
{
layerId = "2103F1D3-C390-4F79-A87D-298F85EA6916";
shapes = (
{
closed = 1;
nodes = (
(291,0,l),
(291,1662,l),
(152,1662,l),
(152,0,l)
);
}
);
width = 443;
},
{
layerId = "AFA1064D-EFC9-4C9F-B9B0-9118E41D87C4";
shapes = (
{
closed = 1;
nodes = (
(431,0,l),
(431,1662,l),
(80,1662,l),
(80,0,l)
);
}
);
width = 511;
}
);
metricRight = "=|";
unicode = 448;
}
{
color = 8;
glyphname = Glottalstop;
layers = (
{
background = {
shapes = (
{
closed = 1;
nodes = (
(1094,838,o),
(1094,1090,cs),
(1094,1344,o),
(900,1500,o),
(568,1500,cs),
(320,1500,o),
(149,1449,o),
(76,1436,c),
(92,1110,l),
(196,1110,l),
(240,1342,l),
(273,1371,o),
(363,1399,o),
(552,1403,cs),
(768,1395,o),
(914,1306,o),
(914,1090,cs),
(914,886,o),
(733,759,o),
(396,729,c),
(396,104,l),
(180,86,l),
(180,0,l),
(775,0,l),
(775,86,l),
(560,106,l),
(560,658,l),
(881,695,o)
);
}
);
};
layerId = UUID0;
shapes = (
{
closed = 1;
nodes = (
(775,0,l),
(775,86,l),
(560,106,l),
(560,658,l),
(881,695,o),
(1094,838,o),
(1094,1090,cs),
(1094,1344,o),
(900,1500,o),
(568,1500,cs),
(320,1500,o),
(149,1449,o),
(76,1436,c),
(92,1110,l),
(196,1110,l),
(240,1342,l),
(273,1371,o),
(363,1399,o),
(552,1403,cs),
(768,1395,o),
(914,1306,o),
(914,1090,cs),
(914,886,o),
(733,759,o),
(396,729,c),
(396,104,l),
(180,86,l),
(180,0,l)
);
}
);
width = 1150;
},
{
layerId = "DEBB1CE4-A72D-4960-969E-E04A036D2FA1";
shapes = (
{
closed = 1;
nodes = (
(937,0,l),
(937,130,l),
(769,153,l),
(769,616,l),
(1076,663,o),
(1246,794,o),
(1246,1047,cs),
(1246,1306,o),
(1085,1502,o),
(615,1502,cs),
(371,1502,o),
(241,1466,o),
(99,1462,c),
(112,1026,l),
(315,1026,l),
(382,1313,l),
(405,1336,o),
(465,1360,o),
(566,1360,cs),
(758,1360,o),
(860,1251,o),
(860,1067,cs),
(860,858,o),
(723,736,o),
(426,705,c),
(426,154,l),
(265,132,l),
(265,0,l)
);
}
);
width = 1283;
},
{
layerId = "0E4B6E2E-ECAB-4D06-9686-B0B40AA31834";
shapes = (
{
closed = 1;
nodes = (
(786,0,l),
(786,86,l),
(571,106,l),
(571,658,l),
(892,695,o),
(1105,838,o),
(1105,1090,cs),
(1105,1344,o),
(911,1500,o),
(579,1500,cs),
(331,1500,o),
(160,1449,o),
(87,1436,c),
(103,1110,l),
(207,1110,l),
(251,1342,l),
(284,1371,o),
(374,1399,o),
(563,1403,cs),
(779,1395,o),
(925,1306,o),
(925,1090,cs),
(925,886,o),
(744,759,o),
(407,729,c),
(407,104,l),
(191,86,l),
(191,0,l)
);
}
);
width = 1145;
},
{
layerId = "EA2265BD-E890-48C4-9E90-A53076E780C5";
shapes = (
{
closed = 1;
nodes = (
(896,0,l),
(896,130,l),
(728,153,l),
(728,616,l),
(1035,663,o),
(1205,794,o),
(1205,1047,cs),
(1205,1306,o),
(1044,1502,o),
(574,1502,cs),
(330,1502,o),
(200,1466,o),
(58,1462,c),
(71,1026,l),
(274,1026,l),
(341,1313,l),
(364,1336,o),
(424,1360,o),
(525,1360,cs),
(717,1360,o),
(819,1251,o),
(819,1067,cs),
(819,858,o),
(682,736,o),
(385,705,c),
(385,154,l),
(224,132,l),
(224,0,l)
);
}
);
width = 1225;
},
{
layerId = "779F1615-9D1A-4778-9767-9A030AA58B6C";
shapes = (
{
closed = 1;
nodes = (
(765,0,l),
(765,86,l),
(550,106,l),
(550,658,l),
(871,695,o),
(1084,838,o),
(1084,1090,cs),
(1084,1344,o),
(890,1500,o),
(558,1500,cs),
(310,1500,o),
(139,1449,o),
(66,1436,c),
(82,1110,l),
(186,1110,l),
(230,1342,l),
(263,1371,o),
(353,1399,o),
(542,1403,cs),
(758,1395,o),
(904,1306,o),
(904,1090,cs),
(904,886,o),
(723,759,o),
(386,729,c),
(386,104,l),
(170,86,l),
(170,0,l)
);
}
);
width = 1143;
},
{
layerId = "97BB7961-D669-43AB-8BBF-11FFD0C46A4B";
shapes = (
{
closed = 1;
nodes = (
(935,0,l),
(935,130,l),
(767,153,l),
(767,616,l),
(1074,663,o),
(1244,794,o),
(1244,1047,cs),
(1244,1306,o),
(1083,1502,o),
(613,1502,cs),
(369,1502,o),
(239,1466,o),
(97,1462,c),
(110,1026,l),
(313,1026,l),
(380,1313,l),
(403,1336,o),
(463,1360,o),
(564,1360,cs),
(756,1360,o),
(858,1251,o),
(858,1067,cs),
(858,858,o),
(721,736,o),
(424,705,c),
(424,154,l),
(263,132,l),
(263,0,l)
);
}
);
width = 1294;
},
{
layerId = "C9B9556E-C2FD-4F62-BB40-44923C452C22";
shapes = (
{
closed = 1;
nodes = (
(686,0,l),
(686,36,l),
(550,67,l),
(550,659,l),
(877,722,o),
(1099,838,o),
(1099,1108,cs),
(1099,1344,o),
(912,1502,o),
(550,1502,cs),
(306,1502,o),
(163,1438,o),
(93,1438,c),
(109,1108,l),
(212,1108,l),
(244,1384,l),
(280,1416,o),
(366,1450,o),
(530,1450,cs),
(803,1450,o),
(929,1336,o),
(929,1108,cs),
(929,839,o),
(765,724,o),
(396,692,c),
(396,67,l),
(259,36,l),
(259,0,l)
);
}
);
width = 1128;
},
{
layerId = "184155C8-9F61-4F1C-9784-DDA8EA717636";
shapes = (
{
closed = 1;
nodes = (
(934,0,l),
(934,38,l),
(790,72,l),
(790,666,l),
(1079,712,o),
(1244,838,o),
(1244,1092,cs),
(1244,1349,o),
(1020,1507,o),
(607,1507,cs),
(347,1507,o),
(215,1437,o),
(25,1437,c),
(59,1026,l),
(258,1026,l),
(310,1316,l),
(359,1399,o),
(425,1447,o),
(555,1447,cs),
(711,1447,o),
(814,1335,o),
(814,1092,cs),
(814,816,o),
(664,690,o),
(406,642,c),
(406,72,l),
(262,38,l),
(262,0,l)
);
}
);
width = 1288;
},
{
layerId = "E96AC896-F5DF-475B-BBD9-C7FEC6A86D0E";
shapes = (
{
closed = 1;
nodes = (
(643,0,l),
(643,36,l),
(507,67,l),
(507,659,l),
(834,722,o),
(1056,838,o),
(1056,1108,cs),
(1056,1344,o),
(869,1502,o),
(507,1502,cs),
(263,1502,o),
(120,1438,o),
(50,1438,c),
(66,1108,l),
(169,1108,l),
(201,1384,l),
(237,1416,o),
(323,1450,o),
(487,1450,cs),
(760,1450,o),
(886,1336,o),
(886,1108,cs),
(886,839,o),
(722,724,o),
(353,692,c),
(353,67,l),
(216,36,l),
(216,0,l)
);
}
);
width = 1087;
},
{
layerId = "F2B10EEF-9DDC-48CA-970D-6B8C79870881";
shapes = (
{
closed = 1;
nodes = (
(933,0,l),
(933,38,l),
(789,72,l),
(789,666,l),
(1078,712,o),
(1243,838,o),
(1243,1092,cs),
(1243,1349,o),
(1019,1507,o),
(606,1507,cs),
(346,1507,o),
(214,1437,o),
(24,1437,c),
(58,1026,l),
(257,1026,l),
(309,1316,l),
(358,1399,o),
(424,1447,o),
(554,1447,cs),
(710,1447,o),
(813,1335,o),
(813,1092,cs),
(813,816,o),
(663,690,o),
(405,642,c),
(405,72,l),
(261,38,l),
(261,0,l)
);
}
);
width = 1282;
},
{
layerId = "2103F1D3-C390-4F79-A87D-298F85EA6916";
shapes = (
{
closed = 1;
nodes = (
(683,0,l),
(683,36,l),
(547,67,l),
(547,659,l),
(874,722,o),
(1096,838,o),
(1096,1108,cs),
(1096,1344,o),
(909,1502,o),
(547,1502,cs),
(303,1502,o),
(160,1438,o),
(90,1438,c),
(106,1108,l),
(209,1108,l),
(241,1384,l),
(277,1416,o),
(363,1450,o),
(527,1450,cs),
(800,1450,o),
(926,1336,o),
(926,1108,cs),
(926,839,o),
(762,724,o),
(393,692,c),
(393,67,l),
(256,36,l),
(256,0,l)
);
}
);
width = 1129;
},
{
layerId = "AFA1064D-EFC9-4C9F-B9B0-9118E41D87C4";
shapes = (
{
closed = 1;
nodes = (
(934,0,l),
(934,38,l),
(790,72,l),
(790,666,l),
(1079,712,o),
(1244,838,o),
(1244,1092,cs),
(1244,1349,o),
(1020,1507,o),
(607,1507,cs),
(347,1507,o),
(215,1437,o),
(25,1437,c),
(59,1026,l),
(258,1026,l),
(310,1316,l),
(359,1399,o),
(425,1447,o),
(555,1447,cs),
(711,1447,o),
(814,1335,o),
(814,1092,cs),
(814,816,o),
(664,690,o),
(406,642,c),
(406,72,l),
(262,38,l),
(262,0,l)
);
}
);
width = 1268;
}
);
metricLeft = "=|C";
metricRight = P;
unicode = 577;
}
{
color = 8;
glyphname = eopen;
layers = (
{
anchors = (
{
name = bottom;
pos = (445,0);
},
{
name = top;
pos = (445,1110);
}
);
layerId = UUID0;
shapes = (
{
closed = 1;
nodes = (
(630,-21,o),
(783,34,o),
(869,120,c),
(837,194,l),
(741,123,o),
(620,93,o),
(508,93,cs),
(361,93,o),
(233,163,o),
(233,317,cs),
(233,441,o),
(335,530,o),
(484,550,c),
(543,539,o),
(613,519,o),
(663,501,c),
(663,627,l),
(519,627,l),
(375,635,o),
(260,693,o),
(260,837,cs),
(260,970,o),
(330,1047,o),
(484,1047,cs),
(583,1047,o),
(683,1025,o),
(723,991,c),
(763,794,l),
(861,794,l),
(869,1078,l),
(792,1110,o),
(644,1142,o),
(529,1142,cs),
(287,1142,o),
(82,1013,o),
(82,836,cs),
(82,707,o),
(178,637,o),
(323,603,c),
(143,560,o),
(54,442,o),
(54,301,cs),
(54,80,o),
(240,-21,o),
(485,-21,cs)
);
}
);
width = 889;
},
{
anchors = (
{
name = bottom;
pos = (513,0);
},
{
name = top;
pos = (513,1112);
}
);
background = {
shapes = (
{
closed = 1;
nodes = (
(32,220,o),
(188,-22,o),
(555,-22,cs),
(754,-22,o),
(906,79,o),
(955,133,c),
(903,251,l),
(840,213,o),
(753,175,o),
(629,175,cs),
(479,175,o),
(381,321,o),
(382,607,cs),
(384,902,o),
(466,996,o),
(582,996,cs),
(616,996,o),
(672,984,o),
(680,948,cs),
(732,717,l),
(934,717,l),
(948,1080,l),
(883,1089,o),
(792,1140,o),
(606,1140,cs),
(263,1140,o),
(32,907,o),
(32,548,cs)
);
}
);
};
layerId = "DEBB1CE4-A72D-4960-969E-E04A036D2FA1";
shapes = (
{
closed = 1;
nodes = (
(723,-21,o),
(898,40,o),
(1008,141,c),
(952,262,l),
(867,208,o),
(740,177,o),
(620,177,cs),
(455,177,o),
(384,236,o),
(384,333,cs),
(384,401,o),
(435,465,o),
(510,496,c),
(570,483,o),
(672,449,o),
(723,431,c),
(723,632,l),
(576,632,l),
(471,648,o),
(412,743,o),
(412,847,cs),
(412,958,o),
(474,996,o),
(582,996,cs),
(616,996,o),
(692,984,o),
(700,948,c),
(772,717,l),
(934,717,l),
(949,1112,l),
(844,1123,o),
(703,1142,o),
(540,1142,cs),
(237,1142,o),
(80,1019,o),
(80,833,cs),
(80,726,o),
(173,589,o),
(326,551,c),
(144,508,o),
(52,406,o),
(52,281,cs),
(52,99,o),
(217,-21,o),
(522,-21,cs)
);
}
);
width = 1025;
},
{
anchors = (
{
name = bottom;
pos = (447,0);
},
{
name = top;
pos = (447,1110);
}
);
layerId = "0E4B6E2E-ECAB-4D06-9686-B0B40AA31834";
shapes = (
{
closed = 1;
nodes = (
(650,-21,o),
(803,34,o),
(889,120,c),
(857,194,l),
(761,123,o),
(640,93,o),
(538,93,cs),
(341,93,o),
(233,163,o),
(233,317,cs),
(233,441,o),
(335,530,o),
(484,550,c),
(543,539,o),
(613,519,o),
(663,501,c),
(663,627,l),
(519,627,l),
(375,635,o),
(260,693,o),
(260,837,cs),
(260,970,o),
(330,1047,o),
(484,1047,cs),
(583,1047,o),
(683,1025,o),
(723,991,c),
(763,794,l),
(861,794,l),
(869,1078,l),
(792,1110,o),
(644,1142,o),
(529,1142,cs),
(287,1142,o),
(82,1013,o),
(82,836,cs),
(82,707,o),
(178,637,o),
(323,603,c),
(143,560,o),
(54,442,o),
(54,301,cs),
(54,80,o),
(220,-21,o),
(515,-21,cs)
);
}
);
width = 894;
},
{
anchors = (
{
name = bottom;
pos = (508,0);
},
{
name = top;
pos = (508,1112);
}
);
layerId = "EA2265BD-E890-48C4-9E90-A53076E780C5";
shapes = (
{
closed = 1;
nodes = (
(719,-21,o),
(894,40,o),
(1004,141,c),
(948,262,l),
(863,208,o),
(736,177,o),
(616,177,cs),
(451,177,o),
(380,236,o),
(380,333,cs),
(380,401,o),
(431,465,o),
(506,496,c),
(566,483,o),
(668,449,o),
(719,431,c),
(719,632,l),
(572,632,l),
(467,648,o),
(408,743,o),
(408,847,cs),
(408,958,o),
(470,996,o),
(578,996,cs),
(612,996,o),
(668,984,o),
(676,948,c),
(728,717,l),
(930,717,l),
(945,1112,l),
(840,1123,o),
(699,1142,o),
(536,1142,cs),
(233,1142,o),
(76,1019,o),
(76,833,cs),
(76,726,o),
(169,589,o),
(322,551,c),
(140,508,o),
(48,406,o),
(48,281,cs),
(48,99,o),
(213,-21,o),
(518,-21,cs)
);
}
);
width = 1015;
},
{
anchors = (
{
name = bottom;
pos = (453,0);
},
{
name = top;
pos = (453,1110);
}
);
layerId = "779F1615-9D1A-4778-9767-9A030AA58B6C";
shapes = (
{
closed = 1;
nodes = (
(654,-21,o),
(807,34,o),
(893,120,c),
(861,194,l),
(765,123,o),
(644,93,o),
(542,93,cs),
(345,93,o),
(237,163,o),
(237,317,cs),
(237,441,o),
(339,530,o),
(488,550,c),
(547,539,o),
(617,519,o),
(667,501,c),
(667,627,l),
(523,627,l),
(379,635,o),
(264,693,o),
(264,837,cs),
(264,970,o),
(334,1047,o),
(488,1047,cs),
(587,1047,o),
(687,1025,o),
(727,991,c),
(767,794,l),
(865,794,l),
(873,1078,l),
(796,1110,o),
(648,1142,o),
(533,1142,cs),
(291,1142,o),
(86,1013,o),
(86,836,cs),
(86,707,o),
(182,637,o),
(327,603,c),
(147,560,o),
(58,442,o),
(58,301,cs),
(58,80,o),
(224,-21,o),
(519,-21,cs)
);
}
);
width = 905;
},
{
anchors = (
{
name = bottom;
pos = (502,0);
},
{
name = top;
pos = (502,1112);
}
);
layerId = "97BB7961-D669-43AB-8BBF-11FFD0C46A4B";
shapes = (
{
closed = 1;
nodes = (
(719,-21,o),
(894,40,o),
(1004,141,c),
(948,262,l),
(863,208,o),
(736,177,o),
(616,177,cs),
(451,177,o),
(380,236,o),
(380,333,cs),
(380,401,o),
(431,465,o),
(506,496,c),
(566,483,o),
(668,449,o),
(719,431,c),
(719,632,l),
(572,632,l),
(467,648,o),
(408,743,o),
(408,847,cs),
(408,958,o),
(470,996,o),
(578,996,cs),
(612,996,o),
(688,984,o),
(696,948,c),
(768,717,l),
(930,717,l),
(945,1112,l),
(840,1123,o),
(699,1142,o),
(536,1142,cs),
(233,1142,o),
(76,1019,o),
(76,833,cs),
(76,726,o),
(169,589,o),
(322,551,c),
(140,508,o),
(48,406,o),
(48,281,cs),
(48,99,o),
(213,-21,o),
(518,-21,cs)
);
}
);
width = 1004;
},
{
anchors = (
{
name = bottom;
pos = (418,0);
},
{
name = top;
pos = (418,1005);
}
);
background = {
shapes = (
{
closed = 1;
nodes = (
(48,183,o),
(212,-22,o),
(489,-22,cs),
(613,-22,o),
(741,31,o),
(808,98,c),
(787,134,l),
(733,93,o),
(624,47,o),
(514,47,cs),
(316,47,o),
(210,235,o),
(210,517,cs),
(210,815,o),
(366,989,o),
(515,989,cs),
(650,989,o),
(682,933,o),
(686,913,cs),
(726,722,l),
(802,722,l),
(809,979,l),
(773,988,o),
(658,1039,o),
(553,1039,cs),
(258,1039,o),
(48,793,o),
(48,493,cs)
);
}
);
};
layerId = "C9B9556E-C2FD-4F62-BB40-44923C452C22";
shapes = (
{
closed = 1;
nodes = (
(598,-21,o),
(740,35,o),
(812,105,c),
(792,144,l),
(705,79,o),
(598,45,o),
(500,45,cs),
(320,45,o),
(212,112,o),
(212,274,cs),
(212,401,o),
(313,493,o),
(465,515,c),
(517,505,o),
(569,493,o),
(628,477,c),
(628,568,l),
(471,568,l),
(330,587,o),
(240,650,o),
(240,780,cs),
(240,907,o),
(319,987,o),
(466,987,cs),
(559,987,o),
(633,965,o),
(674,931,c),
(716,721,l),
(793,721,l),
(801,961,l),
(728,996,o),
(587,1037,o),
(477,1037,cs),
(229,1037,o),
(78,943,o),
(78,780,cs),
(78,635,o),
(178,574,o),
(351,548,c),
(158,515,o),
(50,403,o),
(50,263,cs),
(50,83,o),
(196,-21,o),
(471,-21,cs)
);
}
);
width = 835;
},
{
anchors = (
{
name = bottom;
pos = (439,0);
},
{
name = top;
pos = (439,1005);
}
);
background = {
shapes = (
{
closed = 1;
nodes = (
(52,187,o),
(207,-22,o),
(519,-22,cs),
(682,-22,o),
(849,67,o),
(901,128,c),
(876,184,l),
(823,141,o),
(729,118,o),
(677,118,cs),
(529,118,o),
(421,230,o),
(421,547,cs),
(421,870,o),
(476,987,o),
(576,987,cs),
(623,987,o),
(649,925,o),
(665,856,cs),
(707,673,l),
(885,673,l),
(897,971,l),
(830,979,o),
(755,1042,o),
(567,1042,cs),
(259,1042,o),
(52,830,o),
(52,488,cs)
);
}
);
};
layerId = "184155C8-9F61-4F1C-9784-DDA8EA717636";
shapes = (
{
closed = 1;
nodes = (
(638,-24,o),
(810,37,o),
(906,126,c),
(880,182,l),
(799,139,o),
(716,116,o),
(635,116,cs),
(459,116,o),
(383,183,o),
(383,300,cs),
(383,399,o),
(426,458,o),
(489,499,c),
(556,477,o),
(635,448,o),
(692,422,c),
(692,560,l),
(509,560,l),
(462,598,o),
(401,642,o),
(401,799,cs),
(401,920,o),
(452,986,o),
(536,986,cs),
(590,986,o),
(651,925,o),
(665,856,c),
(714,674,l),
(884,674,l),
(892,992,l),
(787,1003,o),
(681,1042,o),
(500,1042,cs),
(172,1042,o),
(59,910,o),
(59,772,cs),
(59,653,o),
(142,555,o),
(325,534,c),
(130,491,o),
(31,399,o),
(31,250,cs),
(31,85,o),
(169,-24,o),
(469,-24,cs)
);
}
);
width = 877;
},
{
anchors = (
{
name = bottom;
pos = (402,0);
},
{
name = top;
pos = (402,1005);
}
);
layerId = "E96AC896-F5DF-475B-BBD9-C7FEC6A86D0E";
shapes = (
{
closed = 1;
nodes = (
(591,-21,o),
(733,35,o),
(805,105,c),
(785,144,l),
(698,79,o),
(591,45,o),
(493,45,cs),
(313,45,o),
(205,112,o),
(205,274,cs),
(205,401,o),
(306,493,o),
(458,515,c),
(510,505,o),
(562,493,o),
(621,477,c),
(621,568,l),
(464,568,l),
(323,587,o),
(233,650,o),
(233,780,cs),
(233,907,o),
(312,987,o),
(459,987,cs),
(552,987,o),
(626,965,o),
(667,931,c),
(709,721,l),
(786,721,l),
(794,961,l),
(721,996,o),
(580,1037,o),
(470,1037,cs),
(222,1037,o),
(71,943,o),
(71,780,cs),
(71,635,o),
(171,574,o),
(344,548,c),
(151,515,o),
(43,403,o),
(43,263,cs),
(43,83,o),
(189,-21,o),
(464,-21,cs)
);
}
);
width = 803;
},
{
anchors = (
{
name = bottom;
pos = (442,0);
},
{
name = top;
pos = (442,1005);
}
);
layerId = "F2B10EEF-9DDC-48CA-970D-6B8C79870881";
shapes = (
{
closed = 1;
nodes = (
(640,-24,o),
(812,37,o),
(908,126,c),
(882,182,l),
(801,139,o),
(718,116,o),
(637,116,cs),
(461,116,o),
(385,183,o),
(385,300,cs),
(385,399,o),
(428,458,o),
(491,499,c),
(558,477,o),
(637,448,o),
(694,422,c),
(694,560,l),
(511,560,l),
(464,598,o),
(403,642,o),
(403,799,cs),
(403,920,o),
(454,986,o),
(538,986,cs),
(592,986,o),
(653,925,o),
(667,856,c),
(716,674,l),
(886,674,l),
(894,992,l),
(789,1003,o),
(683,1042,o),
(502,1042,cs),
(174,1042,o),
(61,910,o),
(61,772,cs),
(61,653,o),
(144,555,o),
(327,534,c),
(132,491,o),
(33,399,o),
(33,250,cs),
(33,85,o),
(171,-24,o),
(471,-24,cs)
);
}
);
width = 884;
},
{
anchors = (
{
name = bottom;
pos = (411,0);
},
{
name = top;
pos = (411,1005);
}
);
layerId = "2103F1D3-C390-4F79-A87D-298F85EA6916";
shapes = (
{
closed = 1;
nodes = (
(588,-21,o),
(730,35,o),
(802,105,c),
(782,144,l),
(695,79,o),
(588,45,o),
(490,45,cs),
(310,45,o),
(202,112,o),
(202,274,cs),
(202,401,o),
(303,493,o),
(455,515,c),
(507,505,o),
(559,493,o),
(618,477,c),
(618,568,l),
(461,568,l),
(320,587,o),
(230,650,o),
(230,780,cs),
(230,907,o),
(309,987,o),
(456,987,cs),
(549,987,o),
(623,965,o),
(664,931,c),
(706,721,l),
(783,721,l),
(791,961,l),
(718,996,o),
(577,1037,o),
(467,1037,cs),
(219,1037,o),
(68,943,o),
(68,780,cs),
(68,635,o),
(168,574,o),
(341,548,c),
(148,515,o),
(40,403,o),
(40,263,cs),
(40,83,o),
(186,-21,o),
(461,-21,cs)
);
}
);
width = 822;
},
{
anchors = (
{
name = bottom;
pos = (430,0);
},
{
name = top;
pos = (430,1005);
}
);
layerId = "AFA1064D-EFC9-4C9F-B9B0-9118E41D87C4";
shapes = (
{
closed = 1;
nodes = (
(631,-24,o),
(803,37,o),
(899,126,c),
(873,182,l),
(792,139,o),
(709,116,o),
(628,116,cs),
(452,116,o),
(376,183,o),
(376,300,cs),
(376,399,o),
(419,458,o),
(482,499,c),
(549,477,o),
(628,448,o),
(685,422,c),
(685,560,l),
(502,560,l),
(455,598,o),
(394,642,o),
(394,799,cs),
(394,920,o),
(445,986,o),
(529,986,cs),
(583,986,o),
(644,925,o),
(658,856,c),
(707,674,l),
(877,674,l),
(885,992,l),
(780,1003,o),
(674,1042,o),
(493,1042,cs),
(165,1042,o),
(52,910,o),
(52,772,cs),
(52,653,o),
(135,555,o),
(318,534,c),
(123,491,o),
(24,399,o),
(24,250,cs),
(24,85,o),
(162,-24,o),
(462,-24,cs)
);
}
);
width = 859;
}
);
metricLeft = o;
metricRight = x;
unicode = 603;
}
{
color = 2;
glyphname = ramshorn;
layers = (
{
background = {
shapes = (
{
closed = 1;
nodes = (
(701,-26,o),
(793,49,o),
(793,180,cs),
(793,261,o),
(745,356,o),
(638,578,c),
(600,654,l),
(491,923,o),
(429,1134,o),
(243,1134,c),
(209,1042,l),
(270,1042,o),
(362,830,o),
(497,515,c),
(539,442,l),
(614,288,o),
(643,233,o),
(643,166,cs),
(643,96,o),
(602,68,o),
(552,68,cs),
(502,68,o),
(461,98,o),
(461,166,cs),
(461,224,o),
(490,289,o),
(575,446,c),
(634,533,l),
(764,842,o),
(817,1042,o),
(925,1042,c),
(911,1134,l),
(785,1134,o),
(719,1044,o),
(637,836,c),
(571,621,l),
(502,547,l),
(404,360,o),
(353,261,o),
(353,180,cs),
(353,51,o),
(430,-26,o),
(574,-26,cs)
);
},
{
closed = 1;
nodes = (
(1450,1221,o),
(1394,1153,o),
(1344,1084,cs),
(1002,606,l),
(1108,480,l),
(1488,971,ls),
(1518,1009,o),
(1553,1037,o),
(1587,1037,cs),
(1634,1037,o),
(1657,1016,o),
(1686,989,c),
(1735,1054,l),
(1708,1128,o),
(1648,1221,o),
(1531,1221,cs)
);
}
);
};
layerId = UUID0;
shapes = (
{
closed = 1;
nodes = (
(706,-22,o),
(818,53,o),
(818,184,cs),
(818,265,o),
(767,366,o),
(653,588,c),
(801,864,ls),
(849,953,o),
(882,982,o),
(945,982,cs),
(984,982,o),
(1010,974,o),
(1047,931,c),
(1099,986,l),
(1064,1069,o),
(1023,1140,o),
(916,1137,cs),
(820,1134,o),
(757,1055,o),
(723,988,cs),
(574,698,l),
(429,988,ls),
(392,1061,o),
(343,1138,o),
(224,1138,cs),
(119,1138,o),
(65,1059,o),
(20,986,c),
(63,931,l),
(111,964,o),
(132,982,o),
(174,982,cs),
(205,982,o),
(242,964,o),
(264,926,cs),
(480,558,l),
(353,330,o),
(340,254,o),
(340,184,cs),
(340,55,o),
(419,-22,o),
(571,-22,cs)
);
},
{
closed = 1;
nodes = (
(498,71,o),
(455,102,o),
(455,170,cs),
(455,221,o),
(480,307,o),
(548,432,c),
(620,293,o),
(648,234,o),
(648,170,cs),
(648,100,o),
(604,71,o),
(551,71,cs)
);
}
);
width = 1119;
},
{
layerId = "DEBB1CE4-A72D-4960-969E-E04A036D2FA1";
shapes = (
{
closed = 1;
nodes = (
(808,-22,o),
(985,38,o),
(985,242,cs),
(985,394,o),
(904,515,o),
(776,739,c),
(844,838,ls),
(897,915,o),
(951,944,o),
(1012,944,cs),
(1064,944,o),
(1112,940,o),
(1172,864,c),
(1252,963,l),
(1209,1078,o),
(1136,1137,o),
(1023,1137,cs),
(907,1137,o),
(845,1092,o),
(782,997,cs),
(692,860,l),
(624,972,ls),
(546,1101,o),
(485,1142,o),
(320,1142,cs),
(208,1142,o),
(86,1069,o),
(35,963,c),
(114,864,l),
(143,920,o),
(190,944,o),
(219,944,cs),
(249,944,o),
(284,905,o),
(305,872,cs),
(474,607,l),
(335,406,o),
(295,315,o),
(295,225,cs),
(295,81,o),
(395,-22,o),
(610,-22,cs)
);
},
{
closed = 1;
nodes = (
(510,115,o),
(477,150,o),
(477,225,cs),
(477,287,o),
(499,355,o),
(557,455,c),
(634,309,o),
(645,271,o),
(645,225,cs),
(645,151,o),
(611,115,o),
(560,115,cs)
);
}
);
width = 1287;
},
{
background = {
shapes = (
{
closed = 1;
nodes = (
(607,-22,o),
(671,32,o),
(671,154,cs),
(671,236,o),
(641,321,o),
(551,480,c),
(753,853,ls),
(772,888,o),
(808,907,o),
(860,907,cs),
(900,907,o),
(920,890,o),
(955,847,c),
(988,881,l),
(945,956,o),
(894,1036,o),
(795,1036,cs),
(683,1036,o),
(652,960,o),
(613,889,c),
(472,619,l),
(336,889,l),
(302,955,o),
(244,1032,o),
(153,1035,cs),
(54,1038,o),
(14,958,o),
(-9,884,c),
(25,843,l),
(70,896,o),
(107,908,o),
(153,908,cs),
(199,908,o),
(233,881,o),
(270,828,c),
(429,568,l),
(319,367,o),
(283,304,o),
(283,188,cs),
(283,52,o),
(382,-22,o),
(493,-22,cs)
);
},
{
closed = 1;
nodes = (
(460,32,o),
(420,65,o),
(420,139,cs),
(420,215,o),
(439,285,o),
(515,425,c),
(584,292,o),
(600,228,o),
(600,153,cs),
(600,71,o),
(565,32,o),
(511,32,cs)
);
}
);
};
layerId = "C9B9556E-C2FD-4F62-BB40-44923C452C22";
shapes = (
{
closed = 1;
nodes = (
(593,-22,o),
(696,52,o),
(696,188,cs),
(696,304,o),
(653,363,o),
(543,564,c),
(709,828,ls),
(743,883,o),
(786,908,o),
(822,908,cs),
(868,908,o),
(894,896,o),
(939,843,c),
(973,884,l),
(950,966,o),
(900,1038,o),
(816,1035,cs),
(731,1032,o),
(688,974,o),
(645,889,cs),
(507,617,l),
(375,889,ls),
(340,962,o),
(302,1036,o),
(190,1036,cs),
(88,1036,o),
(28,966,o),
(5,881,c),
(38,847,l),
(84,896,o),
(114,908,o),
(156,908,cs),
(187,908,o),
(214,888,o),
(241,836,cs),
(428,480,l),
(338,321,o),
(303,244,o),
(303,162,cs),
(303,40,o),
(368,-22,o),
(482,-22,cs)
);
},
{
closed = 1;
nodes = (
(414,32,o),
(374,79,o),
(374,161,cs),
(374,236,o),
(395,292,o),
(464,425,c),
(540,285,o),
(559,215,o),
(559,139,cs),
(559,65,o),
(519,32,o),
(468,32,cs)
);
}
);
width = 978;
},
{
background = {
shapes = (
{
closed = 1;
nodes = (
(744,-22,o),
(835,67,o),
(835,209,cs),
(835,299,o),
(809,377,o),
(690,556,c),
(875,840,ls),
(898,875,o),
(925,898,o),
(953,898,cs),
(972,898,o),
(1002,888,o),
(1029,825,c),
(1062,857,l),
(1016,983,o),
(938,1043,o),
(771,1043,cs),
(625,1043,o),
(577,983,o),
(493,861,c),
(473,826,l),
(403,927,l),
(325,1028,o),
(282,1043,o),
(216,1043,cs),
(109,1043,o),
(42,976,o),
(36,857,c),
(66,825,l),
(101,908,o),
(150,927,o),
(209,927,cs),
(264,927,o),
(313,910,o),
(374,829,cs),
(431,754,l),
(285,503,o),
(242,446,o),
(242,292,cs),
(242,89,o),
(374,-22,o),
(605,-22,cs)
);
},
{
closed = 1;
nodes = (
(584,85,o),
(543,101,o),
(543,189,cs),
(543,251,o),
(572,324,o),
(651,486,c),
(724,367,o),
(741,292,o),
(741,215,cs),
(741,137,o),
(699,85,o),
(628,85,cs)
);
}
);
};
layerId = "184155C8-9F61-4F1C-9784-DDA8EA717636";
shapes = (
{
closed = 1;
nodes = (
(735,-22,o),
(877,89,o),
(877,241,cs),
(877,402,o),
(810,515,o),
(674,766,c),
(706,805,ls),
(771,884,o),
(851,898,o),
(910,898,cs),
(972,898,o),
(1029,876,o),
(1066,825,c),
(1095,857,l),
(1094,942,o),
(1044,1043,o),
(920,1043,cs),
(810,1043,o),
(750,988,o),
(676,889,cs),
(630,826,l),
(609,861,ls),
(520,983,o),
(484,1043,o),
(321,1043,cs),
(149,1043,o),
(54,964,o),
(5,857,c),
(36,825,l),
(65,888,o),
(111,898,o),
(137,898,cs),
(171,898,o),
(203,876,o),
(224,840,cs),
(399,543,l),
(273,364,o),
(248,299,o),
(248,209,cs),
(248,67,o),
(342,-22,o),
(532,-22,cs)
);
},
{
closed = 1;
nodes = (
(377,85,o),
(348,137,o),
(348,215,cs),
(348,292,o),
(363,354,o),
(441,473,c),
(490,379,o),
(542,289,o),
(542,215,cs),
(542,146,o),
(523,85,o),
(448,85,cs)
);
}
);
width = 1100;
},
{
layerId = "0E4B6E2E-ECAB-4D06-9686-B0B40AA31834";
shapes = (
{
closed = 1;
nodes = (
(599,-22,o),
(703,53,o),
(703,184,cs),
(703,264,o),
(656,366,o),
(558,588,c),
(672,864,l),
(711,954,o),
(742,982,o),
(795,982,cs),
(829,982,o),
(869,974,o),
(903,931,c),
(951,986,l),
(921,1069,o),
(881,1140,o),
(777,1137,cs),
(693,1135,o),
(640,1056,o),
(608,988,cs),
(490,698,l),
(377,987,ls),
(341,1060,o),
(299,1138,o),
(191,1138,cs),
(99,1138,o),
(42,1059,o),
(3,986,c),
(45,931,l),
(82,964,o),
(103,982,o),
(140,982,cs),
(168,982,o),
(200,965,o),
(218,926,cs),
(393,558,l),
(284,330,o),
(269,253,o),
(269,184,cs),
(269,55,o),
(339,-22,o),
(476,-22,cs)
);
},
{
closed = 1;
nodes = (
(411,71,o),
(376,102,o),
(376,170,cs),
(376,222,o),
(397,307,o),
(453,432,c),
(514,293,o),
(535,233,o),
(535,170,cs),
(535,100,o),
(499,71,o),
(455,71,cs)
);
}
);
width = 954;
},
{
layerId = "EA2265BD-E890-48C4-9E90-A53076E780C5";
shapes = (
{
closed = 1;
nodes = (
(730,-22,o),
(900,38,o),
(900,242,cs),
(900,393,o),
(823,515,o),
(709,739,c),
(750,836,ls),
(786,921,o),
(847,944,o),
(897,944,cs),
(944,944,o),
(987,940,o),
(1044,864,c),
(1121,963,l),
(1082,1078,o),
(1009,1137,o),
(917,1137,cs),
(812,1137,o),
(758,1092,o),
(700,995,cs),
(635,860,l),
(589,969,ls),
(518,1100,o),
(452,1142,o),
(298,1142,cs),
(176,1142,o),
(42,1068,o),
(-3,963,c),
(75,864,l),
(94,919,o),
(141,944,o),
(186,944,cs),
(229,944,o),
(248,928,o),
(281,872,cs),
(414,607,l),
(291,406,o),
(250,314,o),
(250,225,cs),
(250,81,o),
(342,-22,o),
(543,-22,cs)
);
},
{
closed = 1;
nodes = (
(450,115,o),
(424,150,o),
(424,225,cs),
(424,285,o),
(442,355,o),
(490,455,c),
(557,309,o),
(562,271,o),
(562,225,cs),
(562,151,o),
(535,115,o),
(492,115,cs)
);
}
);
width = 1118;
},
{
background = {
shapes = (
{
closed = 1;
nodes = (
(559,-22,o),
(619,40,o),
(619,162,cs),
(619,244,o),
(590,321,o),
(508,480,c),
(667,836,ls),
(690,888,o),
(714,908,o),
(741,908,cs),
(780,908,o),
(806,891,o),
(840,847,c),
(868,881,l),
(845,966,o),
(788,1036,o),
(692,1036,cs),
(589,1036,o),
(547,966,o),
(519,889,cs),
(420,617,l),
(312,888,ls),
(277,976,o),
(233,1032,o),
(150,1035,cs),
(61,1038,o),
(26,967,o),
(9,884,c),
(37,843,l),
(75,896,o),
(105,908,o),
(147,908,cs),
(189,908,o),
(234,890,o),
(263,828,cs),
(388,564,l),
(290,363,o),
(250,303,o),
(250,188,cs),
(250,52,o),
(344,-22,o),
(451,-22,cs)
);
},
{
closed = 1;
nodes = (
(426,32,o),
(394,65,o),
(394,139,cs),
(394,213,o),
(414,285,o),
(476,425,c),
(537,292,o),
(554,235,o),
(554,161,cs),
(554,79,o),
(521,32,o),
(472,32,cs)
);
}
);
};
layerId = "E96AC896-F5DF-475B-BBD9-C7FEC6A86D0E";
shapes = (
{
closed = 1;
nodes = (
(533,-22,o),
(627,52,o),
(627,188,cs),
(627,303,o),
(587,363,o),
(489,564,c),
(614,828,ls),
(643,890,o),
(688,908,o),
(730,908,cs),
(772,908,o),
(802,896,o),
(840,843,c),
(868,884,l),
(851,967,o),
(776,1034,o),
(716,1034,cs),
(645,1034,o),
(600,976,o),
(565,888,cs),
(457,617,l),
(358,889,ls),
(330,966,o),
(288,1036,o),
(185,1036,cs),
(89,1036,o),
(32,966,o),
(9,881,c),
(37,847,l),
(71,891,o),
(97,908,o),
(136,908,cs),
(163,908,o),
(187,888,o),
(210,836,cs),
(369,480,l),
(287,321,o),
(258,244,o),
(258,162,cs),
(258,40,o),
(318,-22,o),
(426,-22,cs)
);
},
{
closed = 1;
nodes = (
(356,32,o),
(323,79,o),
(323,161,cs),
(323,235,o),
(340,292,o),
(401,425,c),
(463,285,o),
(483,213,o),
(483,139,cs),
(483,65,o),
(451,32,o),
(405,32,cs)
);
}
);
width = 877;
},
{
layerId = "F2B10EEF-9DDC-48CA-970D-6B8C79870881";
shapes = (
{
closed = 1;
nodes = (
(686,-22,o),
(822,89,o),
(822,241,cs),
(822,401,o),
(757,521,o),
(630,772,c),
(644,800,ls),
(688,889,o),
(775,898,o),
(831,898,cs),
(890,898,o),
(926,876,o),
(958,825,c),
(983,857,l),
(986,942,o),
(939,1043,o),
(843,1043,cs),
(742,1043,o),
(678,994,o),
(618,885,cs),
(603,858,l),
(599,850,l),
(510,972,o),
(469,1043,o),
(313,1043,cs),
(145,1043,o),
(52,964,o),
(3,857,c),
(30,825,l),
(54,888,o),
(100,898,o),
(118,898,cs),
(149,898,o),
(177,876,o),
(196,840,cs),
(351,543,l),
(231,364,o),
(210,299,o),
(210,209,cs),
(210,67,o),
(301,-22,o),
(486,-22,cs)
);
},
{
closed = 1;
nodes = (
(330,85,o),
(306,137,o),
(306,215,cs),
(306,291,o),
(318,354,o),
(390,473,c),
(430,376,o),
(482,270,o),
(482,213,cs),
(482,144,o),
(469,85,o),
(397,85,cs)
);
}
);
width = 986;
},
{
layerId = "779F1615-9D1A-4778-9767-9A030AA58B6C";
shapes = (
{
closed = 1;
nodes = (
(655,-22,o),
(767,53,o),
(767,184,cs),
(767,265,o),
(716,366,o),
(602,588,cs),
(750,864,ls),
(797,954,o),
(831,982,o),
(894,982,cs),
(933,982,o),
(979,974,o),
(1016,931,cs),
(1068,986,ls),
(1033,1069,o),
(992,1140,o),
(865,1137,cs),
(769,1135,o),
(706,1055,o),
(672,988,cs),
(523,698,ls),
(378,988,ls),
(339,1060,o),
(292,1138,o),
(173,1138,cs),
(68,1138,o),
(14,1059,o),
(-31,986,cs),
(12,931,ls),
(60,964,o),
(81,982,o),
(123,982,cs),
(154,982,o),
(189,963,o),
(213,926,cs),
(429,558,ls),
(302,330,o),
(289,254,o),
(289,184,cs),
(289,55,o),
(368,-22,o),
(520,-22,cs)
);
},
{
closed = 1;
nodes = (
(447,71,o),
(404,102,o),
(404,170,cs),
(404,221,o),
(429,307,o),
(497,432,cs),
(569,293,o),
(597,234,o),
(597,170,cs),
(597,100,o),
(553,71,o),
(500,71,cs)
);
}
);
width = 1037;
},
{
layerId = "97BB7961-D669-43AB-8BBF-11FFD0C46A4B";
shapes = (
{
closed = 1;
nodes = (
(803,-22,o),
(980,38,o),
(980,242,cs),
(980,394,o),
(899,515,o),
(771,739,cs),
(839,838,ls),
(893,914,o),
(946,944,o),
(1007,944,cs),
(1059,944,o),
(1107,940,o),
(1167,864,cs),
(1247,963,ls),
(1204,1078,o),
(1131,1137,o),
(1018,1137,cs),
(902,1137,o),
(840,1092,o),
(777,997,cs),
(687,860,ls),
(619,972,ls),
(539,1100,o),
(470,1142,o),
(305,1142,cs),
(173,1142,o),
(41,1069,o),
(-10,963,cs),
(69,864,ls),
(98,920,o),
(145,944,o),
(194,944,cs),
(240,944,o),
(264,928,o),
(300,872,cs),
(469,607,ls),
(330,406,o),
(290,315,o),
(290,225,cs),
(290,81,o),
(390,-22,o),
(605,-22,cs)
);
},
{
closed = 1;
nodes = (
(505,115,o),
(472,150,o),
(472,225,cs),
(472,287,o),
(494,355,o),
(552,455,cs),
(629,309,o),
(640,271,o),
(640,225,cs),
(640,151,o),
(606,115,o),
(555,115,cs)
);
}
);
width = 1237;
},
{
layerId = "2103F1D3-C390-4F79-A87D-298F85EA6916";
shapes = (
{
closed = 1;
nodes = (
(602,-22,o),
(705,52,o),
(705,188,cs),
(705,304,o),
(662,363,o),
(552,564,cs),
(718,828,ls),
(755,881,o),
(795,908,o),
(841,908,cs),
(887,908,o),
(918,896,o),
(963,843,cs),
(997,884,ls),
(974,966,o),
(934,1038,o),
(835,1035,cs),
(740,1032,o),
(698,974,o),
(654,889,cs),
(516,617,ls),
(384,889,ls),
(345,960,o),
(311,1036,o),
(199,1036,cs),
(97,1036,o),
(37,966,o),
(14,881,cs),
(47,847,ls),
(93,896,o),
(123,908,o),
(165,908,cs),
(196,908,o),
(222,888,o),
(250,836,cs),
(437,480,ls),
(347,321,o),
(312,244,o),
(312,162,cs),
(312,40,o),
(377,-22,o),
(491,-22,cs)
);
},
{
closed = 1;
nodes = (
(423,32,o),
(383,79,o),
(383,161,cs),
(383,236,o),
(404,292,o),
(473,425,cs),
(549,285,o),
(568,215,o),
(568,139,cs),
(568,65,o),
(528,32,o),
(477,32,cs)
);
}
);
width = 1011;
},
{
layerId = "AFA1064D-EFC9-4C9F-B9B0-9118E41D87C4";
shapes = (
{
closed = 1;
nodes = (
(730,-22,o),
(872,89,o),
(872,241,cs),
(872,402,o),
(805,515,o),
(669,766,c),
(701,805,ls),
(766,884,o),
(846,898,o),
(905,898,cs),
(967,898,o),
(1024,876,o),
(1061,825,c),
(1090,857,l),
(1089,942,o),
(1039,1043,o),
(915,1043,cs),
(805,1043,o),
(745,988,o),
(671,889,c),
(625,826,l),
(604,861,l),
(515,983,o),
(479,1043,o),
(316,1043,cs),
(144,1043,o),
(49,964,o),
(0,857,c),
(31,825,l),
(60,888,o),
(106,898,o),
(132,898,cs),
(166,898,o),
(198,876,o),
(219,840,cs),
(394,543,l),
(268,364,o),
(243,299,o),
(243,209,cs),
(243,67,o),
(337,-22,o),
(527,-22,cs)
);
},
{
closed = 1;
nodes = (
(372,85,o),
(343,137,o),
(343,215,cs),
(343,292,o),
(358,354,o),
(436,473,c),
(485,379,o),
(537,289,o),
(537,215,cs),
(537,146,o),
(518,85,o),
(443,85,cs)
);
}
);
width = 1090;
}
);
metricRight = "=|";
unicode = 612;
}
{
color = 8;
glyphname = glottalstop;
layers = (
{
background = {
shapes = (
{
closed = 1;
nodes = (
(538,0,l),
(538,86,l),
(344,100,l),
(344,774,l),
(471,800,o),
(672,892,o),
(672,1210,cs),
(672,1456,o),
(398,1652,o),
(142,1652,cs),
(52,1652,o),
(14,1646,o),
(-30,1636,c),
(-30,1472,l),
(8,1488,o),
(114,1508,o),
(208,1508,cs),
(408,1508,o),
(510,1424,o),
(510,1239,cs),
(510,914,o),
(360,835,o),
(184,835,c),
(182,102,l),
(-14,86,l),
(-14,0,l)
);
}
);
};
layerId = UUID0;
shapes = (
{
closed = 1;
nodes = (
(640,0,l),
(640,86,l),
(446,100,l),
(446,784,l),
(642,848,o),
(804,960,o),
(804,1200,cs),
(804,1472,o),
(575,1652,o),
(243,1652,cs),
(151,1652,o),
(85,1638,o),
(32,1615,c),
(32,1451,l),
(113,1481,o),
(199,1508,o),
(327,1508,cs),
(581,1508,o),
(642,1433,o),
(642,1205,cs),
(642,963,o),
(494,862,o),
(286,838,c),
(284,102,l),
(88,86,l),
(88,0,l)
);
}
);
width = 834;
},
{
background = {
shapes = (
{
closed = 1;
nodes = (
(627,0,l),
(627,132,l),
(466,150,l),
(464,670,l),
(673,740,o),
(820,975,o),
(820,1186,cs),
(820,1537,o),
(528,1676,o),
(144,1676,cs),
(50,1676,o),
(1,1670,o),
(-40,1658,c),
(-39,1386,l),
(1,1418,o),
(78,1434,o),
(202,1434,cs),
(467,1434,o),
(494,1374,o),
(494,1215,cs),
(494,981,o),
(434,860,o),
(134,860,c),
(136,151,l),
(-10,132,l),
(-10,0,l)
);
}
);
};
layerId = "DEBB1CE4-A72D-4960-969E-E04A036D2FA1";
shapes = (
{
closed = 1;
nodes = (
(754,0,l),
(754,132,l),
(576,150,l),
(574,730,l),
(784,782,o),
(960,876,o),
(960,1168,cs),
(960,1456,o),
(703,1676,o),
(310,1676,cs),
(172,1676,o),
(85,1657,o),
(20,1622,c),
(21,1326,l),
(84,1376,o),
(172,1424,o),
(336,1424,cs),
(550,1424,o),
(614,1357,o),
(614,1172,cs),
(614,930,o),
(484,826,o),
(244,790,c),
(246,151,l),
(80,132,l),
(80,0,l)
);
}
);
width = 982;
},
{
layerId = "0E4B6E2E-ECAB-4D06-9686-B0B40AA31834";
shapes = (
{
closed = 1;
nodes = (
(536,0,l),
(536,86,l),
(342,100,l),
(342,724,l),
(469,750,o),
(670,892,o),
(670,1210,cs),
(670,1456,o),
(396,1652,o),
(170,1652,cs),
(80,1652,o),
(42,1646,o),
(-2,1636,c),
(-2,1472,l),
(36,1488,o),
(142,1508,o),
(236,1508,cs),
(406,1508,o),
(508,1424,o),
(508,1239,cs),
(508,914,o),
(342,835,o),
(187,835,c),
(185,102,l),
(-10,86,l),
(-10,0,l)
);
}
);
width = 740;
},
{
layerId = "EA2265BD-E890-48C4-9E90-A53076E780C5";
shapes = (
{
closed = 1;
nodes = (
(651,0,l),
(651,132,l),
(490,150,l),
(488,670,l),
(685,736,o),
(794,942,o),
(794,1186,cs),
(794,1537,o),
(502,1676,o),
(178,1676,cs),
(54,1676,o),
(5,1670,o),
(-36,1658,c),
(-35,1386,l),
(5,1418,o),
(82,1434,o),
(202,1434,cs),
(441,1434,o),
(468,1385,o),
(468,1215,cs),
(468,936,o),
(408,860,o),
(168,860,c),
(170,151,l),
(24,132,l),
(24,0,l)
);
}
);
width = 842;
},
{
layerId = "779F1615-9D1A-4778-9767-9A030AA58B6C";
shapes = (
{
closed = 1;
nodes = (
(548,0,l),
(548,86,l),
(344,100,l),
(344,714,l),
(491,740,o),
(692,892,o),
(692,1210,cs),
(692,1456,o),
(418,1652,o),
(142,1652,cs),
(52,1652,o),
(14,1646,o),
(-30,1636,c),
(-30,1472,l),
(8,1488,o),
(114,1508,o),
(208,1508,cs),
(428,1508,o),
(530,1424,o),
(530,1239,cs),
(530,914,o),
(386,835,o),
(183,835,c),
(181,102,l),
(-24,86,l),
(-24,0,l)
);
}
);
width = 772;
},
{
layerId = "97BB7961-D669-43AB-8BBF-11FFD0C46A4B";
shapes = (
{
closed = 1;
nodes = (
(647,0,l),
(647,132,l),
(466,150,l),
(464,670,l),
(673,740,o),
(860,975,o),
(860,1186,cs),
(860,1537,o),
(548,1676,o),
(144,1676,cs),
(30,1676,o),
(-19,1670,o),
(-60,1658,c),
(-59,1386,l),
(-19,1418,o),
(58,1434,o),
(202,1434,cs),
(487,1434,o),
(534,1374,o),
(534,1215,cs),
(534,981,o),
(454,860,o),
(134,860,c),
(136,151,l),
(-30,132,l),
(-30,0,l)
);
}
);
width = 908;
},
{
background = {
shapes = (
{
closed = 1;
nodes = (
(390,0,l),
(390,36,l),
(234,67,l),
(234,725,l),
(414,788,o),
(551,969,o),
(551,1197,cs),
(551,1475,o),
(306,1658,o),
(72,1658,cs),
(-19,1658,o),
(-105,1648,o),
(-120,1642,c),
(-120,1530,l),
(-96,1542,o),
(-45,1551,o),
(80,1551,cs),
(345,1551,o),
(411,1481,o),
(411,1223,cs),
(411,849,o),
(325,837,o),
(92,807,c),
(92,67,l),
(-66,36,l),
(-66,0,l)
);
}
);
};
layerId = "C9B9556E-C2FD-4F62-BB40-44923C452C22";
shapes = (
{
closed = 1;
nodes = (
(550,0,l),
(550,36,l),
(394,67,l),
(394,755,l),
(574,818,o),
(751,969,o),
(751,1197,cs),
(751,1475,o),
(466,1648,o),
(198,1648,cs),
(94,1648,o),
(34,1640,o),
(0,1622,c),
(0,1510,l),
(24,1522,o),
(115,1541,o),
(240,1541,cs),
(535,1541,o),
(611,1459,o),
(611,1223,cs),
(611,849,o),
(485,837,o),
(252,807,c),
(252,67,l),
(94,36,l),
(94,0,l)
);
}
);
width = 771;
},
{
background = {
shapes = (
{
closed = 1;
nodes = (
(577,0,l),
(577,38,l),
(414,72,l),
(413,736,l),
(610,831,o),
(716,1007,o),
(716,1222,cs),
(716,1529,o),
(405,1662,o),
(109,1662,cs),
(7,1662,o),
(-49,1656,o),
(-86,1645,c),
(-86,1430,l),
(-37,1462,o),
(61,1497,o),
(174,1497,cs),
(252,1497,o),
(336,1422,o),
(336,1222,cs),
(336,885,o),
(245,841,o),
(87,782,c),
(87,72,l),
(-56,38,l),
(-56,0,l)
);
}
);
};
layerId = "184155C8-9F61-4F1C-9784-DDA8EA717636";
shapes = (
{
closed = 1;
nodes = (
(725,0,l),
(725,38,l),
(562,72,l),
(561,746,l),
(812,808,o),
(964,913,o),
(964,1172,cs),
(964,1482,o),
(673,1676,o),
(264,1676,cs),
(128,1676,o),
(47,1662,o),
(0,1639,c),
(0,1424,l),
(108,1486,o),
(211,1511,o),
(329,1511,cs),
(520,1511,o),
(584,1435,o),
(584,1200,cs),
(584,946,o),
(447,809,o),
(235,762,c),
(235,72,l),
(92,38,l),
(92,0,l)
);
}
);
width = 924;
},
{
layerId = "E96AC896-F5DF-475B-BBD9-C7FEC6A86D0E";
shapes = (
{
closed = 1;
nodes = (
(400,0,l),
(400,36,l),
(244,67,l),
(244,725,l),
(424,788,o),
(531,969,o),
(531,1197,cs),
(531,1475,o),
(286,1658,o),
(82,1658,cs),
(21,1658,o),
(-65,1648,o),
(-80,1642,c),
(-80,1530,l),
(-56,1542,o),
(-5,1551,o),
(130,1551,cs),
(325,1551,o),
(391,1481,o),
(391,1223,cs),
(391,849,o),
(314,837,o),
(102,807,c),
(102,67,l),
(-56,36,l),
(-56,0,l)
);
}
);
width = 574;
},
{
layerId = "F2B10EEF-9DDC-48CA-970D-6B8C79870881";
shapes = (
{
closed = 1;
nodes = (
(573,0,l),
(573,38,l),
(420,72,l),
(399,736,l),
(596,831,o),
(702,1007,o),
(702,1222,cs),
(702,1529,o),
(391,1662,o),
(115,1662,cs),
(33,1662,o),
(-23,1656,o),
(-60,1645,c),
(-60,1430,l),
(-11,1462,o),
(87,1497,o),
(160,1497,cs),
(238,1497,o),
(322,1422,o),
(322,1222,cs),
(322,885,o),
(231,841,o),
(93,782,c),
(93,72,l),
(-40,38,l),
(-40,0,l)
);
}
);
width = 692;
},
{
layerId = "2103F1D3-C390-4F79-A87D-298F85EA6916";
shapes = (
{
closed = 1;
nodes = (
(435,0,l),
(435,36,l),
(279,67,l),
(279,725,l),
(459,788,o),
(626,969,o),
(626,1197,cs),
(626,1475,o),
(381,1658,o),
(117,1658,cs),
(26,1658,o),
(-60,1648,o),
(-75,1642,c),
(-75,1530,l),
(-51,1542,o),
(0,1551,o),
(165,1551,cs),
(420,1551,o),
(486,1481,o),
(486,1223,cs),
(486,849,o),
(370,832,o),
(137,807,c),
(137,67,l),
(-21,36,l),
(-21,0,l)
);
}
);
width = 666;
},
{
layerId = "AFA1064D-EFC9-4C9F-B9B0-9118E41D87C4";
shapes = (
{
closed = 1;
nodes = (
(603,0,l),
(603,38,l),
(446,72,l),
(445,736,l),
(696,831,o),
(776,1007,o),
(776,1222,cs),
(776,1529,o),
(411,1662,o),
(115,1662,cs),
(13,1662,o),
(-43,1656,o),
(-80,1645,c),
(-80,1430,l),
(-31,1462,o),
(67,1497,o),
(180,1497,cs),
(312,1497,o),
(396,1422,o),
(396,1222,cs),
(396,885,o),
(305,841,o),
(93,782,c),
(93,72,l),
(-50,38,l),
(-50,0,l)
);
}
);
width = 766;
}
);
unicode = 660;
}
{
color = 8;
glyphname = ymod;
layers = (
{
layerId = UUID0;
shapes = (
{
closed = 1;
nodes = (
(372,147,o),
(442,259,o),
(534,480,c),
(555,523,o),
(641,778,o),
(793,1191,c),
(869,1207,l),
(869,1277,l),
(565,1277,l),
(565,1207,l),
(666,1191,l),
(533,785,l),
(470,591,l),
(402,784,l),
(255,1190,l),
(371,1207,l),
(371,1277,l),
(5,1277,l),
(5,1207,l),
(74,1189,l),
(359,500,l),
(432,500,l),
(360,323,o),
(288,280,o),
(206,280,cs),
(178,280,o),
(144,285,o),
(131,293,c),
(131,159,l),
(146,152,o),
(174,147,o),
(205,147,cs)
);
}
);
userData = {
RMXScaler = {
height = 70;
verticalShift = 500;
width = 75;
};
};
width = 874;
},
{
layerId = "DEBB1CE4-A72D-4960-969E-E04A036D2FA1";
shapes = (
{
closed = 1;
nodes = (
(454,131,o),
(549,268,o),
(628,485,c),
(633,492,o),
(826,1070,o),
(870,1171,c),
(937,1187,l),
(937,1300,l),
(569,1300,l),
(569,1187,l),
(652,1171,l),
(551,825,l),
(537,741,l),
(511,824,l),
(407,1170,l),
(500,1187,l),
(500,1300,l),
(4,1300,l),
(4,1187,l),
(67,1170,l),
(346,500,l),
(445,500,l),
(416,439,o),
(381,351,o),
(259,351,cs),
(215,351,o),
(176,366,o),
(163,379,c),
(163,149,l),
(189,136,o),
(225,131,o),
(269,131,cs)
);
}
);
userData = {
RMXScaler = {
height = 72;
verticalShift = 500;
weight = -10;
width = 75;
};
};
width = 941;
},
{
layerId = "0E4B6E2E-ECAB-4D06-9686-B0B40AA31834";
shapes = (
{
closed = 1;
nodes = (
(326,149,o),
(386,266,o),
(462,480,c),
(477,521,o),
(539,697,o),
(689,1191,c),
(755,1208,l),
(755,1277,l),
(484,1277,l),
(484,1208,l),
(568,1191,l),
(456,785,l),
(408,594,l),
(356,784,l),
(235,1191,l),
(330,1208,l),
(330,1277,l),
(5,1277,l),
(5,1208,l),
(63,1190,l),
(304,500,l),
(371,500,l),
(315,320,o),
(252,279,o),
(174,279,cs),
(152,279,o),
(117,283,o),
(105,291,c),
(105,160,l),
(119,153,o),
(149,149,o),
(175,149,cs)
);
}
);
userData = {
RMXScaler = {
height = 70;
verticalShift = 500;
width = 75;
};
};
width = 757;
},
{
layerId = "EA2265BD-E890-48C4-9E90-A53076E780C5";
shapes = (
{
closed = 1;
nodes = (
(374,129,o),
(451,262,o),
(518,485,c),
(517,493,o),
(603,777,o),
(759,1172,c),
(824,1188,l),
(824,1300,l),
(477,1300,l),
(477,1188,l),
(547,1172,l),
(460,824,l),
(460,762,l),
(458,824,l),
(381,1171,l),
(444,1188,l),
(444,1300,l),
(4,1300,l),
(4,1188,l),
(43,1170,l),
(284,500,l),
(375,500,l),
(363,441,o),
(324,349,o),
(212,349,cs),
(178,349,o),
(128,361,o),
(112,377,c),
(112,148,l),
(137,135,o),
(180,129,o),
(224,129,cs)
);
}
);
userData = {
RMXScaler = {
height = 72;
verticalShift = 500;
weight = -10;
width = 75;
};
};
width = 828;
},
{
layerId = "C9B9556E-C2FD-4F62-BB40-44923C452C22";
shapes = (
{
closed = 1;
nodes = (
(275,147,o),
(347,251,o),
(439,475,cs),
(458,522,o),
(599,890,o),
(708,1154,c),
(781,1178,l),
(781,1204,l),
(550,1204,l),
(550,1178,l),
(630,1154,l),
(460,669,l),
(429,556,l),
(396,675,l),
(212,1154,l),
(289,1178,l),
(289,1204,l),
(-18,1204,l),
(-18,1178,l),
(52,1154,l),
(315,500,l),
(395,500,l),
(360,400,o),
(270,263,o),
(151,263,cs),
(123,263,o),
(96,267,o),
(82,272,c),
(82,158,l),
(95,151,o),
(124,147,o),
(156,147,cs)
);
}
);
userData = {
RMXScaler = {
height = 70;
verticalShift = 500;
width = 80;
};
};
width = 763;
},
{
layerId = "184155C8-9F61-4F1C-9784-DDA8EA717636";
shapes = (
{
closed = 1;
nodes = (
(446,142,o),
(527,278,o),
(588,488,c),
(596,490,o),
(721,879,o),
(815,1152,c),
(912,1195,l),
(912,1224,l),
(598,1224,l),
(598,1194,l),
(718,1152,l),
(633,808,l),
(576,618,l),
(519,831,l),
(419,1152,l),
(506,1195,l),
(506,1224,l),
(-13,1225,l),
(-13,1196,l),
(61,1154,l),
(296,500,l),
(519,500,l),
(491,356,o),
(396,386,o),
(275,386,cs),
(244,386,o),
(212,392,o),
(188,398,c),
(188,155,l),
(202,146,o),
(233,142,o),
(265,142,cs)
);
}
);
userData = {
RMXScaler = {
height = 72;
verticalShift = 500;
weight = -10;
width = 80;
};
};
width = 899;
},
{
layerId = "E96AC896-F5DF-475B-BBD9-C7FEC6A86D0E";
shapes = (
{
closed = 1;
nodes = (
(235,149,o),
(293,263,o),
(391,480,cs),
(415,533,o),
(535,894,o),
(636,1157,c),
(710,1180,l),
(710,1206,l),
(466,1206,l),
(466,1180,l),
(550,1157,l),
(399,678,l),
(359,560,l),
(331,681,l),
(182,1157,l),
(265,1180,l),
(265,1206,l),
(-34,1206,l),
(-34,1180,l),
(28,1161,l),
(256,500,l),
(337,500,l),
(294,371,o),
(223,264,o),
(100,264,cs),
(77,264,o),
(43,267,o),
(29,273,c),
(29,160,l),
(43,153,o),
(72,149,o),
(96,149,cs)
);
}
);
userData = {
RMXScaler = {
height = 70;
verticalShift = 500;
width = 80;
};
};
width = 675;
},
{
layerId = "F2B10EEF-9DDC-48CA-970D-6B8C79870881";
shapes = (
{
closed = 1;
nodes = (
(364,139,o),
(450,323,o),
(482,485,c),
(487,487,o),
(494,517,o),
(658,1149,c),
(743,1192,l),
(743,1221,l),
(501,1221,l),
(501,1191,l),
(589,1149,l),
(498,829,l),
(465,698,l),
(432,825,l),
(367,1149,l),
(428,1193,l),
(428,1221,l),
(-58,1221,l),
(-58,1192,l),
(21,1145,l),
(222,500,l),
(418,500,l),
(362,351,o),
(318,370,o),
(205,370,cs),
(161,370,o),
(131,376,o),
(107,382,c),
(107,153,l),
(119,145,o),
(142,139,o),
(200,139,cs)
);
}
);
userData = {
RMXScaler = {
height = 72;
verticalShift = 500;
weight = -10;
width = 80;
};
};
width = 676;
},
{
layerId = "779F1615-9D1A-4778-9767-9A030AA58B6C";
shapes = (
{
closed = 1;
nodes = (
(372,147,o),
(452,259,o),
(544,480,c),
(565,523,o),
(661,778,o),
(813,1191,c),
(889,1207,l),
(889,1277,l),
(585,1277,l),
(585,1207,l),
(686,1191,l),
(553,785,l),
(480,591,l),
(412,784,l),
(255,1190,l),
(371,1207,l),
(371,1277,l),
(5,1277,l),
(5,1207,l),
(74,1189,l),
(369,500,l),
(442,500,l),
(370,323,o),
(288,280,o),
(206,280,cs),
(178,280,o),
(144,285,o),
(131,293,c),
(131,159,l),
(146,152,o),
(174,147,o),
(205,147,cs)
);
}
);
width = 894;
},
{
layerId = "97BB7961-D669-43AB-8BBF-11FFD0C46A4B";
shapes = (
{
closed = 1;
nodes = (
(464,131,o),
(569,268,o),
(648,485,c),
(653,492,o),
(856,1070,o),
(900,1171,c),
(967,1187,l),
(967,1300,l),
(599,1300,l),
(599,1187,l),
(682,1171,l),
(571,825,l),
(557,741,l),
(531,824,l),
(417,1170,l),
(510,1187,l),
(510,1300,l),
(4,1300,l),
(4,1187,l),
(67,1170,l),
(356,500,l),
(455,500,l),
(426,439,o),
(391,351,o),
(269,351,cs),
(225,351,o),
(186,366,o),
(173,379,c),
(173,149,l),
(199,136,o),
(235,131,o),
(279,131,cs)
);
}
);
width = 971;
},
{
layerId = "2103F1D3-C390-4F79-A87D-298F85EA6916";
shapes = (
{
closed = 1;
nodes = (
(275,147,o),
(347,251,o),
(439,475,cs),
(458,522,o),
(599,890,o),
(708,1154,c),
(781,1178,l),
(781,1204,l),
(550,1204,l),
(550,1178,l),
(630,1154,l),
(460,669,l),
(429,556,l),
(396,675,l),
(212,1154,l),
(289,1178,l),
(289,1204,l),
(-18,1204,l),
(-18,1178,l),
(52,1154,l),
(315,500,l),
(395,500,l),
(360,400,o),
(270,263,o),
(151,263,cs),
(123,263,o),
(96,267,o),
(82,272,c),
(82,158,l),
(95,151,o),
(124,147,o),
(156,147,cs)
);
}
);
width = 763;
},
{
layerId = "AFA1064D-EFC9-4C9F-B9B0-9118E41D87C4";
shapes = (
{
closed = 1;
nodes = (
(438,142,o),
(503,278,o),
(594,488,c),
(602,490,o),
(727,879,o),
(821,1152,c),
(918,1195,l),
(918,1224,l),
(604,1224,l),
(604,1194,l),
(724,1152,l),
(639,808,l),
(582,618,l),
(525,831,l),
(425,1152,l),
(512,1195,l),
(512,1224,l),
(-21,1225,l),
(-21,1196,l),
(53,1154,l),
(288,500,l),
(525,500,l),
(467,356,o),
(388,386,o),
(267,386,cs),
(236,386,o),
(204,392,o),
(180,398,c),
(180,155,l),
(194,146,o),
(225,142,o),
(257,142,cs)
);
}
);
width = 897;
}
);
unicode = 696;
userData = {
RMXScaler = {
source = y;
};
};
}
{
color = 2;
glyphname = minusmod;
layers = (
{
layerId = UUID0;
shapes = (
{
closed = 1;
nodes = (
(710,582,l),
(710,702,l),
(180,702,l),
(180,582,l)
);
}
);
width = 890;
},
{
layerId = "DEBB1CE4-A72D-4960-969E-E04A036D2FA1";
shapes = (
{
closed = 1;
nodes = (
(770,533,l),
(770,745,l),
(180,745,l),
(180,533,l)
);
}
);
width = 950;
},
{
layerId = "0E4B6E2E-ECAB-4D06-9686-B0B40AA31834";
shapes = (
{
closed = 1;
nodes = (
(640,582,l),
(640,702,l),
(110,702,l),
(110,582,l)
);
}
);
width = 750;
},
{
layerId = "EA2265BD-E890-48C4-9E90-A53076E780C5";
shapes = (
{
closed = 1;
nodes = (
(775,533,l),
(775,745,l),
(185,745,l),
(185,533,l)
);
}
);
width = 960;
},
{
layerId = "779F1615-9D1A-4778-9767-9A030AA58B6C";
shapes = (
{
closed = 1;
nodes = (
(640,582,l),
(640,702,l),
(110,702,l),
(110,582,l)
);
}
);
width = 750;
},
{
layerId = "97BB7961-D669-43AB-8BBF-11FFD0C46A4B";
shapes = (
{
closed = 1;
nodes = (
(760,533,l),
(760,745,l),
(170,745,l),
(170,533,l)
);
}
);
width = 930;
},
{
layerId = "C9B9556E-C2FD-4F62-BB40-44923C452C22";
shapes = (
{
closed = 1;
nodes = (
(694,521,l),
(694,607,l),
(154,607,l),
(154,521,l)
);
}
);
width = 848;
},
{
layerId = "184155C8-9F61-4F1C-9784-DDA8EA717636";
shapes = (
{
closed = 1;
nodes = (
(684,521,l),
(684,607,l),
(154,607,l),
(154,521,l)
);
}
);
width = 838;
},
{
layerId = "E96AC896-F5DF-475B-BBD9-C7FEC6A86D0E";
shapes = (
{
closed = 1;
nodes = (
(680,521,l),
(680,607,l),
(140,607,l),
(140,521,l)
);
}
);
width = 820;
},
{
layerId = "F2B10EEF-9DDC-48CA-970D-6B8C79870881";
shapes = (
{
closed = 1;
nodes = (
(671,521,l),
(671,607,l),
(141,607,l),
(141,521,l)
);
}
);
width = 812;
},
{
layerId = "2103F1D3-C390-4F79-A87D-298F85EA6916";
shapes = (
{
closed = 1;
nodes = (
(696,521,l),
(696,607,l),
(156,607,l),
(156,521,l)
);
}
);
width = 852;
},
{
layerId = "AFA1064D-EFC9-4C9F-B9B0-9118E41D87C4";
shapes = (
{
closed = 1;
nodes = (
(634,521,l),
(634,607,l),
(104,607,l),
(104,521,l)
);
}
);
width = 738;
}
);
metricLeft = hyphen;
metricRight = hyphen;
unicode = 727;
}
{
glyphname = tildecomb;
kernLeft = tildecomb;
kernRight = tildecomb;
layers = (
{
anchors = (
{
name = _top;
pos = (368,1110);
},
{
name = top;
pos = (368,1478);
}
);
layerId = UUID0;
shapes = (
{
closed = 1;
nodes = (
(93,1334,l),
(115,1403,o),
(146,1448,o),
(219,1448,cs),
(323,1448,o),
(356,1310,o),
(509,1310,cs),
(631,1310,o),
(700,1387,o),
(729,1512,c),
(643,1554,l),
(621,1485,o),
(590,1440,o),
(517,1440,cs),
(413,1440,o),
(380,1578,o),
(227,1578,cs),
(105,1578,o),
(36,1501,o),
(7,1376,c)
);
}
);
width = 736;
},
{
anchors = (
{
name = _top;
pos = (397,1112);
},
{
name = top;
pos = (397,1507);
}
);
layerId = "DEBB1CE4-A72D-4960-969E-E04A036D2FA1";
shapes = (
{
closed = 1;
nodes = (
(150,1286,l),
(172,1357,o),
(205,1406,o),
(264,1406,cs),
(358,1406,o),
(379,1273,o),
(523,1273,cs),
(639,1273,o),
(734,1367,o),
(764,1513,c),
(643,1590,l),
(621,1519,o),
(587,1468,o),
(530,1469,cs),
(444,1471,o),
(414,1602,o),
(270,1602,cs),
(156,1602,o),
(61,1514,o),
(29,1363,c)
);
}
);
width = 800;
},
{
anchors = (
{
name = _top;
pos = (343,1005);
},
{
name = top;
pos = (343,1450);
}
);
layerId = "184155C8-9F61-4F1C-9784-DDA8EA717636";
shapes = (
{
closed = 1;
nodes = (
(59,1177,l),
(97,1266,o),
(125,1286,o),
(175,1286,cs),
(258,1286,o),
(332,1140,o),
(464,1140,cs),
(585,1140,o),
(660,1270,o),
(676,1447,c),
(627,1463,l),
(589,1374,o),
(561,1354,o),
(511,1354,cs),
(428,1354,o),
(354,1500,o),
(222,1500,cs),
(101,1500,o),
(26,1370,o),
(10,1193,c)
);
}
);
width = 686;
},
{
anchors = (
{
name = _top;
pos = (394,1112);
},
{
name = top;
pos = (394,1614);
}
);
layerId = "EA2265BD-E890-48C4-9E90-A53076E780C5";
shapes = (
{
closed = 1;
nodes = (
(152,1299,l),
(167,1368,o),
(192,1417,o),
(247,1417,cs),
(336,1417,o),
(381,1273,o),
(528,1273,cs),
(655,1273,o),
(739,1378,o),
(759,1529,c),
(636,1588,l),
(621,1519,o),
(596,1470,o),
(541,1470,cs),
(452,1470,o),
(407,1614,o),
(260,1614,cs),
(133,1614,o),
(49,1509,o),
(29,1358,c)
);
}
);
width = 788;
},
{
anchors = (
{
name = _top;
pos = (338,1110);
},
{
name = top;
pos = (338,1448);
}
);
layerId = "0E4B6E2E-ECAB-4D06-9686-B0B40AA31834";
shapes = (
{
closed = 1;
nodes = (
(108,1334,l),
(123,1403,o),
(155,1448,o),
(205,1448,cs),
(292,1448,o),
(324,1310,o),
(463,1310,cs),
(566,1310,o),
(637,1387,o),
(656,1512,c),
(568,1554,l),
(553,1485,o),
(521,1440,o),
(471,1440,cs),
(384,1440,o),
(352,1578,o),
(213,1578,cs),
(110,1578,o),
(39,1501,o),
(20,1376,c)
);
}
);
width = 676;
},
{
anchors = (
{
name = _top;
pos = (308,1005);
},
{
name = top;
pos = (308,1500);
}
);
layerId = "F2B10EEF-9DDC-48CA-970D-6B8C79870881";
shapes = (
{
closed = 1;
nodes = (
(59,1177,l),
(87,1266,o),
(115,1286,o),
(160,1286,cs),
(238,1286,o),
(287,1140,o),
(409,1140,cs),
(530,1140,o),
(600,1270,o),
(606,1447,c),
(557,1463,l),
(529,1374,o),
(501,1354,o),
(456,1354,cs),
(378,1354,o),
(329,1500,o),
(207,1500,cs),
(86,1500,o),
(16,1370,o),
(10,1193,c)
);
}
);
width = 616;
},
{
anchors = (
{
name = _top;
pos = (236,1005);
},
{
name = top;
pos = (236,1414);
}
);
layerId = "E96AC896-F5DF-475B-BBD9-C7FEC6A86D0E";
shapes = (
{
closed = 1;
nodes = (
(44,1197,l),
(63,1266,o),
(88,1296,o),
(124,1296,cs),
(178,1296,o),
(236,1174,o),
(323,1174,cs),
(399,1174,o),
(446,1241,o),
(462,1382,c),
(428,1391,l),
(409,1322,o),
(384,1292,o),
(348,1292,cs),
(294,1292,o),
(236,1414,o),
(149,1414,cs),
(73,1414,o),
(26,1347,o),
(10,1206,c)
);
}
);
width = 472;
},
{
anchors = (
{
name = _top;
pos = (266,1005);
},
{
name = top;
pos = (266,1304);
}
);
layerId = "C9B9556E-C2FD-4F62-BB40-44923C452C22";
shapes = (
{
closed = 1;
nodes = (
(44,1197,l),
(65,1266,o),
(90,1296,o),
(134,1296,cs),
(198,1296,o),
(276,1174,o),
(363,1174,cs),
(449,1174,o),
(496,1241,o),
(522,1382,c),
(488,1391,l),
(467,1322,o),
(442,1292,o),
(398,1292,cs),
(334,1292,o),
(256,1414,o),
(169,1414,cs),
(83,1414,o),
(36,1347,o),
(10,1206,c)
);
}
);
width = 532;
},
{
anchors = (
{
name = _top;
pos = (363,1005);
},
{
name = top;
pos = (363,1500);
}
);
layerId = "AFA1064D-EFC9-4C9F-B9B0-9118E41D87C4";
shapes = (
{
closed = 1;
nodes = (
(59,1177,l),
(97,1266,o),
(129,1286,o),
(179,1286,cs),
(278,1286,o),
(352,1140,o),
(494,1140,cs),
(615,1140,o),
(700,1270,o),
(716,1447,c),
(667,1463,l),
(629,1374,o),
(597,1354,o),
(547,1354,cs),
(448,1354,o),
(374,1500,o),
(232,1500,cs),
(111,1500,o),
(26,1370,o),
(10,1193,c)
);
}
);
width = 726;
},
{
anchors = (
{
name = _top;
pos = (286,1005);
},
{
name = top;
pos = (286,1414);
}
);
layerId = "2103F1D3-C390-4F79-A87D-298F85EA6916";
shapes = (
{
closed = 1;
nodes = (
(44,1197,l),
(65,1266,o),
(100,1296,o),
(144,1296,cs),
(218,1296,o),
(296,1174,o),
(393,1174,cs),
(479,1174,o),
(536,1241,o),
(562,1382,c),
(528,1391,l),
(507,1322,o),
(472,1292,o),
(428,1292,cs),
(354,1292,o),
(276,1414,o),
(179,1414,cs),
(93,1414,o),
(36,1347,o),
(10,1206,c)
);
}
);
width = 572;
},
{
anchors = (
{
name = _top;
pos = (388,1110);
},
{
name = top;
pos = (388,1548);
}
);
layerId = "779F1615-9D1A-4778-9767-9A030AA58B6C";
shapes = (
{
closed = 1;
nodes = (
(98,1304,l),
(120,1373,o),
(152,1418,o),
(226,1418,cs),
(322,1418,o),
(396,1280,o),
(542,1280,cs),
(666,1280,o),
(737,1357,o),
(766,1482,c),
(678,1524,l),
(656,1455,o),
(624,1410,o),
(550,1410,cs),
(454,1410,o),
(380,1548,o),
(234,1548,cs),
(110,1548,o),
(39,1471,o),
(10,1346,c)
);
}
);
userData = {
com.schriftgestaltung.Glyphs.lastChange = "2019-04-25 21:50:43 +0000";
};
width = 776;
},
{
anchors = (
{
name = _top;
pos = (444,1112);
},
{
name = top;
pos = (444,1614);
}
);
color = 9;
layerId = "97BB7961-D669-43AB-8BBF-11FFD0C46A4B";
shapes = (
{
closed = 1;
nodes = (
(163,1299,l),
(188,1368,o),
(220,1417,o),
(291,1417,cs),
(378,1417,o),
(428,1273,o),
(584,1273,cs),
(729,1273,o),
(820,1378,o),
(846,1529,c),
(725,1588,l),
(700,1519,o),
(668,1470,o),
(597,1470,cs),
(510,1470,o),
(460,1614,o),
(304,1614,cs),
(159,1614,o),
(68,1509,o),
(42,1358,c)
);
}
);
width = 888;
}
);
unicode = 771;
}
{
glyphname = ringcomb;
kernLeft = ringcomb;
kernRight = ringcomb;
layers = (
{
layerId = UUID0;
shapes = (
{
pos = (0,-320);
ref = ringcomb.case;
}
);
width = 556;
},
{
anchors = (
{
name = _top;
pos = (323,1112);
},
{
name = top;
pos = (323,1809);
}
);
background = {
shapes = (
{
closed = 1;
nodes = (
(519,1273,o),
(629,1392,o),
(626,1542,cs),
(622,1710,o),
(480,1809,o),
(311,1809,cs),
(134,1809,o),
(18,1693,o),
(20,1540,cs),
(22,1374,o),
(153,1273,o),
(327,1273,cs)
);
},
{
closed = 1;
nodes = (
(234,1398,o),
(188,1446,o),
(188,1535,cs),
(188,1616,o),
(220,1681,o),
(319,1681,cs),
(409,1681,o),
(457,1627,o),
(457,1543,cs),
(457,1463,o),
(422,1398,o),
(321,1398,c)
);
}
);
};
layerId = "DEBB1CE4-A72D-4960-969E-E04A036D2FA1";
shapes = (
{
closed = 1;
nodes = (
(501,1273,o),
(624,1380,o),
(626,1540,cs),
(628,1701,o),
(512,1809,o),
(335,1809,cs),
(150,1809,o),
(24,1702,o),
(20,1542,cs),
(17,1381,o),
(136,1273,o),
(319,1273,cs)
);
},
{
closed = 1;
nodes = (
(243,1398,o),
(189,1456,o),
(189,1543,cs),
(189,1626,o),
(244,1681,o),
(327,1681,cs),
(406,1681,o),
(458,1623,o),
(458,1535,cs),
(458,1453,o),
(405,1398,o),
(325,1398,c)
);
}
);
width = 646;
},
{
anchors = (
{
name = _top;
pos = (293,1005);
},
{
name = top;
pos = (293,1608);
}
);
guides = (
{
pos = (587,1398);
}
);
layerId = "184155C8-9F61-4F1C-9784-DDA8EA717636";
shapes = (
{
closed = 1;
nodes = (
(439,1122,o),
(576,1220,o),
(576,1387,cs),
(576,1530,o),
(452,1608,o),
(299,1608,cs),
(154,1608,o),
(10,1510,o),
(10,1343,cs),
(10,1200,o),
(121,1122,o),
(289,1122,cs)
);
},
{
closed = 1;
nodes = (
(232,1167,o),
(196,1218,o),
(196,1360,cs),
(196,1497,o),
(232,1563,o),
(293,1563,cs),
(354,1563,o),
(390,1512,o),
(390,1370,cs),
(390,1233,o),
(354,1167,o),
(293,1167,cs)
);
}
);
width = 586;
},
{
anchors = (
{
name = _top;
pos = (293,1112);
},
{
name = top;
pos = (293,1799);
}
);
layerId = "EA2265BD-E890-48C4-9E90-A53076E780C5";
shapes = (
{
closed = 1;
nodes = (
(453,1263,o),
(576,1375,o),
(576,1531,cs),
(576,1687,o),
(453,1799,o),
(293,1799,cs),
(133,1799,o),
(10,1687,o),
(10,1531,cs),
(10,1375,o),
(133,1263,o),
(293,1263,cs)
);
},
{
closed = 1;
nodes = (
(219,1385,o),
(179,1449,o),
(179,1531,cs),
(179,1613,o),
(219,1677,o),
(293,1677,cs),
(367,1677,o),
(407,1613,o),
(407,1531,cs),
(407,1449,o),
(367,1385,o),
(293,1385,cs)
);
}
);
width = 586;
},
{
anchors = (
{
name = _top;
pos = (248,1110);
},
{
name = top;
pos = (248,1766);
}
);
layerId = "0E4B6E2E-ECAB-4D06-9686-B0B40AA31834";
shapes = (
{
closed = 1;
nodes = (
(375,1298,o),
(486,1396,o),
(486,1532,cs),
(486,1668,o),
(375,1766,o),
(248,1766,cs),
(121,1766,o),
(10,1668,o),
(10,1532,cs),
(10,1396,o),
(121,1298,o),
(248,1298,cs)
);
},
{
closed = 1;
nodes = (
(174,1378,o),
(124,1440,o),
(124,1532,cs),
(124,1624,o),
(174,1686,o),
(248,1686,cs),
(322,1686,o),
(372,1624,o),
(372,1532,cs),
(372,1440,o),
(322,1378,o),
(248,1378,cs)
);
}
);
width = 496;
},
{
anchors = (
{
name = _top;
pos = (278,1005);
},
{
name = top;
pos = (278,1638);
}
);
layerId = "F2B10EEF-9DDC-48CA-970D-6B8C79870881";
shapes = (
{
closed = 1;
nodes = (
(404,1122,o),
(536,1226,o),
(536,1403,cs),
(536,1555,o),
(417,1638,o),
(284,1638,cs),
(159,1638,o),
(20,1534,o),
(20,1357,cs),
(20,1205,o),
(126,1122,o),
(274,1122,cs)
);
},
{
closed = 1;
nodes = (
(227,1170,o),
(196,1244,o),
(196,1375,cs),
(196,1500,o),
(227,1590,o),
(278,1590,cs),
(329,1590,o),
(360,1516,o),
(360,1385,cs),
(360,1260,o),
(329,1170,o),
(278,1170,cs)
);
}
);
width = 556;
},
{
anchors = (
{
name = _top;
pos = (213,1005);
},
{
name = top;
pos = (213,1554);
}
);
layerId = "E96AC896-F5DF-475B-BBD9-C7FEC6A86D0E";
shapes = (
{
closed = 1;
nodes = (
(320,1126,o),
(416,1211,o),
(416,1352,cs),
(416,1472,o),
(333,1554,o),
(219,1554,cs),
(113,1554,o),
(10,1469,o),
(10,1328,cs),
(10,1208,o),
(80,1126,o),
(209,1126,cs)
);
},
{
closed = 1;
nodes = (
(152,1160,o),
(116,1224,o),
(116,1340,cs),
(116,1443,o),
(152,1520,o),
(213,1520,cs),
(274,1520,o),
(310,1456,o),
(310,1340,cs),
(310,1237,o),
(274,1160,o),
(213,1160,cs)
);
}
);
width = 426;
},
{
anchors = (
{
name = _top;
pos = (228,1005);
},
{
name = top;
pos = (228,1554);
}
);
layerId = "C9B9556E-C2FD-4F62-BB40-44923C452C22";
shapes = (
{
closed = 1;
nodes = (
(357,1126,o),
(446,1216,o),
(446,1352,cs),
(446,1473,o),
(361,1554,o),
(234,1554,cs),
(100,1554,o),
(10,1464,o),
(10,1328,cs),
(10,1207,o),
(96,1126,o),
(224,1126,cs)
);
},
{
closed = 1;
nodes = (
(146,1182,o),
(91,1245,o),
(91,1340,cs),
(91,1435,o),
(146,1498,o),
(228,1498,cs),
(310,1498,o),
(365,1435,o),
(365,1340,cs),
(365,1245,o),
(310,1182,o),
(228,1182,cs)
);
}
);
width = 456;
},
{
anchors = (
{
name = _top;
pos = (303,1005);
},
{
name = top;
pos = (303,1638);
}
);
layerId = "AFA1064D-EFC9-4C9F-B9B0-9118E41D87C4";
shapes = (
{
closed = 1;
nodes = (
(459,1122,o),
(596,1226,o),
(596,1403,cs),
(596,1555,o),
(472,1638,o),
(309,1638,cs),
(154,1638,o),
(10,1534,o),
(10,1357,cs),
(10,1205,o),
(121,1122,o),
(299,1122,cs)
);
},
{
closed = 1;
nodes = (
(232,1170,o),
(196,1244,o),
(196,1375,cs),
(196,1500,o),
(232,1590,o),
(303,1590,cs),
(374,1590,o),
(410,1516,o),
(410,1385,cs),
(410,1260,o),
(374,1170,o),
(303,1170,cs)
);
}
);
width = 606;
},
{
anchors = (
{
name = _top;
pos = (238,1005);
},
{
name = top;
pos = (238,1554);
}
);
layerId = "2103F1D3-C390-4F79-A87D-298F85EA6916";
shapes = (
{
closed = 1;
nodes = (
(360,1126,o),
(466,1211,o),
(466,1352,cs),
(466,1472,o),
(373,1554,o),
(244,1554,cs),
(123,1554,o),
(10,1469,o),
(10,1328,cs),
(10,1208,o),
(90,1126,o),
(234,1126,cs)
);
},
{
closed = 1;
nodes = (
(162,1160,o),
(116,1224,o),
(116,1340,cs),
(116,1443,o),
(162,1520,o),
(238,1520,cs),
(314,1520,o),
(360,1456,o),
(360,1340,cs),
(360,1237,o),
(314,1160,o),
(238,1160,cs)
);
}
);
width = 476;
},
{
anchors = (
{
name = _top;
pos = (298,1110);
},
{
name = top;
pos = (298,1766);
}
);
layerId = "779F1615-9D1A-4778-9767-9A030AA58B6C";
shapes = (
{
closed = 1;
nodes = (
(465,1298,o),
(586,1396,o),
(586,1532,cs),
(586,1668,o),
(465,1766,o),
(298,1766,cs),
(131,1766,o),
(10,1668,o),
(10,1532,cs),
(10,1396,o),
(131,1298,o),
(298,1298,cs)
);
},
{
closed = 1;
nodes = (
(194,1378,o),
(124,1440,o),
(124,1532,cs),
(124,1624,o),
(194,1686,o),
(298,1686,cs),
(402,1686,o),
(472,1624,o),
(472,1532,cs),
(472,1440,o),
(402,1378,o),
(298,1378,cs)
);
}
);
userData = {
com.schriftgestaltung.Glyphs.lastChange = "2019-04-25 21:50:43 +0000";
};
width = 596;
},
{
anchors = (
{
name = _top;
pos = (343,1112);
},
{
name = top;
pos = (343,1799);
}
);
color = 9;
layerId = "97BB7961-D669-43AB-8BBF-11FFD0C46A4B";
shapes = (
{
closed = 1;
nodes = (
(543,1263,o),
(676,1375,o),
(676,1531,cs),
(676,1687,o),
(543,1799,o),
(343,1799,cs),
(143,1799,o),
(10,1687,o),
(10,1531,cs),
(10,1375,o),
(143,1263,o),
(343,1263,cs)
);
},
{
closed = 1;
nodes = (
(239,1385,o),
(179,1449,o),
(179,1531,cs),
(179,1613,o),
(239,1677,o),
(343,1677,cs),
(447,1677,o),
(507,1613,o),
(507,1531,cs),
(507,1449,o),
(447,1385,o),
(343,1385,cs)
);
}
);
width = 686;
}
);
unicode = 778;
}
{
color = 4;
glyphname = arrowdoublerightbelowcomb;
layers = (
{
layerId = UUID0;
shapes = (
{
closed = 1;
nodes = (
(708,-334,l),
(480,-106,l),
(424,-162,l),
(559,-298,l),
(499,-291,l),
(-630,-291,l),
(-629,-376,l),
(499,-376,l),
(559,-370,l),
(424,-505,l),
(480,-562,l)
);
}
);
width = 0;
},
{
layerId = "DEBB1CE4-A72D-4960-969E-E04A036D2FA1";
shapes = (
{
closed = 1;
nodes = (
(716,-334,l),
(488,-106,l),
(432,-162,l),
(567,-298,l),
(507,-291,l),
(-635,-291,l),
(-634,-376,l),
(507,-376,l),
(567,-370,l),
(432,-505,l),
(488,-562,l)
);
}
);
width = 0;
},
{
layerId = "C9B9556E-C2FD-4F62-BB40-44923C452C22";
shapes = (
{
closed = 1;
nodes = (
(563,-307,l),
(397,-140,l),
(356,-182,l),
(454,-281,l),
(410,-275,l),
(-522,-275,l),
(-521,-338,l),
(410,-338,l),
(454,-333,l),
(356,-432,l),
(397,-473,l)
);
}
);
width = 0;
},
{
layerId = "184155C8-9F61-4F1C-9784-DDA8EA717636";
shapes = (
{
closed = 1;
nodes = (
(613,-307,l),
(447,-140,l),
(406,-182,l),
(504,-281,l),
(460,-275,l),
(-552,-275,l),
(-551,-338,l),
(460,-338,l),
(504,-333,l),
(406,-432,l),
(447,-473,l)
);
}
);
width = 0;
},
{
layerId = "0E4B6E2E-ECAB-4D06-9686-B0B40AA31834";
shapes = (
{
closed = 1;
nodes = (
(608,-334,l),
(380,-106,l),
(324,-162,l),
(459,-298,l),
(399,-291,l),
(-570,-291,l),
(-569,-376,l),
(399,-376,l),
(459,-370,l),
(324,-505,l),
(380,-562,l)
);
}
);
width = 0;
},
{
layerId = "EA2265BD-E890-48C4-9E90-A53076E780C5";
shapes = (
{
closed = 1;
nodes = (
(696,-334,l),
(468,-106,l),
(412,-162,l),
(547,-298,l),
(487,-291,l),
(-615,-291,l),
(-614,-376,l),
(487,-376,l),
(547,-370,l),
(412,-505,l),
(468,-562,l)
);
}
);
width = 1200;
},
{
layerId = "E96AC896-F5DF-475B-BBD9-C7FEC6A86D0E";
shapes = (
{
closed = 1;
nodes = (
(533,-307,l),
(367,-140,l),
(326,-182,l),
(424,-281,l),
(380,-275,l),
(-482,-275,l),
(-481,-338,l),
(380,-338,l),
(424,-333,l),
(326,-432,l),
(367,-473,l)
);
}
);
width = 0;
},
{
layerId = "F2B10EEF-9DDC-48CA-970D-6B8C79870881";
shapes = (
{
closed = 1;
nodes = (
(563,-307,l),
(397,-140,l),
(356,-182,l),
(454,-281,l),
(410,-275,l),
(-512,-275,l),
(-511,-338,l),
(410,-338,l),
(454,-333,l),
(356,-432,l),
(397,-473,l)
);
}
);
width = 0;
},
{
layerId = "779F1615-9D1A-4778-9767-9A030AA58B6C";
shapes = (
{
closed = 1;
nodes = (
(728,-334,l),
(500,-106,l),
(444,-162,l),
(579,-298,l),
(519,-291,l),
(-650,-291,l),
(-649,-376,l),
(519,-376,l),
(579,-370,l),
(444,-505,l),
(500,-562,l)
);
}
);
width = 0;
},
{
layerId = "97BB7961-D669-43AB-8BBF-11FFD0C46A4B";
shapes = (
{
closed = 1;
nodes = (
(726,-334,l),
(498,-106,l),
(442,-162,l),
(577,-298,l),
(517,-291,l),
(-645,-291,l),
(-644,-376,l),
(517,-376,l),
(577,-370,l),
(442,-505,l),
(498,-562,l)
);
}
);
width = 1200;
},
{
layerId = "2103F1D3-C390-4F79-A87D-298F85EA6916";
shapes = (
{
closed = 1;
nodes = (
(593,-307,l),
(427,-140,l),
(386,-182,l),
(484,-281,l),
(440,-275,l),
(-542,-275,l),
(-541,-338,l),
(440,-338,l),
(484,-333,l),
(386,-432,l),
(427,-473,l)
);
}
);
width = 0;
},
{
layerId = "AFA1064D-EFC9-4C9F-B9B0-9118E41D87C4";
shapes = (
{
closed = 1;
nodes = (
(653,-307,l),
(487,-140,l),
(446,-182,l),
(544,-281,l),
(500,-275,l),
(-602,-275,l),
(-601,-338,l),
(500,-338,l),
(544,-333,l),
(446,-432,l),
(487,-473,l)
);
}
);
width = 0;
}
);
unicode = 866;
}
{
glyphname = delta;
layers = (
{
layerId = UUID0;
shapes = (
{
closed = 1;
nodes = (
(623,970,o),
(581,1019,o),
(564,1014,cs),
(206,918,o),
(90,719,o),
(90,451,cs),
(90,217,o),
(254,-21,o),
(517,-21,cs),
(822,-21,o),
(1014,227,o),
(1014,511,cs),
(1014,671,o),
(966,829,o),
(735,977,cs),
(539,1122,o),
(291,1292,o),
(286,1401,cs),
(284,1447,o),
(317,1486,o),
(358,1486,cs),
(501,1486,o),
(675,1447,o),
(800,1292,c),
(840,1292,o),
(902,1415,o),
(886,1460,c),
(842,1532,o),
(711,1587,o),
(490,1591,cs),
(339,1594,o),
(128,1486,o),
(128,1380,cs),
(128,1133,o),
(409,1031,o),
(643,865,cs),
(779,770,o),
(885,669,o),
(885,467,cs),
(885,275,o),
(778,122,o),
(569,122,cs),
(366,122,o),
(231,314,o),
(231,500,cs),
(231,695,o),
(362,895,o),
(595,962,cs)
);
}
);
width = 1100;
},
{
layerId = "DEBB1CE4-A72D-4960-969E-E04A036D2FA1";
shapes = (
{
ref = partialdiff;
}
);
width = 1200;
},
{
layerId = "0E4B6E2E-ECAB-4D06-9686-B0B40AA31834";
width = 1200;
},
{
layerId = "EA2265BD-E890-48C4-9E90-A53076E780C5";
width = 1200;
},
{
layerId = "779F1615-9D1A-4778-9767-9A030AA58B6C";
width = 1200;
},
{
layerId = "97BB7961-D669-43AB-8BBF-11FFD0C46A4B";
width = 1200;
},
{
layerId = "C9B9556E-C2FD-4F62-BB40-44923C452C22";
shapes = (
{
ref = partialdiff;
}
);
width = 1200;
},
{
layerId = "184155C8-9F61-4F1C-9784-DDA8EA717636";
shapes = (
{
ref = partialdiff;
}
);
width = 1200;
},
{
layerId = "E96AC896-F5DF-475B-BBD9-C7FEC6A86D0E";
width = 1200;
},
{
layerId = "F2B10EEF-9DDC-48CA-970D-6B8C79870881";
width = 1200;
},
{
layerId = "2103F1D3-C390-4F79-A87D-298F85EA6916";
width = 1200;
},
{
layerId = "AFA1064D-EFC9-4C9F-B9B0-9118E41D87C4";
width = 1200;
}
);
unicode = 948;
}
{
glyphname = pi;
kernLeft = pi;
kernRight = pi;
layers = (
{
background = {
shapes = (
{
closed = 1;
nodes = (
(313,142,o),
(170,266,o),
(170,639,cs),
(170,845,o),
(287,991,o),
(413,991,c),
(657,991,o),
(730,830,o),
(772,724,c),
(772,563,l),
(731,414,o),
(602,142,o),
(444,142,cs)
);
},
{
closed = 1;
nodes = (
(1081,160,o),
(1049,139,o),
(1005,139,cs),
(957,139,o),
(937,170,o),
(937,324,cs),
(937,686,o),
(942,896,o),
(995,1110,c),
(879,1144,o),
(798,1084,o),
(800,948,c),
(782,948,l),
(734,1065,o),
(647,1140,o),
(518,1140,c),
(277,1140,o),
(23,813,o),
(23,480,cs),
(23,132,o),
(240,-22,o),
(409,-22,cs),
(513,-22,o),
(730,178,o),
(790,444,c),
(740,110,o),
(835,-23,o),
(942,-23,cs),
(1059,-23,o),
(1136,48,o),
(1161,122,c),
(1110,187,l)
);
}
);
};
layerId = UUID0;
shapes = (
{
closed = 1;
nodes = (
(134,106,o),
(172,-18,o),
(282,-22,c),
(361,2,o),
(500,59,o),
(518,392,cs),
(548,944,l),
(976,944,l),
(961,682,o),
(917,426,o),
(909,200,cs),
(907,130,o),
(901,-23,o),
(1044,-23,cs),
(1161,-23,o),
(1240,48,o),
(1268,122,c),
(1219,187,l),
(1189,160,o),
(1184,139,o),
(1112,139,cs),
(1078,139,o),
(1045,170,o),
(1048,258,cs),
(1051,330,o),
(1053,376,o),
(1080,944,c),
(1127,944,ls),
(1291,944,o),
(1378,1014,o),
(1412,1204,c),
(1314,1204,l),
(1276,1126,o),
(1213,1110,o),
(1130,1110,cs),
(371,1110,ls),
(196,1110,o),
(55,994,o),
(50,836,c),
(145,822,l),
(165,884,o),
(233,944,o),
(381,944,cs),
(444,944,l),
(398,466,ls),
(380,279,o),
(338,144,o),
(158,142,c)
);
}
);
width = 1442;
},
{
layerId = "DEBB1CE4-A72D-4960-969E-E04A036D2FA1";
shapes = (
{
closed = 1;
nodes = (
(248,-19,l),
(406,-12,o),
(575,87,o),
(624,435,cs),
(680,831,l),
(903,831,l),
(839,463,o),
(816,302,o),
(811,191,cs),
(810,60,o),
(887,-19,o),
(1028,-19,cs),
(1271,-19,o),
(1399,171,o),
(1430,359,c),
(1292,359,l),
(1255,230,o),
(1184,197,o),
(1131,197,cs),
(1075,199,o),
(1057,245,o),
(1061,305,cs),
(1069,412,o),
(1061,500,o),
(1099,831,c),
(1155,831,ls),
(1377,831,o),
(1458,1011,o),
(1465,1214,c),
(1326,1214,l),
(1308,1136,o),
(1257,1112,o),
(1159,1112,cs),
(438,1112,ls),
(212,1112,o),
(96,945,o),
(96,718,c),
(218,705,l),
(236,767,o),
(293,831,o),
(371,831,cs),
(485,831,l),
(401,490,ls),
(351,286,o),
(236,171,o),
(75,147,c)
);
}
);
width = 1440;
},
{
layerId = "184155C8-9F61-4F1C-9784-DDA8EA717636";
shapes = (
{
closed = 1;
nodes = (
(141,-20,l),
(369,-20,o),
(437,167,o),
(458,409,cs),
(486,732,l),
(787,732,l),
(747,590,o),
(670,311,o),
(670,237,cs),
(670,44,o),
(724,-20,o),
(888,-20,cs),
(1077,-20,o),
(1130,203,o),
(1175,411,c),
(1125,411,l),
(1092,304,o),
(1014,262,o),
(953,262,cs),
(898,262,o),
(841,308,o),
(841,415,cs),
(841,546,o),
(843,621,o),
(848,732,c),
(976,732,ls),
(1141,732,o),
(1232,877,o),
(1232,1122,c),
(1140,1122,l),
(1127,1044,o),
(1094,1024,o),
(1009,1024,cs),
(377,1024,ls),
(139,1024,o),
(47,879,o),
(47,595,c),
(138,588,l),
(148,667,o),
(191,732,o),
(269,732,cs),
(426,732,l),
(339,507,ls),
(283,362,o),
(246,242,o),
(12,190,c)
);
}
);
width = 1190;
},
{
layerId = "EA2265BD-E890-48C4-9E90-A53076E780C5";
shapes = (
{
closed = 1;
nodes = (
(206,-19,l),
(345,-12,o),
(476,89,o),
(537,435,cs),
(604,815,l),
(800,815,l),
(744,447,o),
(690,302,o),
(686,191,cs),
(685,60,o),
(777,-19,o),
(901,-19,cs),
(1115,-19,o),
(1219,171,o),
(1246,359,c),
(1125,359,l),
(1092,230,o),
(1030,197,o),
(983,197,cs),
(934,199,o),
(918,245,o),
(921,305,cs),
(928,412,o),
(939,484,o),
(972,815,c),
(1022,815,ls),
(1217,815,o),
(1288,1011,o),
(1294,1214,c),
(1172,1214,l),
(1156,1136,o),
(1111,1112,o),
(1025,1112,cs),
(391,1113,ls),
(192,1113,o),
(90,929,o),
(90,702,c),
(197,689,l),
(213,751,o),
(263,815,o),
(332,815,cs),
(432,815,l),
(340,490,ls),
(283,289,o),
(195,171,o),
(54,147,c)
);
}
);
width = 1275;
},
{
layerId = "0E4B6E2E-ECAB-4D06-9686-B0B40AA31834";
shapes = (
{
closed = 1;
nodes = (
(105,-16,l),
(255,12,o),
(348,92,o),
(404,422,cs),
(496,965,l),
(774,965,l),
(698,453,o),
(649,302,o),
(635,154,cs),
(625,50,o),
(702,-16,o),
(793,-16,cs),
(964,-16,o),
(1077,156,o),
(1107,290,c),
(1017,290,l),
(987,172,o),
(901,110,o),
(837,110,cs),
(808,110,o),
(778,140,o),
(781,206,cs),
(792,286,o),
(816,355,o),
(885,965,c),
(906,965,ls),
(1050,965,o),
(1160,1034,o),
(1184,1204,c),
(1098,1204,l),
(1066,1126,o),
(1029,1110,o),
(932,1110,cs),
(360,1110,ls),
(213,1110,o),
(49,1014,o),
(49,856,c),
(133,842,l),
(149,904,o),
(225,965,o),
(329,965,cs),
(396,965,l),
(290,466,ls),
(251,282,o),
(239,144,o),
(28,82,c)
);
}
);
width = 1170;
},
{
layerId = "F2B10EEF-9DDC-48CA-970D-6B8C79870881";
shapes = (
{
closed = 1;
nodes = (
(131,-20,l),
(359,-20,o),
(427,167,o),
(448,409,cs),
(476,737,l),
(697,737,l),
(657,595,o),
(580,311,o),
(580,237,cs),
(580,44,o),
(634,-20,o),
(798,-20,cs),
(987,-20,o),
(1040,203,o),
(1085,411,c),
(1035,411,l),
(1002,304,o),
(924,262,o),
(863,262,cs),
(808,262,o),
(751,308,o),
(751,415,cs),
(751,546,o),
(753,626,o),
(758,737,c),
(876,737,ls),
(1041,737,o),
(1132,877,o),
(1132,1122,c),
(1040,1122,l),
(1027,1044,o),
(994,1024,o),
(909,1024,cs),
(367,1024,ls),
(129,1024,o),
(37,879,o),
(37,595,c),
(128,588,l),
(138,667,o),
(181,737,o),
(259,737,cs),
(416,737,l),
(329,507,ls),
(274,362,o),
(236,242,o),
(2,190,c)
);
}
);
width = 1092;
},
{
layerId = "E96AC896-F5DF-475B-BBD9-C7FEC6A86D0E";
shapes = (
{
closed = 1;
nodes = (
(143,-16,l),
(335,59,o),
(366,284,o),
(377,374,cs),
(440,874,l),
(760,874,l),
(711,610,o),
(640,288,o),
(640,161,cs),
(640,52,o),
(682,-16,o),
(797,-16,cs),
(965,-16,o),
(1051,177,o),
(1072,316,c),
(1027,316,l),
(990,190,o),
(916,106,o),
(852,106,cs),
(767,106,o),
(754,178,o),
(754,258,cs),
(754,331,o),
(776,529,o),
(816,874,c),
(859,874,ls),
(1002,874,o),
(1090,928,o),
(1117,1099,c),
(1065,1099,l),
(1031,1021,o),
(993,1005,o),
(890,1005,cs),
(355,1005,ls),
(188,1005,o),
(104,938,o),
(83,770,c),
(135,759,l),
(159,844,o),
(213,874,o),
(309,874,cs),
(394,874,l),
(302,501,ls),
(256,316,o),
(193,126,o),
(14,65,c)
);
}
);
width = 1077;
},
{
layerId = "C9B9556E-C2FD-4F62-BB40-44923C452C22";
shapes = (
{
closed = 1;
nodes = (
(149,-16,l),
(371,59,o),
(391,284,o),
(403,374,cs),
(466,851,l),
(828,851,l),
(779,587,o),
(708,288,o),
(708,161,cs),
(708,52,o),
(750,-16,o),
(865,-16,cs),
(1033,-16,o),
(1117,177,o),
(1138,316,c),
(1093,316,l),
(1056,190,o),
(984,106,o),
(920,106,cs),
(835,106,o),
(822,178,o),
(822,258,cs),
(822,331,o),
(844,506,o),
(884,851,c),
(925,851,ls),
(1068,851,o),
(1176,928,o),
(1203,1099,c),
(1151,1099,l),
(1117,1021,o),
(1079,1005,o),
(996,1005,cs),
(381,1005,ls),
(194,1005,o),
(110,938,o),
(89,770,c),
(141,759,l),
(165,844,o),
(219,851,o),
(335,851,cs),
(420,851,l),
(328,501,ls),
(279,316,o),
(229,126,o),
(20,65,c)
);
}
);
width = 1170;
},
{
layerId = "AFA1064D-EFC9-4C9F-B9B0-9118E41D87C4";
shapes = (
{
closed = 1;
nodes = (
(141,-20,l),
(369,-20,o),
(437,167,o),
(458,409,cs),
(486,732,l),
(827,732,l),
(787,590,o),
(710,311,o),
(710,237,cs),
(710,44,o),
(764,-20,o),
(928,-20,cs),
(1117,-20,o),
(1160,203,o),
(1205,411,c),
(1155,411,l),
(1122,304,o),
(1054,262,o),
(993,262,cs),
(938,262,o),
(881,308,o),
(881,415,cs),
(881,546,o),
(883,621,o),
(888,732,c),
(1016,732,ls),
(1181,732,o),
(1262,877,o),
(1262,1122,c),
(1170,1122,l),
(1157,1044,o),
(1124,1024,o),
(1039,1024,cs),
(377,1024,ls),
(139,1024,o),
(47,879,o),
(47,595,c),
(138,588,l),
(148,667,o),
(191,732,o),
(269,732,cs),
(426,732,l),
(339,507,ls),
(283,362,o),
(246,242,o),
(12,190,c)
);
}
);
width = 1222;
},
{
layerId = "2103F1D3-C390-4F79-A87D-298F85EA6916";
shapes = (
{
closed = 1;
nodes = (
(145,-16,l),
(367,39,o),
(387,284,o),
(399,374,cs),
(462,860,l),
(874,860,l),
(825,596,o),
(744,288,o),
(744,161,cs),
(744,52,o),
(796,-16,o),
(911,-16,cs),
(1079,-16,o),
(1143,177,o),
(1164,316,c),
(1119,316,l),
(1082,190,o),
(1030,106,o),
(966,106,cs),
(881,106,o),
(868,178,o),
(868,258,cs),
(868,331,o),
(890,515,o),
(930,860,c),
(991,860,ls),
(1134,860,o),
(1232,928,o),
(1259,1099,c),
(1207,1099,l),
(1173,1021,o),
(1135,1005,o),
(1052,1005,cs),
(377,1005,ls),
(180,1005,o),
(96,938,o),
(75,770,c),
(127,759,l),
(151,844,o),
(205,860,o),
(321,860,cs),
(416,860,l),
(324,501,ls),
(277,316,o),
(225,126,o),
(16,65,c)
);
}
);
width = 1217;
},
{
layerId = "779F1615-9D1A-4778-9767-9A030AA58B6C";
shapes = (
{
closed = 1;
nodes = (
(116,-16,l),
(296,2,o),
(428,59,o),
(469,392,cs),
(540,973,l),
(976,973,l),
(890,461,o),
(850,302,o),
(834,154,cs),
(823,51,o),
(934,-16,o),
(1038,-16,cs),
(1232,-16,o),
(1340,156,o),
(1374,290,c),
(1272,290,l),
(1238,172,o),
(1140,110,o),
(1068,110,cs),
(1034,110,o),
(1000,140,o),
(1004,206,cs),
(1009,287,o),
(1024,363,o),
(1102,973,c),
(1126,973,ls),
(1290,973,o),
(1434,1034,o),
(1462,1204,c),
(1364,1204,l),
(1328,1126,o),
(1266,1110,o),
(1156,1110,cs),
(386,1110,ls),
(218,1110,o),
(52,1014,o),
(52,856,c),
(148,842,l),
(166,904,o),
(232,973,o),
(350,973,cs),
(426,973,l),
(326,466,ls),
(289,280,o),
(268,144,o),
(28,82,c)
);
}
);
userData = {
com.schriftgestaltung.Glyphs.lastChange = "2019-04-25 21:50:43 +0000";
};
width = 1452;
},
{
layerId = "97BB7961-D669-43AB-8BBF-11FFD0C46A4B";
shapes = (
{
closed = 1;
nodes = (
(225,-19,l),
(383,-12,o),
(587,85,o),
(621,435,cs),
(657,801,l),
(940,801,l),
(876,433,o),
(833,302,o),
(828,191,cs),
(822,60,o),
(924,-19,o),
(1065,-19,cs),
(1308,-19,o),
(1436,171,o),
(1467,359,c),
(1329,359,l),
(1292,230,o),
(1221,197,o),
(1168,197,cs),
(1112,197,o),
(1094,245,o),
(1098,305,cs),
(1105,412,o),
(1098,470,o),
(1136,801,c),
(1202,801,ls),
(1424,801,o),
(1495,1011,o),
(1502,1214,c),
(1363,1214,l),
(1345,1136,o),
(1294,1112,o),
(1196,1112,cs),
(445,1113,ls),
(219,1113,o),
(103,915,o),
(103,688,c),
(225,675,l),
(243,737,o),
(300,801,o),
(378,801,cs),
(462,801,l),
(378,490,ls),
(323,287,o),
(213,171,o),
(52,147,c)
);
}
);
width = 1461;
}
);
unicode = 960;
}
{
glyphname = rho;
layers = (
{
layerId = UUID0;
shapes = (
{
closed = 1;
nodes = (
(183,248,o),
(307,-55,o),
(635,-22,cs),
(867,1,o),
(1105,192,o),
(1105,586,cs),
(1105,874,o),
(981,1140,o),
(653,1140,cs),
(420,1140,o),
(183,926,o),
(183,532,cs)
);
},
{
closed = 1;
nodes = (
(386,152,o),
(277,350,o),
(277,541,cs),
(277,824,o),
(420,966,o),
(646,966,cs),
(907,966,o),
(1011,765,o),
(1011,577,cs),
(1011,295,o),
(868,152,o),
(644,152,cs)
);
},
{
closed = 1;
nodes = (
(102,-462,l),
(116,-476,o),
(152,-485,o),
(191,-485,cs),
(250,-485,o),
(303,-464,o),
(303,-409,c),
(277,541,l),
(277,760,o),
(210,776,o),
(183,532,c)
);
}
);
width = 1177;
},
{
layerId = "DEBB1CE4-A72D-4960-969E-E04A036D2FA1";
width = 12224;
},
{
layerId = "0E4B6E2E-ECAB-4D06-9686-B0B40AA31834";
width = 12648;
},
{
layerId = "EA2265BD-E890-48C4-9E90-A53076E780C5";
width = 11376;
},
{
layerId = "779F1615-9D1A-4778-9767-9A030AA58B6C";
width = 13496;
},
{
layerId = "97BB7961-D669-43AB-8BBF-11FFD0C46A4B";
width = 11376;
},
{
layerId = "C9B9556E-C2FD-4F62-BB40-44923C452C22";
width = 11800;
},
{
layerId = "184155C8-9F61-4F1C-9784-DDA8EA717636";
width = 7772;
},
{
layerId = "E96AC896-F5DF-475B-BBD9-C7FEC6A86D0E";
width = 10316;
},
{
layerId = "F2B10EEF-9DDC-48CA-970D-6B8C79870881";
width = 8196;
},
{
layerId = "2103F1D3-C390-4F79-A87D-298F85EA6916";
width = 9680;
},
{
layerId = "AFA1064D-EFC9-4C9F-B9B0-9118E41D87C4";
width = 6288;
}
);
metricRight = omicron;
unicode = 961;
}
{
category = Letter;
glyphname = "yat-cy";
kernLeft = "yat-cy";
kernRight = "lje-cy";
layers = (
{
layerId = UUID0;
shapes = (
{
closed = 1;
nodes = (
(1153,-12,o),
(1323,141,o),
(1323,358,cs),
(1323,558,o),
(1180,684,o),
(906,684,cs),
(829,684,o),
(738,675,o),
(678,664,c),
(678,1020,l),
(986,1014,l),
(1034,804,l),
(1141,804,l),
(1131,1122,l),
(678,1122,l),
(678,1612,l),
(640,1638,l),
(638,1638,l),
(349,1604,l),
(349,1530,l),
(519,1512,l),
(519,1122,l),
(86,1122,l),
(76,804,l),
(181,804,l),
(231,1014,l),
(519,1020,l),
(519,102,l),
(291,86,l),
(291,0,l),
(556,0,ls),
(624,0,o),
(806,-12,o),
(884,-12,cs)
);
},
{
closed = 1;
nodes = (
(800,86,o),
(730,90,o),
(678,96,c),
(678,570,l),
(729,579,o),
(806,588,o),
(870,588,cs),
(1047,588,o),
(1158,516,o),
(1158,348,cs),
(1158,189,o),
(1057,86,o),
(872,86,cs)
);
}
);
width = 1383;
},
{
layerId = "DEBB1CE4-A72D-4960-969E-E04A036D2FA1";
shapes = (
{
closed = 1;
nodes = (
(1316,-18,o),
(1461,104,o),
(1461,361,cs),
(1461,563,o),
(1339,689,o),
(1034,689,cs),
(917,689,o),
(820,670,o),
(782,659,c),
(782,993,l),
(955,979,l),
(1018,796,l),
(1204,796,l),
(1194,1124,l),
(782,1124,l),
(782,1597,l),
(723,1639,l),
(718,1639,l),
(319,1592,l),
(319,1471,l),
(460,1444,l),
(460,1124,l),
(50,1124,l),
(40,796,l),
(226,796,l),
(286,979,l),
(460,993,l),
(460,150,l),
(248,132,l),
(248,0,l),
(634,0,ls),
(707,0,o),
(953,-18,o),
(1003,-18,cs)
);
},
{
closed = 1;
nodes = (
(847,117,o),
(810,122,o),
(782,131,c),
(782,525,l),
(808,535,o),
(875,553,o),
(936,553,cs),
(1072,553,o),
(1122,466,o),
(1122,350,cs),
(1122,218,o),
(1056,117,o),
(901,117,cs)
);
}
);
width = 1495;
},
{
guides = (
{
pos = (500,608);
}
);
layerId = "184155C8-9F61-4F1C-9784-DDA8EA717636";
shapes = (
{
closed = 1;
nodes = (
(1157,-12,o),
(1329,102,o),
(1329,323,cs),
(1329,530,o),
(1177,608,o),
(964,608,cs),
(867,608,o),
(796,592,o),
(745,573,c),
(745,975,l),
(878,965,l),
(940,702,l),
(1138,702,l),
(1128,1023,l),
(745,1023,l),
(745,1590,l),
(690,1634,l),
(654,1634,l),
(297,1519,l),
(297,1480,l),
(407,1433,l),
(407,1023,l),
(36,1023,l),
(26,702,l),
(224,702,l),
(286,965,l),
(407,975,l),
(407,72,l),
(219,38,l),
(219,0,l),
(552,0,ls),
(643,0,o),
(821,-12,o),
(897,-12,cs)
);
},
{
closed = 1;
nodes = (
(785,48,o),
(760,54,o),
(745,62,c),
(745,529,l),
(760,534,o),
(796,539,o),
(822,539,cs),
(908,539,o),
(987,478,o),
(987,307,cs),
(987,129,o),
(902,48,o),
(809,48,cs)
);
}
);
width = 1361;
},
{
layerId = "EA2265BD-E890-48C4-9E90-A53076E780C5";
shapes = (
{
closed = 1;
nodes = (
(1100,-6,o),
(1275,131,o),
(1275,365,cs),
(1275,589,o),
(1113,697,o),
(872,697,cs),
(803,697,o),
(740,688,o),
(705,679,c),
(705,994,l),
(851,982,l),
(909,792,l),
(1085,792,l),
(1077,1124,l),
(705,1124,l),
(705,1597,l),
(649,1639,l),
(644,1639,l),
(293,1592,l),
(293,1473,l),
(407,1446,l),
(407,1124,l),
(47,1124,l),
(39,792,l),
(215,792,l),
(273,982,l),
(407,994,l),
(407,150,l),
(217,132,l),
(217,0,l),
(543,0,ls),
(604,0,o),
(777,-6,o),
(840,-6,cs)
);
},
{
closed = 1;
nodes = (
(752,122,o),
(721,126,o),
(705,132,c),
(705,559,l),
(727,566,o),
(762,571,o),
(790,571,cs),
(895,571,o),
(951,492,o),
(951,357,cs),
(951,212,o),
(890,122,o),
(776,122,cs)
);
}
);
width = 1319;
},
{
layerId = "0E4B6E2E-ECAB-4D06-9686-B0B40AA31834";
shapes = (
{
closed = 1;
nodes = (
(987,-12,o),
(1137,134,o),
(1137,353,cs),
(1137,565,o),
(993,682,o),
(765,682,cs),
(700,682,o),
(628,673,o),
(576,662,c),
(576,1022,l),
(828,1016,l),
(871,802,l),
(974,802,l),
(966,1122,l),
(576,1122,l),
(576,1612,l),
(541,1638,l),
(539,1638,l),
(280,1604,l),
(280,1532,l),
(423,1514,l),
(423,1122,l),
(50,1122,l),
(42,802,l),
(143,802,l),
(187,1016,l),
(423,1022,l),
(423,101,l),
(217,85,l),
(217,0,l),
(468,0,ls),
(530,0,o),
(692,-12,o),
(755,-12,cs)
);
},
{
closed = 1;
nodes = (
(683,84,o),
(611,88,o),
(576,94,c),
(576,570,l),
(615,579,o),
(675,588,o),
(731,588,cs),
(877,588,o),
(976,525,o),
(976,343,cs),
(976,179,o),
(894,84,o),
(725,84,cs)
);
}
);
width = 1173;
},
{
guides = (
{
pos = (500,604);
}
);
layerId = "F2B10EEF-9DDC-48CA-970D-6B8C79870881";
shapes = (
{
closed = 1;
nodes = (
(1001,-12,o),
(1154,103,o),
(1154,323,cs),
(1154,531,o),
(1018,604,o),
(837,604,cs),
(756,604,o),
(693,589,o),
(652,569,c),
(652,977,l),
(744,973,l),
(784,702,l),
(974,702,l),
(962,1023,l),
(652,1023,l),
(652,1609,l),
(633,1634,l),
(580,1634,l),
(225,1519,l),
(225,1480,l),
(336,1433,l),
(336,1023,l),
(36,1023,l),
(24,702,l),
(214,702,l),
(254,973,l),
(336,977,l),
(336,71,l),
(210,38,l),
(210,0,l),
(473,0,ls),
(556,0,o),
(715,-12,o),
(782,-12,cs)
);
},
{
closed = 1;
nodes = (
(681,46,o),
(661,53,o),
(652,62,c),
(652,527,l),
(659,533,o),
(684,539,o),
(703,539,cs),
(766,539,o),
(834,478,o),
(834,307,cs),
(834,129,o),
(763,46,o),
(698,46,cs)
);
}
);
width = 1184;
},
{
guides = (
{
pos = (501,594);
}
);
layerId = "E96AC896-F5DF-475B-BBD9-C7FEC6A86D0E";
shapes = (
{
closed = 1;
nodes = (
(873,-12,o),
(1003,120,o),
(1003,321,cs),
(1003,520,o),
(877,594,o),
(701,594,cs),
(613,594,o),
(554,576,o),
(500,554,c),
(500,967,l),
(714,961,l),
(760,706,l),
(832,706,l),
(826,1017,l),
(500,1017,l),
(500,1625,l),
(485,1638,l),
(458,1638,l),
(230,1606,l),
(230,1579,l),
(364,1560,l),
(364,1017,l),
(50,1017,l),
(44,706,l),
(114,706,l),
(160,961,l),
(364,967,l),
(364,67,l),
(212,36,l),
(212,0,l),
(410,0,ls),
(480,0,o),
(561,-12,o),
(634,-12,cs)
);
},
{
closed = 1;
nodes = (
(566,40,o),
(526,54,o),
(500,64,c),
(500,510,l),
(540,524,o),
(606,536,o),
(654,536,cs),
(774,536,o),
(861,464,o),
(861,305,cs),
(861,132,o),
(758,40,o),
(621,40,cs)
);
}
);
width = 1043;
},
{
guides = (
{
pos = (507,596);
}
);
layerId = "C9B9556E-C2FD-4F62-BB40-44923C452C22";
shapes = (
{
closed = 1;
nodes = (
(977,-12,o),
(1125,120,o),
(1125,324,cs),
(1125,526,o),
(980,596,o),
(785,596,cs),
(689,596,o),
(619,578,o),
(558,556,c),
(558,963,l),
(814,957,l),
(868,706,l),
(948,706,l),
(940,1017,l),
(558,1017,l),
(558,1625,l),
(544,1638,l),
(502,1638,l),
(283,1606,l),
(283,1579,l),
(418,1560,l),
(418,1017,l),
(48,1017,l),
(40,706,l),
(118,706,l),
(172,957,l),
(418,963,l),
(418,67,l),
(230,36,l),
(230,0,l),
(462,0,ls),
(541,0,o),
(627,-12,o),
(708,-12,cs)
);
},
{
closed = 1;
nodes = (
(635,44,o),
(588,58,o),
(558,68,c),
(558,512,l),
(603,525,o),
(682,536,o),
(738,536,cs),
(876,536,o),
(977,467,o),
(977,305,cs),
(977,130,o),
(857,44,o),
(699,44,cs)
);
}
);
width = 1175;
},
{
guides = (
{
pos = (494,610);
}
);
layerId = "AFA1064D-EFC9-4C9F-B9B0-9118E41D87C4";
shapes = (
{
closed = 1;
nodes = (
(1252,-6,o),
(1409,110,o),
(1409,323,cs),
(1409,540,o),
(1248,610,o),
(1023,610,cs),
(923,610,o),
(849,594,o),
(792,576,c),
(792,967,l),
(935,959,l),
(993,702,l),
(1217,702,l),
(1207,1023,l),
(792,1023,l),
(792,1590,l),
(736,1634,l),
(698,1634,l),
(334,1519,l),
(334,1480,l),
(445,1434,l),
(445,1023,l),
(38,1023,l),
(28,702,l),
(252,702,l),
(310,959,l),
(445,967,l),
(445,72,l),
(257,38,l),
(257,0,l),
(598,0,ls),
(688,0,o),
(871,-6,o),
(976,-6,cs)
);
},
{
closed = 1;
nodes = (
(840,56,o),
(806,59,o),
(792,63,c),
(792,530,l),
(808,534,o),
(854,539,o),
(882,539,cs),
(970,539,o),
(1052,485,o),
(1052,308,cs),
(1052,125,o),
(963,56,o),
(864,56,cs)
);
}
);
width = 1443;
},
{
guides = (
{
pos = (520,596);
}
);
layerId = "2103F1D3-C390-4F79-A87D-298F85EA6916";
shapes = (
{
closed = 1;
nodes = (
(1069,-12,o),
(1229,116,o),
(1229,324,cs),
(1229,530,o),
(1071,598,o),
(864,598,cs),
(762,598,o),
(674,578,o),
(613,556,c),
(613,961,l),
(903,955,l),
(957,706,l),
(1039,706,l),
(1031,1017,l),
(613,1017,l),
(613,1625,l),
(599,1638,l),
(557,1638,l),
(315,1606,l),
(315,1579,l),
(469,1560,l),
(469,1017,l),
(63,1017,l),
(55,706,l),
(135,706,l),
(189,955,l),
(469,961,l),
(469,67,l),
(279,36,l),
(279,0,l),
(517,0,ls),
(596,0,o),
(700,-12,o),
(787,-12,cs)
);
},
{
closed = 1;
nodes = (
(708,48,o),
(643,62,o),
(613,72,c),
(613,512,l),
(658,525,o),
(755,536,o),
(817,536,cs),
(967,536,o),
(1079,471,o),
(1079,305,cs),
(1079,126,o),
(948,48,o),
(778,48,cs)
);
}
);
width = 1277;
},
{
layerId = "779F1615-9D1A-4778-9767-9A030AA58B6C";
shapes = (
{
closed = 1;
nodes = (
(1226,-22,o),
(1383,123,o),
(1383,349,cs),
(1383,560,o),
(1250,686,o),
(958,686,cs),
(876,686,o),
(782,673,o),
(710,662,c),
(710,1036,l),
(1062,1036,l),
(1112,800,l),
(1220,800,l),
(1210,1120,l),
(710,1120,l),
(710,1612,l),
(672,1638,l),
(670,1638,l),
(390,1604,l),
(390,1528,l),
(552,1514,l),
(552,1120,l),
(94,1120,l),
(84,800,l),
(192,800,l),
(242,1036,l),
(552,1036,l),
(552,102,l),
(354,82,l),
(354,0,l),
(588,0,ls),
(656,0,o),
(860,-22,o),
(952,-22,cs)
);
},
{
closed = 1;
nodes = (
(830,74,o),
(746,84,o),
(710,90,c),
(710,563,l),
(768,575,o),
(846,587,o),
(914,587,cs),
(1109,587,o),
(1219,516,o),
(1219,348,cs),
(1219,169,o),
(1130,74,o),
(942,74,cs)
);
}
);
userData = {
com.schriftgestaltung.Glyphs.lastChange = "2019-04-25 21:50:43 +0000";
};
width = 1446;
},
{
layerId = "97BB7961-D669-43AB-8BBF-11FFD0C46A4B";
shapes = (
{
closed = 1;
nodes = (
(1345,-18,o),
(1490,104,o),
(1490,361,cs),
(1490,563,o),
(1368,689,o),
(1063,689,cs),
(946,689,o),
(849,670,o),
(811,659,c),
(811,995,l),
(1051,987,l),
(1114,791,l),
(1280,791,l),
(1270,1124,l),
(811,1124,l),
(811,1597,l),
(752,1639,l),
(747,1639,l),
(348,1592,l),
(348,1470,l),
(487,1445,l),
(487,1124,l),
(59,1124,l),
(49,791,l),
(217,791,l),
(274,987,l),
(487,995,l),
(487,150,l),
(359,125,l),
(359,0,l),
(663,0,ls),
(736,0,o),
(982,-18,o),
(1032,-18,cs)
);
},
{
closed = 1;
nodes = (
(876,117,o),
(839,122,o),
(811,131,c),
(812,525,l),
(838,535,o),
(904,553,o),
(965,553,cs),
(1101,553,o),
(1151,466,o),
(1151,350,cs),
(1151,218,o),
(1085,117,o),
(930,117,cs)
);
}
);
width = 1540;
}
);
metricLeft = "te-cy";
metricRight = "softsign-cy";
subCategory = Lowercase;
unicode = 1123;
}
{
glyphname = "Yusbigiotified-cy";
layers = (
{
layerId = UUID0;
shapes = (
{
closed = 1;
nodes = (
(368,675,l),
(1411,675,l),
(1489,778,l),
(368,778,l)
);
},
{
ref = I;
},
{
pos = (721,0);
ref = "Yusbig-cy";
}
);
width = 2787;
},
{
layerId = "DEBB1CE4-A72D-4960-969E-E04A036D2FA1";
shapes = (
{
closed = 1;
nodes = (
(368,675,l),
(1411,675,l),
(1489,778,l),
(368,778,l)
);
},
{
ref = I;
},
{
pos = (809,0);
ref = "Yusbig-cy";
}
);
width = 3025;
},
{
layerId = "0E4B6E2E-ECAB-4D06-9686-B0B40AA31834";
shapes = (
{
closed = 1;
nodes = (
(368,675,l),
(1411,675,l),
(1489,778,l),
(368,778,l)
);
},
{
ref = I;
},
{
pos = (721,0);
ref = "Yusbig-cy";
}
);
width = 2520;
},
{
layerId = "EA2265BD-E890-48C4-9E90-A53076E780C5";
shapes = (
{
closed = 1;
nodes = (
(368,675,l),
(1411,675,l),
(1489,778,l),
(368,778,l)
);
},
{
ref = I;
},
{
pos = (721,0);
ref = "Yusbig-cy";
}
);
width = 2646;
},
{
layerId = "779F1615-9D1A-4778-9767-9A030AA58B6C";
shapes = (
{
closed = 1;
nodes = (
(368,675,l),
(1411,675,l),
(1489,778,l),
(368,778,l)
);
},
{
ref = I;
},
{
pos = (721,0);
ref = "Yusbig-cy";
}
);
width = 3034;
},
{
layerId = "97BB7961-D669-43AB-8BBF-11FFD0C46A4B";
shapes = (
{
closed = 1;
nodes = (
(368,675,l),
(1411,675,l),
(1489,778,l),
(368,778,l)
);
},
{
ref = I;
},
{
pos = (721,0);
ref = "Yusbig-cy";
}
);
width = 2952;
},
{
layerId = "C9B9556E-C2FD-4F62-BB40-44923C452C22";
shapes = (
{
closed = 1;
nodes = (
(368,675,l),
(1411,675,l),
(1489,778,l),
(368,778,l)
);
},
{
ref = I;
},
{
pos = (721,0);
ref = "Yusbig-cy";
}
);
width = 2660;
},
{
layerId = "184155C8-9F61-4F1C-9784-DDA8EA717636";
shapes = (
{
closed = 1;
nodes = (
(368,675,l),
(1411,675,l),
(1489,778,l),
(368,778,l)
);
},
{
ref = I;
},
{
pos = (721,0);
ref = "Yusbig-cy";
}
);
width = 2949;
},
{
layerId = "E96AC896-F5DF-475B-BBD9-C7FEC6A86D0E";
shapes = (
{
closed = 1;
nodes = (
(368,675,l),
(1411,675,l),
(1489,778,l),
(368,778,l)
);
},
{
ref = I;
},
{
pos = (721,0);
ref = "Yusbig-cy";
}
);
width = 2380;
},
{
layerId = "F2B10EEF-9DDC-48CA-970D-6B8C79870881";
shapes = (
{
closed = 1;
nodes = (
(368,675,l),
(1411,675,l),
(1489,778,l),
(368,778,l)
);
},
{
ref = I;
},
{
pos = (721,0);
ref = "Yusbig-cy";
}
);
width = 2769;
},
{
layerId = "2103F1D3-C390-4F79-A87D-298F85EA6916";
shapes = (
{
closed = 1;
nodes = (
(368,675,l),
(1411,675,l),
(1489,778,l),
(368,778,l)
);
},
{
ref = I;
},
{
pos = (721,0);
ref = "Yusbig-cy";
}
);
width = 2664;
},
{
layerId = "AFA1064D-EFC9-4C9F-B9B0-9118E41D87C4";
shapes = (
{
closed = 1;
nodes = (
(368,675,l),
(1411,675,l),
(1489,778,l),
(368,778,l)
);
},
{
ref = I;
},
{
pos = (721,0);
ref = "Yusbig-cy";
}
);
width = 3089;
}
);
metricLeft = I;
metricRight = "Yusbig-cy";
unicode = 1132;
}
{
glyphname = "Kahook-cy";
kernLeft = "Pe-cy";
kernRight = O;
layers = (
{
layerId = UUID0;
shapes = (
{
closed = 1;
nodes = (
(1232,1400,l),
(1232,1486,l),
(846,1486,l),
(846,1400,l),
(978,1378,l),
(632,838,l),
(552,826,o),
(480,802,o),
(420,778,c),
(420,1378,l),
(592,1400,l),
(592,1486,l),
(96,1486,l),
(96,1400,l),
(262,1378,l),
(262,106,l),
(96,88,l),
(96,0,l),
(596,0,l),
(596,84,l),
(420,104,l),
(420,684,l),
(508,712,o),
(580,736,o),
(706,736,cs),
(938,736,o),
(1084,606,o),
(1084,334,cs),
(1084,-94,o),
(942,-278,o),
(720,-278,cs),
(688,-278,o),
(656,-276,o),
(638,-272,c),
(638,-380,l),
(660,-390,o),
(720,-394,o),
(752,-394,cs),
(1050,-394,o),
(1250,-78,o),
(1250,350,cs),
(1250,626,o),
(1116,842,o),
(770,850,c),
(1118,1378,l)
);
}
);
width = 1280;
},
{
layerId = "DEBB1CE4-A72D-4960-969E-E04A036D2FA1";
shapes = (
{
closed = 1;
nodes = (
(1415,1346,l),
(1415,1486,l),
(887,1486,l),
(887,1346,l),
(1041,1318,l),
(741,838,l),
(671,824,o),
(603,800,o),
(567,782,c),
(567,1318,l),
(715,1346,l),
(715,1486,l),
(79,1486,l),
(79,1346,l),
(227,1318,l),
(227,154,l),
(79,132,l),
(79,0,l),
(747,0,l),
(747,130,l),
(567,154,l),
(567,628,l),
(625,662,o),
(705,692,o),
(815,692,cs),
(991,692,o),
(1085,576,o),
(1085,292,cs),
(1085,-84,o),
(997,-240,o),
(819,-240,cs),
(749,-240,o),
(711,-234,o),
(691,-226,c),
(703,-382,l),
(733,-394,o),
(787,-408,o),
(877,-408,cs),
(1205,-408,o),
(1425,-128,o),
(1425,340,cs),
(1425,688,o),
(1249,842,o),
(957,858,c),
(1281,1318,l)
);
}
);
width = 1471;
},
{
layerId = "184155C8-9F61-4F1C-9784-DDA8EA717636";
shapes = (
{
closed = 1;
nodes = (
(1358,1450,l),
(1358,1486,l),
(902,1486,l),
(902,1450,l),
(1085,1412,l),
(733,853,l),
(651,842,o),
(593,816,o),
(540,782,c),
(540,1412,l),
(693,1450,l),
(693,1486,l),
(23,1486,l),
(23,1450,l),
(156,1412,l),
(156,72,l),
(22,38,l),
(22,0,l),
(694,0,l),
(694,38,l),
(540,72,l),
(540,718,l),
(580,751,o),
(627,782,o),
(716,782,cs),
(861,782,o),
(994,605,o),
(994,292,cs),
(994,-128,o),
(856,-348,o),
(670,-348,cs),
(611,-348,o),
(589,-342,o),
(576,-338,c),
(576,-378,l),
(604,-390,o),
(668,-410,o),
(760,-410,cs),
(1108,-410,o),
(1382,-141,o),
(1382,286,cs),
(1382,671,o),
(1164,860,o),
(823,860,c),
(1193,1412,l)
);
}
);
width = 1402;
},
{
layerId = "EA2265BD-E890-48C4-9E90-A53076E780C5";
shapes = (
{
closed = 1;
nodes = (
(1211,1346,l),
(1211,1486,l),
(750,1486,l),
(750,1346,l),
(865,1319,l),
(625,842,l),
(573,827,o),
(526,804,o),
(501,786,c),
(501,1317,l),
(624,1346,l),
(624,1486,l),
(48,1486,l),
(48,1346,l),
(172,1317,l),
(172,155,l),
(48,133,l),
(48,0,l),
(656,0,l),
(656,131,l),
(501,155,l),
(501,634,l),
(533,664,o),
(584,692,o),
(650,692,cs),
(807,692,o),
(892,576,o),
(892,292,cs),
(892,-62,o),
(790,-248,o),
(638,-248,cs),
(584,-248,o),
(564,-244,o),
(552,-240,c),
(564,-388,l),
(583,-396,o),
(626,-410,o),
(688,-410,cs),
(998,-410,o),
(1228,-122,o),
(1228,336,cs),
(1228,670,o),
(1077,822,o),
(836,853,c),
(1105,1317,l)
);
}
);
width = 1261;
},
{
layerId = "0E4B6E2E-ECAB-4D06-9686-B0B40AA31834";
shapes = (
{
closed = 1;
nodes = (
(1062,1399,l),
(1062,1486,l),
(654,1486,l),
(654,1399,l),
(798,1377,l),
(536,839,l),
(466,823,o),
(381,806,o),
(357,793,c),
(357,1377,l),
(508,1399,l),
(508,1486,l),
(58,1486,l),
(58,1399,l),
(198,1377,l),
(198,107,l),
(58,89,l),
(58,0,l),
(512,0,l),
(512,85,l),
(357,107,l),
(357,696,l),
(414,718,o),
(461,736,o),
(533,736,cs),
(764,736,o),
(899,606,o),
(899,334,cs),
(899,-94,o),
(789,-278,o),
(602,-278,cs),
(570,-278,o),
(538,-276,o),
(520,-272,c),
(520,-380,l),
(542,-390,o),
(602,-394,o),
(634,-394,cs),
(899,-394,o),
(1066,-78,o),
(1066,350,cs),
(1066,617,o),
(978,827,o),
(663,848,c),
(936,1377,l)
);
}
);
width = 1091;
},
{
layerId = "F2B10EEF-9DDC-48CA-970D-6B8C79870881";
shapes = (
{
closed = 1;
nodes = (
(1204,1450,l),
(1204,1486,l),
(792,1486,l),
(792,1450,l),
(945,1412,l),
(662,854,l),
(601,845,o),
(543,826,o),
(503,802,c),
(503,1412,l),
(624,1450,l),
(624,1486,l),
(41,1486,l),
(41,1450,l),
(155,1412,l),
(155,72,l),
(40,38,l),
(40,0,l),
(625,0,l),
(625,38,l),
(503,72,l),
(503,739,l),
(529,761,o),
(573,782,o),
(630,782,cs),
(790,782,o),
(902,603,o),
(902,292,cs),
(902,-128,o),
(766,-348,o),
(583,-348,cs),
(524,-348,o),
(502,-342,o),
(489,-338,c),
(489,-378,l),
(517,-390,o),
(581,-410,o),
(673,-410,cs),
(997,-410,o),
(1255,-141,o),
(1255,286,cs),
(1255,667,o),
(1044,857,o),
(749,860,c),
(1055,1412,l)
);
}
);
width = 1265;
},
{
layerId = "E96AC896-F5DF-475B-BBD9-C7FEC6A86D0E";
shapes = (
{
closed = 1;
nodes = (
(1033,1450,l),
(1033,1486,l),
(658,1486,l),
(658,1450,l),
(812,1420,l),
(504,846,l),
(444,838,o),
(402,818,o),
(325,781,c),
(325,1420,l),
(465,1450,l),
(465,1486,l),
(38,1486,l),
(38,1450,l),
(170,1420,l),
(170,66,l),
(38,36,l),
(38,0,l),
(469,0,l),
(469,36,l),
(325,66,l),
(325,730,l),
(399,762,o),
(447,776,o),
(525,776,cs),
(758,776,o),
(893,633,o),
(893,334,cs),
(893,-143,o),
(744,-348,o),
(529,-348,cs),
(497,-348,o),
(465,-346,o),
(447,-342,c),
(447,-380,l),
(469,-390,o),
(529,-394,o),
(561,-394,cs),
(852,-394,o),
(1059,-78,o),
(1059,350,cs),
(1059,623,o),
(935,841,o),
(590,850,c),
(925,1420,l)
);
}
);
width = 1074;
},
{
layerId = "C9B9556E-C2FD-4F62-BB40-44923C452C22";
shapes = (
{
closed = 1;
nodes = (
(1123,1450,l),
(1123,1486,l),
(708,1486,l),
(708,1450,l),
(872,1419,l),
(530,837,l),
(479,826,o),
(406,807,o),
(342,780,c),
(342,1419,l),
(510,1450,l),
(510,1486,l),
(35,1486,l),
(35,1450,l),
(187,1419,l),
(187,67,l),
(35,36,l),
(35,0,l),
(514,0,l),
(514,36,l),
(342,67,l),
(342,729,l),
(427,762,o),
(511,776,o),
(601,776,cs),
(836,776,o),
(969,633,o),
(969,334,cs),
(969,-143,o),
(841,-348,o),
(605,-348,cs),
(573,-348,o),
(541,-346,o),
(523,-342,c),
(523,-380,l),
(545,-390,o),
(605,-394,o),
(637,-394,cs),
(948,-394,o),
(1135,-78,o),
(1135,350,cs),
(1135,627,o),
(1024,846,o),
(661,850,c),
(1010,1419,l)
);
}
);
width = 1155;
},
{
layerId = "AFA1064D-EFC9-4C9F-B9B0-9118E41D87C4";
shapes = (
{
closed = 1;
nodes = (
(1384,1450,l),
(1384,1486,l),
(948,1486,l),
(948,1450,l),
(1131,1412,l),
(793,858,l),
(696,851,o),
(618,822,o),
(556,782,c),
(556,1412,l),
(709,1450,l),
(709,1486,l),
(19,1486,l),
(19,1450,l),
(152,1412,l),
(152,72,l),
(18,38,l),
(18,0,l),
(710,0,l),
(710,38,l),
(556,72,l),
(556,718,l),
(596,751,o),
(643,782,o),
(732,782,cs),
(896,782,o),
(1020,603,o),
(1020,292,cs),
(1020,-128,o),
(922,-348,o),
(736,-348,cs),
(677,-348,o),
(655,-342,o),
(642,-338,c),
(642,-378,l),
(670,-390,o),
(734,-410,o),
(826,-410,cs),
(1186,-410,o),
(1428,-141,o),
(1428,286,cs),
(1428,657,o),
(1226,847,o),
(879,859,c),
(1239,1412,l)
);
}
);
width = 1438;
},
{
layerId = "2103F1D3-C390-4F79-A87D-298F85EA6916";
shapes = (
{
closed = 1;
nodes = (
(1209,1450,l),
(1209,1486,l),
(804,1486,l),
(804,1450,l),
(958,1420,l),
(620,849,l),
(535,845,o),
(450,822,o),
(337,777,c),
(337,1420,l),
(497,1450,l),
(497,1486,l),
(30,1486,l),
(30,1450,l),
(182,1420,l),
(182,66,l),
(30,36,l),
(30,0,l),
(501,0,l),
(501,36,l),
(337,66,l),
(337,726,l),
(432,761,o),
(515,776,o),
(615,776,cs),
(869,776,o),
(1050,633,o),
(1050,304,cs),
(1050,-103,o),
(897,-348,o),
(639,-348,cs),
(607,-348,o),
(575,-346,o),
(557,-342,c),
(557,-380,l),
(579,-390,o),
(639,-394,o),
(671,-394,cs),
(1002,-394,o),
(1216,-38,o),
(1216,320,cs),
(1216,619,o),
(1058,835,o),
(706,849,c),
(1081,1420,l)
);
}
);
width = 1231;
},
{
layerId = "779F1615-9D1A-4778-9767-9A030AA58B6C";
shapes = (
{
closed = 1;
nodes = (
(1260,1399,l),
(1260,1486,l),
(842,1486,l),
(842,1399,l),
(1020,1377,l),
(691,850,l),
(571,842,o),
(454,812,o),
(398,786,c),
(398,1377,l),
(572,1399,l),
(572,1486,l),
(69,1486,l),
(69,1399,l),
(235,1377,l),
(235,107,l),
(69,89,l),
(69,0,l),
(576,0,l),
(576,85,l),
(398,107,l),
(398,689,l),
(479,716,o),
(575,736,o),
(707,736,cs),
(968,736,o),
(1091,606,o),
(1091,334,cs),
(1091,-70,o),
(940,-282,o),
(653,-282,cs),
(617,-282,o),
(575,-282,o),
(555,-276,c),
(557,-380,l),
(579,-390,o),
(642,-396,o),
(675,-396,cs),
(1037,-396,o),
(1259,-70,o),
(1259,344,cs),
(1259,615,o),
(1155,826,o),
(813,850,c),
(1158,1377,l)
);
}
);
userData = {
com.schriftgestaltung.Glyphs.lastChange = "2019-04-25 21:50:43 +0000";
};
width = 1290;
},
{
layerId = "97BB7961-D669-43AB-8BBF-11FFD0C46A4B";
shapes = (
{
closed = 1;
nodes = (
(1501,1346,l),
(1501,1486,l),
(1000,1486,l),
(1000,1346,l),
(1134,1319,l),
(824,850,l),
(723,835,o),
(643,806,o),
(600,784,c),
(600,1317,l),
(742,1346,l),
(742,1486,l),
(73,1486,l),
(73,1346,l),
(218,1317,l),
(218,155,l),
(73,133,l),
(73,0,l),
(774,0,l),
(774,131,l),
(600,155,l),
(600,630,l),
(652,662,o),
(718,692,o),
(831,692,cs),
(1031,692,o),
(1131,576,o),
(1131,292,cs),
(1131,-62,o),
(1000,-248,o),
(785,-248,cs),
(693,-248,o),
(659,-238,o),
(639,-230,c),
(651,-378,l),
(679,-390,o),
(743,-410,o),
(835,-410,cs),
(1231,-410,o),
(1516,-122,o),
(1516,336,cs),
(1516,682,o),
(1335,832,o),
(1035,856,c),
(1374,1317,l)
);
}
);
width = 1536;
}
);
metricLeft = "Pe-cy";
metricRight = "Softsign-cy";
unicode = 1219;
}
{
color = 2;
glyphname = acutemacroncomb;
layers = (
{
anchors = (
{
name = _top;
pos = (426,1966);
},
{
name = top;
pos = (426,1738);
}
);
layerId = UUID0;
shapes = (
{
closed = 1;
nodes = (
(200,1355,o),
(398,1534,o),
(456,1628,c),
(320,1738,l),
(10,1352,l),
(74,1298,l)
);
},
{
closed = 1;
nodes = (
(842,1616,l),
(842,1738,l),
(320,1738,l),
(320,1616,l)
);
}
);
width = 852;
},
{
anchors = (
{
name = _top;
pos = (495,1966);
},
{
name = top;
pos = (495,1797);
}
);
layerId = "DEBB1CE4-A72D-4960-969E-E04A036D2FA1";
shapes = (
{
closed = 1;
nodes = (
(277,1328,o),
(482,1546,o),
(528,1626,c),
(359,1797,l),
(10,1371,l),
(125,1272,l)
);
},
{
closed = 1;
nodes = (
(980,1605,l),
(980,1797,l),
(359,1797,l),
(359,1605,l)
);
}
);
width = 990;
},
{
anchors = (
{
name = _top;
pos = (426,1966);
},
{
name = top;
pos = (426,1738);
}
);
layerId = "0E4B6E2E-ECAB-4D06-9686-B0B40AA31834";
shapes = (
{
closed = 1;
nodes = (
(172,1342,o),
(404,1543,o),
(456,1628,c),
(320,1738,l),
(10,1352,l),
(76,1298,l)
);
},
{
closed = 1;
nodes = (
(842,1616,l),
(842,1738,l),
(320,1738,l),
(320,1616,l)
);
}
);
width = 1200;
},
{
anchors = (
{
name = _top;
pos = (0,1966);
},
{
name = top;
}
);
layerId = "EA2265BD-E890-48C4-9E90-A53076E780C5";
shapes = (
{
closed = 1;
nodes = (
(277,1328,o),
(482,1546,o),
(528,1626,c),
(359,1797,l),
(10,1371,l),
(125,1272,l)
);
},
{
closed = 1;
nodes = (
(359,1605,l),
(980,1605,l),
(980,1797,l),
(359,1797,l)
);
}
);
width = 1200;
},
{
anchors = (
{
name = _top;
pos = (426,1966);
},
{
name = top;
pos = (426,1738);
}
);
layerId = "779F1615-9D1A-4778-9767-9A030AA58B6C";
shapes = (
{
closed = 1;
nodes = (
(200,1355,o),
(398,1534,o),
(456,1628,c),
(320,1738,l),
(10,1352,l),
(74,1298,l)
);
},
{
closed = 1;
nodes = (
(842,1616,l),
(842,1738,l),
(320,1738,l),
(320,1616,l)
);
}
);
width = 1200;
},
{
anchors = (
{
name = _top;
pos = (0,1966);
},
{
name = top;
}
);
layerId = "97BB7961-D669-43AB-8BBF-11FFD0C46A4B";
shapes = (
{
closed = 1;
nodes = (
(277,1328,o),
(482,1546,o),
(528,1626,c),
(359,1797,l),
(10,1371,l),
(125,1272,l)
);
},
{
closed = 1;
nodes = (
(359,1605,l),
(980,1605,l),
(980,1797,l),
(359,1797,l)
);
}
);
width = 1200;
},
{
anchors = (
{
name = _top;
pos = (340,1966);
},
{
name = top;
pos = (340,1577);
}
);
layerId = "C9B9556E-C2FD-4F62-BB40-44923C452C22";
shapes = (
{
closed = 1;
nodes = (
(229,1276,o),
(339,1426,o),
(375,1493,c),
(249,1577,l),
(10,1166,l),
(36,1146,l)
);
},
{
closed = 1;
nodes = (
(669,1465,l),
(669,1577,l),
(249,1577,l),
(249,1465,l)
);
}
);
width = 679;
},
{
anchors = (
{
name = top;
pos = (459,1601);
}
);
layerId = "184155C8-9F61-4F1C-9784-DDA8EA717636";
shapes = (
{
closed = 1;
nodes = (
(197,1169,o),
(404,1298,o),
(509,1429,c),
(308,1601,l),
(10,1153,l),
(51,1120,l)
);
},
{
closed = 1;
nodes = (
(858,1416,l),
(858,1601,l),
(308,1601,l),
(308,1416,l)
);
}
);
width = 868;
},
{
anchors = (
{
name = _top;
pos = (0,1966);
},
{
name = top;
pos = (340,1577);
}
);
layerId = "E96AC896-F5DF-475B-BBD9-C7FEC6A86D0E";
shapes = (
{
closed = 1;
nodes = (
(229,1276,o),
(339,1426,o),
(375,1493,c),
(249,1577,l),
(10,1166,l),
(36,1146,l)
);
},
{
closed = 1;
nodes = (
(669,1465,l),
(669,1577,l),
(249,1577,l),
(249,1465,l)
);
}
);
width = 1200;
},
{
anchors = (
{
name = _top;
pos = (0,1966);
},
{
name = top;
}
);
layerId = "F2B10EEF-9DDC-48CA-970D-6B8C79870881";
shapes = (
{
closed = 1;
nodes = (
(239,1183,o),
(424,1323,o),
(509,1429,c),
(308,1601,l),
(10,1153,l),
(49,1120,l)
);
},
{
closed = 1;
nodes = (
(858,1416,l),
(858,1601,l),
(308,1601,l),
(308,1416,l)
);
}
);
width = 1200;
},
{
anchors = (
{
name = _top;
pos = (0,1966);
},
{
name = top;
}
);
layerId = "2103F1D3-C390-4F79-A87D-298F85EA6916";
shapes = (
{
closed = 1;
nodes = (
(229,1276,o),
(339,1426,o),
(375,1493,c),
(249,1577,l),
(10,1166,l),
(36,1146,l)
);
},
{
closed = 1;
nodes = (
(669,1465,l),
(669,1577,l),
(249,1577,l),
(249,1465,l)
);
}
);
width = 1200;
},
{
layerId = "AFA1064D-EFC9-4C9F-B9B0-9118E41D87C4";
shapes = (
{
closed = 1;
nodes = (
(-235,1169,o),
(-28,1298,o),
(77,1429,c),
(-124,1601,l),
(-422,1153,l),
(-381,1120,l)
);
},
{
closed = 1;
nodes = (
(426,1416,l),
(426,1601,l),
(-124,1601,l),
(-124,1416,l)
);
}
);
width = 0;
}
);
unicode = 7623;
}
{
glyphname = quotedblleft;
kernLeft = quoteleft;
kernRight = quoteleft;
layers = (
{
layerId = UUID0;
shapes = (
{
closed = 1;
nodes = (
(470,924,o),
(506,954,o),
(506,1014,cs),
(506,1106,o),
(372,1144,o),
(372,1246,cs),
(372,1422,o),
(468,1582,o),
(512,1612,c),
(512,1630,l),
(466,1674,l),
(388,1636,o),
(234,1468,o),
(234,1234,cs),
(234,1072,o),
(324,924,o),
(418,924,cs)
);
},
{
closed = 1;
nodes = (
(976,924,o),
(1012,954,o),
(1012,1014,cs),
(1012,1106,o),
(878,1144,o),
(878,1246,cs),
(878,1422,o),
(974,1582,o),
(1018,1612,c),
(1018,1630,l),
(972,1674,l),
(894,1636,o),
(740,1468,o),
(740,1234,cs),
(740,1072,o),
(830,924,o),
(924,924,cs)
);
}
);
width = 1262;
},
{
layerId = "DEBB1CE4-A72D-4960-969E-E04A036D2FA1";
shapes = (
{
closed = 1;
nodes = (
(496,821,o),
(555,882,o),
(555,964,cs),
(555,1102,o),
(411,1113,o),
(411,1267,cs),
(411,1446,o),
(523,1567,o),
(564,1608,c),
(564,1639,l),
(493,1693,l),
(378,1627,o),
(178,1433,o),
(178,1148,cs),
(178,958,o),
(296,821,o),
(416,821,cs)
);
},
{
closed = 1;
nodes = (
(1058,821,o),
(1117,882,o),
(1117,964,cs),
(1117,1102,o),
(973,1113,o),
(973,1267,cs),
(973,1446,o),
(1085,1567,o),
(1126,1608,c),
(1126,1639,l),
(1055,1693,l),
(940,1627,o),
(740,1433,o),
(740,1148,cs),
(740,958,o),
(859,821,o),
(978,821,cs)
);
}
);
width = 1340;
},
{
layerId = "184155C8-9F61-4F1C-9784-DDA8EA717636";
shapes = (
{
closed = 1;
nodes = (
(398,927,o),
(453,982,o),
(453,1056,cs),
(453,1197,o),
(278,1188,o),
(278,1336,cs),
(278,1450,o),
(380,1588,o),
(456,1664,c),
(456,1670,l),
(424,1693,l),
(324,1636,o),
(110,1454,o),
(110,1213,cs),
(110,1052,o),
(216,927,o),
(326,927,cs)
);
},
{
closed = 1;
nodes = (
(842,927,o),
(897,982,o),
(897,1056,cs),
(897,1197,o),
(722,1188,o),
(722,1336,cs),
(722,1450,o),
(824,1588,o),
(900,1664,c),
(900,1670,l),
(868,1693,l),
(768,1636,o),
(554,1454,o),
(554,1213,cs),
(554,1052,o),
(660,927,o),
(770,927,cs)
);
}
);
width = 1030;
},
{
layerId = "EA2265BD-E890-48C4-9E90-A53076E780C5";
shapes = (
{
closed = 1;
nodes = (
(496,821,o),
(555,882,o),
(555,964,cs),
(555,1102,o),
(411,1113,o),
(411,1267,cs),
(411,1446,o),
(523,1567,o),
(564,1608,c),
(564,1639,l),
(493,1693,l),
(378,1627,o),
(178,1433,o),
(178,1148,cs),
(178,958,o),
(296,821,o),
(416,821,cs)
);
},
{
closed = 1;
nodes = (
(1058,821,o),
(1117,882,o),
(1117,964,cs),
(1117,1102,o),
(973,1113,o),
(973,1267,cs),
(973,1446,o),
(1085,1567,o),
(1126,1608,c),
(1126,1639,l),
(1055,1693,l),
(940,1627,o),
(740,1433,o),
(740,1148,cs),
(740,958,o),
(859,821,o),
(978,821,cs)
);
}
);
width = 1340;
},
{
layerId = "0E4B6E2E-ECAB-4D06-9686-B0B40AA31834";
shapes = (
{
closed = 1;
nodes = (
(470,924,o),
(506,954,o),
(506,1014,cs),
(506,1106,o),
(372,1144,o),
(372,1246,cs),
(372,1422,o),
(468,1582,o),
(512,1612,c),
(512,1630,l),
(466,1674,l),
(388,1636,o),
(234,1468,o),
(234,1234,cs),
(234,1072,o),
(324,924,o),
(418,924,cs)
);
},
{
closed = 1;
nodes = (
(976,924,o),
(1012,954,o),
(1012,1014,cs),
(1012,1106,o),
(878,1144,o),
(878,1246,cs),
(878,1422,o),
(974,1582,o),
(1018,1612,c),
(1018,1630,l),
(972,1674,l),
(894,1636,o),
(740,1468,o),
(740,1234,cs),
(740,1072,o),
(830,924,o),
(924,924,cs)
);
}
);
width = 1268;
},
{
layerId = "F2B10EEF-9DDC-48CA-970D-6B8C79870881";
shapes = (
{
closed = 1;
nodes = (
(328,927,o),
(371,974,o),
(371,1048,cs),
(371,1177,o),
(211,1191,o),
(211,1317,cs),
(211,1426,o),
(306,1588,o),
(375,1664,c),
(375,1670,l),
(344,1693,l),
(256,1636,o),
(70,1448,o),
(70,1213,cs),
(70,1055,o),
(158,927,o),
(262,927,cs)
);
},
{
closed = 1;
nodes = (
(723,927,o),
(766,974,o),
(766,1048,cs),
(766,1177,o),
(606,1191,o),
(606,1317,cs),
(606,1426,o),
(701,1588,o),
(770,1664,c),
(770,1670,l),
(739,1693,l),
(651,1636,o),
(465,1448,o),
(465,1213,cs),
(465,1055,o),
(553,927,o),
(657,927,cs)
);
}
);
width = 860;
},
{
layerId = "E96AC896-F5DF-475B-BBD9-C7FEC6A86D0E";
shapes = (
{
closed = 1;
nodes = (
(287,1069,o),
(309,1093,o),
(309,1139,cs),
(309,1225,o),
(203,1256,o),
(203,1362,cs),
(203,1477,o),
(270,1592,o),
(309,1635,c),
(309,1643,l),
(278,1664,l),
(215,1610,o),
(120,1459,o),
(120,1303,cs),
(120,1169,o),
(186,1069,o),
(251,1069,cs)
);
},
{
closed = 1;
nodes = (
(618,1069,o),
(640,1093,o),
(640,1139,cs),
(640,1225,o),
(534,1256,o),
(534,1362,cs),
(534,1477,o),
(601,1592,o),
(640,1635,c),
(640,1643,l),
(609,1664,l),
(546,1610,o),
(451,1459,o),
(451,1303,cs),
(451,1169,o),
(517,1069,o),
(582,1069,cs)
);
}
);
width = 775;
},
{
layerId = "C9B9556E-C2FD-4F62-BB40-44923C452C22";
shapes = (
{
closed = 1;
nodes = (
(324,1069,o),
(349,1093,o),
(349,1143,cs),
(349,1230,o),
(219,1257,o),
(219,1357,cs),
(219,1487,o),
(304,1593,o),
(352,1636,c),
(352,1645,l),
(324,1664,l),
(247,1616,o),
(130,1467,o),
(130,1311,cs),
(130,1179,o),
(199,1069,o),
(282,1069,cs)
);
},
{
closed = 1;
nodes = (
(695,1069,o),
(720,1093,o),
(720,1143,cs),
(720,1230,o),
(590,1257,o),
(590,1357,cs),
(590,1487,o),
(675,1593,o),
(723,1636,c),
(723,1645,l),
(695,1664,l),
(618,1616,o),
(501,1467,o),
(501,1311,cs),
(501,1179,o),
(570,1069,o),
(653,1069,cs)
);
}
);
width = 858;
},
{
layerId = "AFA1064D-EFC9-4C9F-B9B0-9118E41D87C4";
shapes = (
{
closed = 1;
nodes = (
(446,927,o),
(505,982,o),
(505,1056,cs),
(505,1193,o),
(300,1182,o),
(300,1335,cs),
(300,1444,o),
(410,1588,o),
(508,1666,c),
(508,1672,l),
(476,1693,l),
(366,1636,o),
(132,1458,o),
(132,1213,cs),
(132,1052,o),
(242,927,o),
(365,927,cs)
);
},
{
closed = 1;
nodes = (
(938,927,o),
(997,982,o),
(997,1056,cs),
(997,1193,o),
(792,1182,o),
(792,1335,cs),
(792,1444,o),
(902,1588,o),
(1000,1666,c),
(1000,1672,l),
(968,1693,l),
(858,1636,o),
(624,1458,o),
(624,1213,cs),
(624,1052,o),
(734,927,o),
(857,927,cs)
);
}
);
width = 1148;
},
{
layerId = "2103F1D3-C390-4F79-A87D-298F85EA6916";
shapes = (
{
closed = 1;
nodes = (
(329,1069,o),
(365,1101,o),
(365,1146,cs),
(365,1227,o),
(224,1245,o),
(224,1356,cs),
(224,1473,o),
(308,1594,o),
(363,1637,c),
(363,1645,l),
(337,1664,l),
(243,1598,o),
(120,1444,o),
(120,1301,cs),
(120,1158,o),
(207,1069,o),
(284,1069,cs)
);
},
{
closed = 1;
nodes = (
(754,1069,o),
(790,1101,o),
(790,1146,cs),
(790,1227,o),
(649,1245,o),
(649,1356,cs),
(649,1473,o),
(733,1594,o),
(788,1637,c),
(788,1645,l),
(762,1664,l),
(668,1598,o),
(545,1444,o),
(545,1301,cs),
(545,1158,o),
(632,1069,o),
(709,1069,cs)
);
}
);
width = 920;
},
{
layerId = "779F1615-9D1A-4778-9767-9A030AA58B6C";
shapes = (
{
closed = 1;
nodes = (
(470,924,o),
(506,954,o),
(506,1014,cs),
(506,1106,o),
(372,1144,o),
(372,1246,cs),
(372,1422,o),
(468,1582,o),
(512,1612,c),
(512,1630,l),
(466,1674,l),
(388,1636,o),
(234,1468,o),
(234,1234,cs),
(234,1072,o),
(324,924,o),
(418,924,cs)
);
},
{
closed = 1;
nodes = (
(976,924,o),
(1012,954,o),
(1012,1014,cs),
(1012,1106,o),
(878,1144,o),
(878,1246,cs),
(878,1422,o),
(974,1582,o),
(1018,1612,c),
(1018,1630,l),
(972,1674,l),
(894,1636,o),
(740,1468,o),
(740,1234,cs),
(740,1072,o),
(830,924,o),
(924,924,cs)
);
}
);
userData = {
com.schriftgestaltung.Glyphs.lastChange = "2019-04-25 21:50:43 +0000";
};
width = 1262;
},
{
layerId = "97BB7961-D669-43AB-8BBF-11FFD0C46A4B";
shapes = (
{
closed = 1;
nodes = (
(496,821,o),
(555,882,o),
(555,964,cs),
(555,1102,o),
(411,1113,o),
(411,1267,cs),
(411,1446,o),
(523,1567,o),
(564,1608,c),
(564,1639,l),
(493,1693,l),
(378,1627,o),
(178,1433,o),
(178,1148,cs),
(178,958,o),
(296,821,o),
(416,821,cs)
);
},
{
closed = 1;
nodes = (
(1058,821,o),
(1117,882,o),
(1117,964,cs),
(1117,1102,o),
(973,1113,o),
(973,1267,cs),
(973,1446,o),
(1085,1567,o),
(1126,1608,c),
(1126,1639,l),
(1055,1693,l),
(940,1627,o),
(740,1433,o),
(740,1148,cs),
(740,958,o),
(859,821,o),
(978,821,cs)
);
}
);
width = 1340;
}
);
metricLeft = "=|quoteright";
metricRight = "=|quoteright";
unicode = 8220;
}
{
glyphname = upDownArrow;
kernLeft = upDownArrow;
kernRight = upDownArrow;
layers = (
{
layerId = UUID0;
shapes = (
{
closed = 1;
nodes = (
(1212,994,l),
(638,1572,l),
(60,994,l),
(152,906,l),
(584,1340,l),
(572,1240,l),
(572,82,l),
(584,-18,l),
(152,416,l),
(60,328,l),
(638,-248,l),
(1212,328,l),
(1122,416,l),
(690,-20,l),
(700,82,l),
(700,1240,l),
(690,1342,l),
(1122,906,l)
);
}
);
width = 1272;
},
{
layerId = "DEBB1CE4-A72D-4960-969E-E04A036D2FA1";
shapes = (
{
closed = 1;
nodes = (
(1235,976,l),
(648,1565,l),
(60,976,l),
(205,829,l),
(557,1180,l),
(541,1026,l),
(541,246,l),
(557,91,l),
(205,443,l),
(60,295,l),
(648,-292,l),
(1235,295,l),
(1091,443,l),
(740,91,l),
(756,246,l),
(756,1026,l),
(740,1181,l),
(1091,829,l)
);
}
);
width = 1295;
},
{
layerId = "184155C8-9F61-4F1C-9784-DDA8EA717636";
shapes = (
{
closed = 1;
nodes = (
(1235,976,l),
(648,1565,l),
(60,976,l),
(205,829,l),
(557,1180,l),
(541,1026,l),
(541,246,l),
(557,91,l),
(205,443,l),
(60,295,l),
(648,-292,l),
(1235,295,l),
(1091,443,l),
(740,91,l),
(756,246,l),
(756,1026,l),
(740,1181,l),
(1091,829,l)
);
}
);
width = 1295;
},
{
layerId = "EA2265BD-E890-48C4-9E90-A53076E780C5";
shapes = (
{
closed = 1;
nodes = (
(1235,976,l),
(648,1565,l),
(60,976,l),
(205,829,l),
(557,1180,l),
(541,1026,l),
(541,246,l),
(557,91,l),
(205,443,l),
(60,295,l),
(648,-292,l),
(1235,295,l),
(1091,443,l),
(740,91,l),
(756,246,l),
(756,1026,l),
(740,1181,l),
(1091,829,l)
);
}
);
width = 1295;
},
{
layerId = "0E4B6E2E-ECAB-4D06-9686-B0B40AA31834";
shapes = (
{
closed = 1;
nodes = (
(1212,994,l),
(638,1572,l),
(60,994,l),
(152,906,l),
(584,1340,l),
(572,1240,l),
(572,82,l),
(584,-18,l),
(152,416,l),
(60,328,l),
(638,-248,l),
(1212,328,l),
(1122,416,l),
(690,-20,l),
(700,82,l),
(700,1240,l),
(690,1342,l),
(1122,906,l)
);
}
);
width = 1272;
},
{
layerId = "F2B10EEF-9DDC-48CA-970D-6B8C79870881";
shapes = (
{
closed = 1;
nodes = (
(1235,976,l),
(648,1565,l),
(60,976,l),
(205,829,l),
(557,1180,l),
(541,1026,l),
(541,246,l),
(557,91,l),
(205,443,l),
(60,295,l),
(648,-292,l),
(1235,295,l),
(1091,443,l),
(740,91,l),
(756,246,l),
(756,1026,l),
(740,1181,l),
(1091,829,l)
);
}
);
width = 1295;
},
{
layerId = "E96AC896-F5DF-475B-BBD9-C7FEC6A86D0E";
shapes = (
{
closed = 1;
nodes = (
(1212,994,l),
(638,1572,l),
(60,994,l),
(152,906,l),
(584,1340,l),
(572,1240,l),
(572,82,l),
(584,-18,l),
(152,416,l),
(60,328,l),
(638,-248,l),
(1212,328,l),
(1122,416,l),
(690,-20,l),
(700,82,l),
(700,1240,l),
(690,1342,l),
(1122,906,l)
);
}
);
width = 1272;
},
{
layerId = "C9B9556E-C2FD-4F62-BB40-44923C452C22";
shapes = (
{
closed = 1;
nodes = (
(1212,994,l),
(638,1572,l),
(60,994,l),
(152,906,l),
(584,1340,l),
(572,1240,l),
(572,82,l),
(584,-18,l),
(152,416,l),
(60,328,l),
(638,-248,l),
(1212,328,l),
(1122,416,l),
(690,-20,l),
(700,82,l),
(700,1240,l),
(690,1342,l),
(1122,906,l)
);
}
);
width = 1272;
},
{
layerId = "AFA1064D-EFC9-4C9F-B9B0-9118E41D87C4";
shapes = (
{
closed = 1;
nodes = (
(1235,976,l),
(648,1565,l),
(60,976,l),
(205,829,l),
(557,1180,l),
(541,1026,l),
(541,246,l),
(557,91,l),
(205,443,l),
(60,295,l),
(648,-292,l),
(1235,295,l),
(1091,443,l),
(740,91,l),
(756,246,l),
(756,1026,l),
(740,1181,l),
(1091,829,l)
);
}
);
width = 1295;
},
{
layerId = "2103F1D3-C390-4F79-A87D-298F85EA6916";
shapes = (
{
closed = 1;
nodes = (
(1212,994,l),
(638,1572,l),
(60,994,l),
(152,906,l),
(584,1340,l),
(572,1240,l),
(572,82,l),
(584,-18,l),
(152,416,l),
(60,328,l),
(638,-248,l),
(1212,328,l),
(1122,416,l),
(690,-20,l),
(700,82,l),
(700,1240,l),
(690,1342,l),
(1122,906,l)
);
}
);
width = 1272;
},
{
layerId = "779F1615-9D1A-4778-9767-9A030AA58B6C";
shapes = (
{
closed = 1;
nodes = (
(1212,994,l),
(638,1572,l),
(60,994,l),
(152,906,l),
(584,1340,l),
(572,1240,l),
(572,82,l),
(584,-18,l),
(152,416,l),
(60,328,l),
(638,-248,l),
(1212,328,l),
(1122,416,l),
(690,-20,l),
(700,82,l),
(700,1240,l),
(690,1342,l),
(1122,906,l)
);
}
);
userData = {
com.schriftgestaltung.Glyphs.lastChange = "2019-04-25 21:50:43 +0000";
};
width = 1272;
},
{
layerId = "97BB7961-D669-43AB-8BBF-11FFD0C46A4B";
shapes = (
{
closed = 1;
nodes = (
(1235,976,l),
(648,1565,l),
(60,976,l),
(205,829,l),
(557,1180,l),
(541,1026,l),
(541,246,l),
(557,91,l),
(205,443,l),
(60,295,l),
(648,-292,l),
(1235,295,l),
(1091,443,l),
(740,91,l),
(756,246,l),
(756,1026,l),
(740,1181,l),
(1091,829,l)
);
}
);
width = 1295;
}
);
metricLeft = "=upArrow";
metricRight = "=upArrow";
unicode = 8597;
}
